/* XPM */
static char *dtool_logo_small[] = {
/* columns rows colors chars-per-pixel */
"128 128 57 1 ",
"  c #8E2F9A",
". c #922F9A",
"X c #8D319B",
"o c #93319B",
"O c #98319B",
"+ c #94399F",
"@ c #99399F",
"# c #963DA1",
"$ c #983FA2",
"% c #9640A2",
"& c #9D46A5",
"* c #9D49A7",
"= c #9E4DA9",
"- c #A046A6",
"; c #A14EA9",
": c #A254AC",
"> c #A559AE",
", c #A75DB1",
"< c #AC64B4",
"1 c #AE69B6",
"2 c #AF6DB8",
"3 c #B069B6",
"4 c #B16DB8",
"5 c #B372BB",
"6 c #B778BE",
"7 c #BA7ABF",
"8 c #BA7FC1",
"9 c #BC83C3",
"0 c #BF89C6",
"q c #C18BC7",
"w c #C28EC8",
"e c #C593CA",
"r c #C798CD",
"t c #C99ACE",
"y c #CB9ED0",
"u c #CDA3D2",
"i c #D0A7D4",
"p c #D1AAD6",
"a c #D4AFD8",
"s c #D5B2DA",
"d c #D8B7DC",
"f c #DBBBDE",
"g c #DCBFE0",
"h c #DEC1E1",
"j c #E0C6E3",
"k c #E4CCE6",
"l c #E5CFE8",
"z c #E7D3E9",
"x c #E9D6EB",
"c c #ECDBEE",
"v c #EFE1F0",
"b c #F2E6F3",
"n c #F5ECF6",
"m c #F7F0F8",
"M c #F9F4FA",
"N c #FFFFFF",
"B c None",
/* pixels */
"BBBBBBBBBBXXXXXXXXXXXXXXXXXXXXXXXXXXXXXXXXXXXXXXXXXXXXXXXXXXXXXXXXXXXXXXXXXXXXXXXXoXoXoXXXoXXXXXoXoXoXXoXoXoXooXoXoXoXBBBBBBBBBB",
"BBBBBBBXXXXXXXXXXXXXXXXXXXXXXXXXXXXXXXXXXXXXXXXXXXXXXXXXXXXXXXXXXXXXXXXXXXXXXXXXoXXXoXXXoXXXoXoXXXXoXooXoXoXXXXoXoXo ooooBBBBBBB",
"BBBBBBXXXXXXXXXXXXXXXXXXXXXXXXXXXXXXXXXXXXXXXXXXXXXXXXXXXXXXXXXXXXXXXXXXXXXXXXXXXXoXXoXXXXoXoXoXoXoXXoXoXoXooXoXXooXXoooooBBBBBB",
"BBBBXXXXXXXXXXXXXXXXXXXXXXXXXXXXXXXXXXXXXXXXXXXXXXXXXXXXXXXXXXXXXXXXXXXXXXXXXXXXoXXXXXXooXoXXXXXXoXooXoXoXoXXoXooXooooXXXooXBBBB",
"BBBXXXXXXXXXXXXXXXXXXXXXXXXXXXXXXXXXXXXXXXXXXXXXXXXXXXXXXXXXXXXXXXXXXXXXXXXXXXXXXoXXoXoXXXXXoXXooXoXXoXooXXooXoXXoXooXoooXXooBBB",
"BBBXXXXXXXXXXXXXXXXXXXXXXXXXXXXXXXXXXXXXXXXXXXXXXXXXXXXXXXXXXXXXXXXXXXXXXXXXXXXXXXXoXXXXXooXoXXoXoXooXoXXooXXoXXoXooooXooooooBBB",
"BBXXXXXXXXXXXXXXXXXXXXXXXXXXXXXXXXXXXXXXXXXXXXXXXXXXXXXXXXXXXXXXXXXXXXXXXXXXXXXXXoXXXoXoXXXXXXoXoXoXoXXooXoXoXXoooXXXXooXooXoXBB",
"BXXXXXXXXXXXXXXXXXXXXXXXXXXXXXXXXXXXXXXXXXXXXXXXXXXXXXXXXXXXXXXXXXXXXXXXXXXXXXXXXoXoXXXXXooXXoXoXoXoXoXXXoXoXoooXooooooXXooXoooB",
"BXXXXXXXXXXXXXXXXXXXXXXXXXXXXXXXXXXXXXXXXXXXXXXXXXXXXXXXXXXXXXXXXXXXXXXXXXXXXXXXXoXXXoXoXooXXoXXooXoXoXoXoXoXoXXoXXoXoooooXoooXB",
"BXXXXXXXXXXXXXXXXXXXXXXXXXXXXXXXXXXXXXXXXXXXXXXXXXXXXXXXXXXXXXXXXXXXXXXXXXXXXXXXXXXoXXXoXXXXoXooXXoXoXoXoXoXoXooooooooXXoXooXooB",
"XXXXXXXXXXXXXXXXXXXXXXXXXXXXXXXXXXXXXXXXXXXXXXXXXXXXXXXXXXXXXXXXXXXX+XXXXXXXXXXXXoXXXXoXXoXoXooXXoXoXooXXoXoooXoXooXoXooooXXoooo",
"XXXXXXXXXXXXXXXXXXXXXXXXXXXXXXXXXXXXXXXXXXXXXXXXXXXXXXXXXXXXXXXXXXXXXXXXXXXXXXXXXoXooXXXoXoXoXXooXoXoXXooXoXXoooXooXooXoXoooXXoo",
"XXXXXXXXXXXXXXXXXXXXXXXXXXXXXXXXXXXXXXXXXXXXXXXXXXXXXXXXXXXXXXXXXXXXXXXXXXXXXXXXXXXXXXXoXoXooXoXXooXoXoXXoooXooXoooXoXoooXXooooo",
"XXXXXXXXXXXXXXXXXXXXXXXXXXXXXXXXXXXXXXXXXXXXXXXXXXXXXXXXXXXXXXXXXXXoXXXXXXXXXXXXoXoXXoXXoXXXXoXooXXoXoXooXXoXooXoXoooXoXoooooooX",
"XXXXXXXXXXXXXXXXXXXXXXXXXXXXXXXXXXXXXXXXXXXXXXXXXXXXXXXXXXXXXXXXoXXXXXXXXXXXXXXXoXoXoXoXoXoXoXoXXoXXoXoXXXooooooXoXoooXoXoXooooo",
"XXXXXXXXXXXXXXXXXXXXXXXXXXXXXXXXXXXXXXXXXXXXXXXXXXXXXXXXXXXXXXXXXXXXXXXXXXXXXXXXXXXXoXXoXoXoXoXooXXoXoXooooXoXXoooXoXoooXooooXoo",
"XXXXXXXXXXXXXXXXXXXXXXXXXXXXXXXXXXXXXXXXXXXXXXXXXXoXXXXXXXXXXXXXXXXXooXX XXXXoXoXXXXXoXoXoXoXoXXXoXooXoXoooXoXXoooXooXoooooooooo",
"XXXXXXXXXXXXXXXXXXXXXXXXXXXXXXXXXXXXXXXXXXXXXXXXXXXXXXXXoXXXXXoXXXXoXXoX+XoXXXXXoX  oXoXX oXoXo oXoXXXooXXooooooXoXooXoXXoooXooo",
"XXXXXXXXXXXXXXXXXXXXXXXXXXXXXXXXXXXXXXXXXXXXXXXXXXXXoXoXXXXXXXXXXXXXoXXXXXXX+oX+oX+++X+oo+o+o+X+oXXoooXoooXoXooXoXooooXoooooooXo",
"XXXXXXXXXXXXXXXXXXXXXXXXXXXXXXXXXXXXXXXXXXXXXXXXXXXXXXXXXXoXXXXXoXoXXXXo$uhhghhhhhhhghhhhhhhhhhhp%.XoXoooXooXooXoooXXooooooXXooo",
"XXXXXXXXXXXXXXXXXXXXXXXXXXXXXXXXXXXXXXXXXXXXXXXXXXXXXXXXXXXoXXXXoXXXXXXo#zNNNNNNNNNNNNNNNNNNNNNNc* oooXXooXoXoooXoooXoooXooooooo",
"XXXXXXXXXXXXXXXXXXXXXXXXXXXXXXXXXXXXXXXXXXXXXXXXoXXXXoXXXXXXXoXoXXoXoXXX#zNNNNNNNNNNNNNNNNNNNNNNc&.XXoooXoXoooXoXoXoooXooooooooX",
"XXXXXXXXXXXXXXXXXXXXXXXXXXXXXXXXXXXXXXXXXXXXXXXXXXXXXXXXXXXXXXXXXXXoXoXo#zNNNNNNNNNNNNNNNNNNNNNNc&XoXooooXoooXoXoooooooooooXoXoo",
"XXXXXXXXXXXXXXXXXXXXXXXXXXXXXXXXXXXXXXXXXXXXXXXXXXXoXXXXoXXXXXoXXoXoXXXX$zNNNNNNNNNNNNNNNNNNNNNNc& oooXXoooXoXoooXXooXoooooooooo",
"XXXXXXXXXXXXXXXXXXXXXXXXXXXXXXXXXXXXXXXXXXXXXXXXXXoXXXXXXXXXXoXoXXXooXXX+zNNNNNNNNNNNNNNNNNNNNNNc&oXoooXooXXooXoXoooXooooXoXo.oo",
"XXXXXXXXXXXXXXXXXXXXXXXXXXXXXXXXXXXXXXXXXoXXXXXoXXXXXXXXXXXoXXXooXXXXXoX$zNNNNNNNNNNNNNNNNNNNNNNc&.XoXooXooooXooooXoooooooooooXo",
"XXXXXXXXXXXXXXXXXXXXXXXXXXXXXXXXXXXXXXXXXXXXXXXXoXXXXXoXoXXoXXoXXXoXoXXX$zNNNNNNNNNNNNNNNNNNNNNNc&XoXoXoXoooooXXoooooooXooXoXooo",
"XXXXXXXXXXXXXXXXXXXXXXXXXXXXXXXXXXXXXXXXXXXXXoXXXXXXXXXXXXXXoXXXooXXXXoX$zNNNNNNNNNNNNNNNNNNNNNNc* oooXoooXXXoooooXooooooooooooo",
"XXXXXXXXXXXXXXXXXXXXXXXXXXXXXXXXXXXXXXXXXXXXoXXXXXXXXXXXoXXXXoXoXXXXoXoX+zNNNNNNNNNNNNNNNNNNNNNNc&.XooXoXooooXXoooooooXooooooooX",
"XXXXXXXXXXXXXXXXXXXXXXXXXXXXXXXXXXXXXXXXXXXoXXXXXXoXXoXXXXoXXXXXXooXXXXX$zNNNNNNNNNNNNNNNNNNNNNNc&.oXoXoooXoooooXoooooooooXooooo",
"XXXXXXXXXXXXXXXXXXXXXXXXXXXXXXXXXXXXXXXXXXXXXXXoXXXXXXXooXXXoXoXXXXXooXo#zNNNNNNNNNNNNNNNNNNNNNNc& ooXooo oXooooooXooooooooooooo",
"XXXXXXXXXXXXXXXXXXXXXXXXXXXXXXXXXXXXXXXoXXXXXXXXXXXXXoXXXXoXoXXXXooXXXXX#zNNNNNNNNNNNNNNNNNNNNNNc*.XoooXoXoooXooXoooXooooXXooooo",
"XXXXXXXXXXXXXXXXXXXXXXXXXXXXXXXXXXXXXXXXXXXXXXXXXXXXXoXXXXoXXoXXXXXooXX $zNNNNNNNNNNNNNNNNNNNNNNc&.oooXoooXoooooXoooooooXooooooo",
"XXXXXXXXXXXXXXXXXXXXXXXXXXXXXXXXXXXXXXXXXXXXXXXXoXXXXXoXoXXXXXXoXoXXXXoo$zNNNNNNNNNNNNNNNNNNNNNNc& oXoXoXoooXoooooXoXooooooooooo",
"XXXXXXXXXXXXXXXXXXXXXXXXXXXXXXXXXXXXXXXXXXXXXXXXXXXooXoXXXoXXX  XoXXXooX$zNNNNNNNNNNNNNNNNNNNNNNc* XoXooooooooooXoooooXo.oXooooo",
"XXXXXXXXXXXXXXXXXXXXXXXXXXXXXXXXXXXXXXXXXXXXXXXXXXXXXX    ++%&*&%+oX    #zNNNNNNNNNNNNNNNNNNNNNNc&XooooXXooXooXooooooooooooooooo",
"XXXXXXXXXXXXXXXXXXXXXXXXXXXXXXXXXXXXXXXXXXXXXXXXXXX X$:1wphlzxcczkfu9<=++zNNNNNNNNNNNNNNNNNNNNNNc&oXXXoooooooooooooooooooooooooo",
"XXXXXXXXXXXXXXXXXXXXXXXXXXXXXXXXXXXXXXXXXXXXXXXX  %<rhbNNNNNNNNNNNNNNMcfevNNNNNNNNNNNNNNNNNNNNNNc& oooXoXoooXooXoooXXooXoooooooo",
"XXXXXXXXXXXXXXXXXXXXXXXXXXXXXXXXXXXXXXXXXXXXXXXX:ekMNNNNNNNNNNNNNNNNNNNNNNNNNNNNNNNNNNNNNNNNNNNNc& ooXooooXooo.ooooooooooooooooo",
"XXXXXXXXXXXXXXXXXXXXXXXXXXXXXXXXXXXXXXXXXXXXXX>ubNNNNNNNNNNNNNNNNNNNNNNNNNNNNNNNNNNNNNNNNNNNNNNNc*.XooooooooooooXooooooooooooooo",
"XXXXXXXXXXXXXXXXXXXXXXXXXXXXXX+XX+XXXXXXXXXX=ubNNNNNNNNNNNNNNNNNNNNNNNNNNNNNNNNNNNNNNNNNNNNNNNNNc&XooooooooXooXooooooooooooooooo",
"XXXXXXXXXXXXXXXXXXXXXXXXXXXXXXXXXXXXXXXXXX+9xNNNNNNNNNNNNNNNNNNNNNNNNNNNNNNNNNNNNNNNNNNNNNNNNNNNc& ooXoXooooooooXooooooooooooooO",
"XXXXXXXXXXXXXXXXXXXXXXXXXXXXXXXXXXXXXXXXX=sMNNNNNNNNNNNNNNNNNNNNNNNNNNNNNNNNNNNNNNNNNNNNNNNNNNNNc&oooooXoooooooooooooooOoooooooo",
"XXXXXXXXXXXXXXXXXXXXXXXXXXoXXXXXXXXXXXXX1xNNNNNNNNNNNNNNNNNNNNNNNNNNNNNNNNNNNNNNNNNNNNNNNNNNNNNNc& ooooooXooXooooooooooooooooooo",
"XXXXXXXXXXXXXXXXXXXXXXXXXXXXXXXXXXoXXXX9vNNNNNNNNNNNNNNNNNNNNNNNNNNNNNNNNNNNNNNNNNNNNNNNNNNNNNNNc&oooooooooooXXooXoooooooooooooo",
"XXXXXXXXXXXXXXXXXXXXXXXXXXXXXXXXXXXXX+0MNNNNNNNNNNNNNNNNNNNNNNNNNNNNNNNNNNNNNNNNNNNNNNNNNNNNNNNNc& oXoooXoooooooooooooooOooooooo",
"XXXXXXXXXXXXXXXXXXXXXXXXoXXXXXXXoXXXX0mNNNNNNNNNNNNNNNNNNNNNNNNNNNNNNNNNNNNNNNNNNNNNNNNNNNNNNNNNc&oooooooooooXoooooooooooooooo.O",
"XXXXXXXXXXXXXXXXXXXXXXXXXXXXXXXXXXXX9mNNNNNNNNNNNNNNNNNNNNNNNNNNNNNNNNNNNNNNNNNNNNNNNNNNNNNNNNNNc*.ooooXoooXoooooooooooooooooooo",
"XXXXXXXXXXXXXXXXXXXXXXXXXXXXXXXXXXX5nNNNNNNNNNNNNNNNNNNNNNNNNNNNNNNNNNNNNNNNNNNNNNNNNNNNNNNNNNNNc* ooooXXoooooooooooOoooooOooooO",
"XXXXXXXXXXXXXXXXXXXXXXXXXXXXXXXXXX:cNNNNNNNNNNNNNNNNNNNNNNNNNNNNNNNNNNNNNNNNNNNNNNNNNNNNNNNNNNNNc&.ooooooooooooooooooooooooooooo",
"XXXXXXXXXXXXXXXXXXXXXXXXXXXXXXXXX$fNNNNNNNNNNNNNNNNNNNNNNNNNNNNNNNNNNNNNNNNNNNNNNNNNNNNNNNNNNNNNc&.oXooooooo.oooooooooooooooOooO",
"XXXXXXXXXXXXXXXXXXXXXXXXXXXXXXXXXeNNNNNNNNNNNNNNNNNNNNNNNNNNNNNNNNNNNNNNNNNNNNNNNNNNNNNNNNNNNNNNc& ooooooooooooooooooooooooooooo",
"XXXXXXXXXXXXXXXXXXXXXXXXXXXXXXXX<vNNNNNNNNNNNNNNNNNNNNNNNNNNNNNNNNNNNNNNNNNNNNNNNNNNNNNNNNNNNNNNc&.ooooooooooooo.ooooooooooooOoo",
"XXXXXXXXXXXXXXXXXXXXXXXXXXXXXXX%dNNNNNNNNNNNNNNNNNNNNNNNNNNNNNNNNNNNNNNNNNNNNNNNNNNNNNNNNNNNNNNNc*.ooooXXooooOooooooOooooooOooOo",
"XXXXXXXXXXXXXXXXXXXXXXXXXXXXXXX2MNNNNNNNNNNNNNNNNNNNNNNNNNNNNNNNNNNNNNNNNNNNNNNNNNNNNNNNNNNNNNNNc*.ooXoooooooooooooooooo.Ooooooo",
"XXXXXXXXXXXXXXXXXXXXXXXXXXXXXX%hNNNNNNNNNNNNNNNNNNNNNNNNNNNNNNNNNNNNNNNNNNNNNNNNNNNNNNNNNNNNNNNNc&.ooooXoooooooooooooooooooOoOoo",
"XXXXXXXXXXXXXXXXXXXXXXXXXXXXXX2MNNNNNNNNNNNNNNNNNNNNNNNNNNNNNNNNNNNNNNNNNNNNNNNNNNNNNNNNNNNNNNNNc&.ooXoooooOoooooooooooOOooooooo",
"XXXXXXXXXXXXXXXXXXXXXXXXXXXXXXsMNNNNNNNNNNNNNNNNNNNNNNNNNNNNNNNNNNNNNNNNNNNNNNNNNNNNNNNNNNNNNNNNc* oooooooooooooooooooooooOooOoO",
"XXXXXXXXXXXXXXXXXXXXXXXXXXXXX:bMNNNNNNNNNNNNNNNNNNNNNNNNNNNNNNNNNNNNNNNNNNNNNNNNNNNNNNNNNNNNNNNNc&.oooooooooooooooooooooOooooooo",
"XXXXXXXXXXXXXXXXXXXXXXXXXXXXX0MMNNNNNNNNNNNNNNNNNNNNNNNNNNNMczlxbNNNNNNNNNNNNNNNNNNNNNNNNNNNNNNNc&.ooooooooooooooooooOoOooOoOooO",
"XXXXXXXXXXXXXXXXXXXXXXXXXXXXXuMMNNNNNNNNNNNNNNNNNNNNNNNNNct<;$$%:6dnNNNNNNNNNNNNNNNNNNNNNNNNNNNNc*.oooooooooooooooOoooOoOooOoOoo",
"XXXXXXXXXXXXXXXXXXXXXXXXXXXX=zmmNNNNNNNNNNNNNNNNNNNNNNNnr*X .XX.. +<hNNNNNNNNNNNNNNNNNNNNNNNNNNNc* oooooooooooooooo.oooooooooooO",
"XXXXXXXXXXXXXXXXXXXXXXXXXXXX2bbnNNNNNNNNNNNNNNNNNNNNNNv5oXXoXoXXXo..%uMNNNNNNNNNNNNNNNNNNNNNNNNNc&.oooooooooooooooOooOoooooooOOo",
"XXXXXXXXXXXXXXXXXXXXXXXXXXXXtvbnNNNNNNNNNNNNNNNNNNNNNb4XXooXoXooooXo.$uNNNNNNNNNNNNNNNNNNNNNNNNNc&.oooooOooooooooOooooOooOOoooOo",
"XXXXXXXXXXXoXXXXXoXXXXoXXXXXfNNNNNNNNNNNNNNNNNNNNNNNM9oXoXoXoXooooXoo %jNNNNNNNNNNNNNNNNNNNNNNNNc&.ooooooooo.OoooooOOoooooOooOoO",
"XXXXXXXXXXXXoXXXXXXXXXXXXoX$zNNNNNNNNNNNNNNNNNNNNNNNh$XoXoXXooXXXoXooX.1nNNNNNNNNNNNNNNNNNNNNNNNc&.oooooooooooooOooooooOOoooOooo",
"XXXXXXXXXXXXXXXXXXXXXXXXoX :bNNNNNNNNNNNNNNNNNNNNNNM6XoXoXooXooooXooooo+fNNNNNNNNNNNNNNNNNNNNNNNc&ooooooooooooooOooOoooOoooOoOOo",
"XXXXXXXXoXXXXXoXXXXXoXXXoX ,nNNNNNNNNNNNNNNNNNNNNNNc*oXoXoXoXoXooooXXoo 9NNNNNNNNNNNNNNNNNNNNNNNc-oooooooooooooOooooOooooOOoOooO",
"XXXXXXoXXXXXXXXXXoXXXXooXo <MNNNNNNNNNNNNNNNNNNNNNNfoXoXoXoooXooXooXooX.>nNNNNNNNNNNNNNNNNNNNNNNc-.oooooooooooooooooOoooO.oOooOo",
"XXXXXXXXXXXXXoXXXXXXXXXXXX 1MNNNNNNNNNNNNNNNNNNNNNNtXoXoXoXooXoXXooXoXoo%vNNNNNNNNNNNNNNNNNNNNNNc-oooooooooOooOooOoooooOoOoooOOo",
"XXXXXXoXXXXoXXXXXXXXXoXXXX 2NNNNNNNNNNNNNNNNNNNNNNNe.XXooXooooXoooooooX $xNNNNNNNNNNNNNNNNNNNNNNc-.oooooooooOoOooOoOOoOoOooOOooO",
"XXXXXXXXXXXXXXXXXXXoXXooXX 2NNNNNNNNNNNNNNNNNNNNNNNr XoXoooXXooooXXoXoo.%cNNNNNNNNNNNNNNNNNNNNNNc&.oooOooooOoooooooooooOOooOoOoo",
"XXXoXXXXXoXXXXoXXXXXXXoXXo <NNNNNNNNNNNNNNNNNNNNNNNaXXooXoooXooXoXXoXooo:bNNNNNNNNNNNNNNNNNNNNNNc-ooooooooooOooooooooOoooOooOooO",
"XXXXXXXXXXXXXXXXXooXoXXXXX ,mNNNNNNNNNNNNNNNNNNNNNNl$.XoooXoXooXooooooX.5MNNNNNNNNNNNNNNNNNNNNNNc&.ooooooOoOoooOoOooooOOooOooOoO",
"XXXXXXXoXXXoXXXXXXXXoXoXXoX:bNNNNNNNNNNNNNNNNNNNNNNM< oooXoXooooXooXoX.oiNNNNNNNNNNNNNNNNNNNNNNNc&.ooooooooooooOoOoOOoOoOooOOoOo",
"XXXXXXXXXXXXoXXXXoXoXXoXXXX&cNNNNNNNNNNNNNNNNNNNNNNNpooXoXoooXXoXooXoo.:vNNNNNNNNNNNNNNNNNNNNNNNc-.oooOoOoOoOoooooOooOoooOOooOoO",
"XXoXXXXXXXXXoXXXoXXXXXXoXoX+jNNNNNNNNNNNNNNNNNNNNNNNn1.ooXooXooooooXoX+iNNNNNNNNNNNNNNNNNNNNNNNNc-.ooooooooooOooOooOoOoOOooOOOoO",
"XXXXXoXXXoXXXXXoXXoXXoXXXXXopNNNNNNNNNNNNNNNNNNNNNNNNz; oXoXooXXoXoooo7MNNNNNNNNNNNNNNNNNNNNNNNNc&.oooOoooOooooOoOOooOOoooOooOOo",
"XXXXXXXXXXXXXXXXXoXoXXXoXoX 9NNNNNNNNNNNNNNNNNNNNNNNNNh;.ooooXooooo o7bNNNNNNNNNNNNNNNNNNNNNNNNNc&ooOoooOoOoooooooooOooOOooOoOOo",
"XXXXXoXXXXXXXooXXXXoXoXXXoX ,nNNNNNNNNNNNNNNNNNNNNNNNNNz1+  oo .Xoo%rnNNNNNNNNNNNNNNNNNNNNNNNNNNc-ooooOooooooOOoOOoOooOooOOoOOoO",
"oXXXXXXXXXXoXXXoXXXXoXoXXXX %lNNNNNNNNNNNNNNNNNNNNNNNNNNna3%+oo++;8kNNNNNNNNNNNNNNNNNNNNNNNNNNNNc-.ooOoOooOooOooooOoOoOOoOOoOOoO",
"XXXXXoXXXoXXXoXXoXoXXXXXXoXoXyNNNNNNNNNNNNNNNNNNNNNNNNNNNNMxsyrufvNNNNNNNNNNNNNNNNNNNNNNNNNNNNNNc-OoooooOoooooOOOooOoOoooOoOoOOo",
"XXXXXXXXXoXXXXXooXXXooXoXXXo <MNNNNNNNNNNNNNNNNNNNNNNNNNNNNNNNNNNNNNNNNNNNNNNNNNNNNNNNNNNNNNNNNNc-.Oo.ooooOoOoOooOoOoooOOOoOoOOo",
"XXXoXXXXXXXoXoXXXXoXXXXXoXoX $kNNNNNNNNNNNNNNNNNNNNNNNNNNNNNNNNNNNNNNNNNNNNNNNNNNNNNNNNNNNNNNNNNc-.ooOOoOoooOoooooOoOoOooOOoOOoO",
"XXXXXXXoXXXXooXXXXoooXXXXXoXo 9NNNNNNNNNNNNNNNNNNNNNNNNNNNNNNNNNNNNNNNNNNNNNNNNNNNNNNNNNNNNNNNNNc-.oooOooooOOooOOoO.OOoOoOOoooOo",
"oXoXXXXXooXoXXoXXoXXXXoXXoXoX *cNNNNNNNNNNNNNNNNNNNNNNNNNNNNNNNNNNNNNNNNNNNNNNNNNNNNNNNNNNNNNNNNc-.ooOoooOoooOOooOooOoOOOoOOOOOO",
"XXXXXXXXXXXXoXXXXXXoXXXooXoXoXowNNNNNNNNNNNNNNNNNNNNNNNNNNNNNNNNNNNNNNNNNNNNNNNNNNNNNNNNNNNNNNNNc-.OooooooOooooOoOoOoOOoOoOooOoO",
"XXXXXoXooXoXXXXooXXXXoXoXoXoXo *zNNNNNNNNNNNNNNNNNNNNNNNNNNNNNNNNNNNNNNNNNNNNNNNNNNNNNNNNNNNNNNNc-.oooOoOOoOOoOoOoOoOooOoOoOOoOO",
"XXXXXXXoXXXXoXoXXXXXoXoXXooXoXoX9MNNNNNNNNNNNNNNNNNNNNNNNNNNNNNNNNNNNNNNNNNNNNNNNNNNNNNNNNNNNNNNc-.OoOoooOooOoOooOoOOoOoOOOoOoOO",
"XXXXXoXXXooXXXoXoXoXoXXooXXoXoX #dNNNNNNNNNNNNNNNNNNNNNNNNNNNNNNNNNNNNNNNNNNNNNNNNNNNNNNNNNNNNNNc-.ooooOOooOoOoOOoOOOOoOOooOOOoO",
"XoXooXXXXXXXoXXXoXXXXoXXXooXoXXo >cNNNNNNNNNNNNNNNNNNNNNNNNNNNNNNNNNNNNNNNNNNNNNNNNNNNNNNNNNNNNNc-oOoOOoOooOoOoooOOooOoOooOOOOOO",
"XXXXoXoXXooXXXXoXXoXoXXooXXoXooXo 7MNNNNNNNNNNNNNNNNNNNNNNNNNNNNNNNNNNNNNNNNNNNNNNNNNNNNNNNNNNNNc-.ooooOoOooOooOOooOOoOoOOOoOoOO",
"XXXoXoXXXooXXXXoXoXooXoXXoXoXoXoXo+tNNNNNNNNNNNNNNNNNNNNNNNNNNNNNNNNNNNNNNNNNNNNNNNNNNNNNNNNNNNNc-.oOooOOoOOoo.OOoOOOoOOoOoOoOOo",
"oXXXXXXoXXXXoXXXXXoXXoXooXoXoXoXoX $sNNNNNNNNNNNNNNNNNNNNNNNNNNNNNNNNNNNNNNNNNNNNNNNNNNNNNNNNNNNc-OOoOOoooooOOOooOOoOooOOOOOOOOO",
"XXoXXoXXXooXXXoXXooXoXoXXoXoXooXoXX.&fNNNNNNNNNNNNNNNNNNNNNNNNNNNNNNNNNNNNNNNNNNNNNNNNNNNNNNNNNNc-OoOooooOoooOoOOooOoOOoOooOOoOo",
"ooXXXoXoXXXXooXXXoXoXoXoXXoXXoXoXoXo.*fNNNNNNNNNNNNNNNNNNNNNNNNNNNNNNNNNNNNNNNNNNNNNNNNNNNNNNNNNc-.ooOoOOoOOoOOOoOoOOoOOOOOOOOOO",
"XXXXoXoXXXooXXXoXoXoXoXoXooXoXoXXoooX.&sNNNNNNNNNNNNNNNNNNNNNNNNNNNNNNNNNNNNNNNNNNNNNNNNNNNNNNNNc-.O.oOooOooOoOOoOOooOOOOOOoOoOO",
"oXoXXXoXXoXXoXXooXoXoXoXXXXoXoXooXXooo $yMNNNNNNNNNNNNNNNNNNNNNNNNNNNNNNNNNNNNNNNNNNNNNNNNNNNNNNc-OoOooOoOOOOOoOOooOOOoOOoOOOOOO",
"XXXXoXXXXXXoXXoXXoXoXoXooXoXoXoXooXoXXo.+8cNNNNNNNNNNNNNNNNNNNNNNNNNNNNNNNNNNNNNNNNNNNNNNNNNNNNNc-.OoOoOOoOOoOOoOOOOOoOOOOOooOoO",
"XooXXXoXoXXXXoXooXoXoXoXXoXoXoXoXooooooX.o>fMNNNNNNNNNNNNNNNNNNNNNNNNNNNNNNNNNNNNNNNNNNNNNNNNNNNc-O.ooOooOooOooOooOoOOoOOoOOOOOO",
"oXoXXXXoXXoXoXXoXooXoXXooXoXoXooooXXoooXoX #8xNNNNNNNNNNNNNNNNNNNNNNNNNNNNNNNNNNNNNNNNNNNNNNNNNNc-.oOooOOoOOoOOoOoOOOooOOOoOOoOO",
"XXXXXoXXXoXoXoXXoXXoXooXXoXoXoXoXoooXXooooo.o*wcNNNNNNNNNNNNNNNNNNNNNNNNNNNNNNNNNNNNNNNNNNNNNNNNc-OOoOoOoOOoOoOOOOoOOOOOoOOOOOOO",
"XoXoXXoXXXoXoXXoXXoXoXoXoXoXoXoooXoXooXoXXoooXo;qkMNNNNNNNNNNNNNNNNNNNNNNNNNNNNNNNNNNNNNNNNNNNNNc-.OoOOoOooOOoOooOOOOOOOOOoOOOOO",
"XXXXooXXXoXoXooXXoXoXoXoXoXXoooXoXoooXoooooXooo .$1uxmNNNNNNNNNNNNNNNNNNNNNNNNNNNNNNNNNNNNNNNNNNc-.OooOOOoOOoOoOOOoOOoOooOOOOOOO",
"XXoXXoXXXoXoXoXoXoXooXoXoXXoooXoXoooXooXXooooXoo...o&<qpkbnMMNMNNMMNMNMMNMMNMNMNNMMNMNMNMNMMNMMNx-OOoOooOOoOoOOOOoOoOOOOOOOOOOOO",
"oXoXXoXooXoXoXoXoXoXXoXoXooXXoXoooXoXooXooXXoooo.ooo. .o$*><5677777777787777777777777777778778774$O.OoOOoOOoOooOOOOOOOoOOOOOOOOO",
"oXXXXXXoXoXoXoXoXooXoXoXoooooXoooXoXoooooXooooXooooooooo....................................O....OO.OOOOoOOoOOOoOoOOoOOoOoOOOoOO",
"XXoXXoXXoXoXoXoXoXXoXoXXoXXooooXoXoooXXoooooXoooooXooXoooo..oooooooooooooo.o.O.OoooO.O.OoOOo.OOO..OOoOo.OOoOoOOOOOOoOOOOOOOOOOOO",
"XXoXXoXoXooXoXoXXoXoXoXooooXXXoooXoooX oXooooXooooooXoXooooooooooooooo.oooooOoOoooooO.OoOooOoOooOOOoOoOOoOOoOOOOOOOOOOoOOOO.OOOO",
"XoXXoXoXoXXoXoXooXoXXoooXXoooooXoXoXooooooXooooooXooooooooooooooooOooooooOoOoooooOoo.OoOoOOoooOOOoOoOOoOOooOOOoOOoOoOoOOOOOOOOOO",
"XXXXXoXoXoXXoXoXoXXoXooXooXooooXooXoXoXoXooooooooooooXoooooooooooooooooooooooooooOoOOooOooooOoOoOoOOoOooOOOOoOOOOOOOOOOOOOOOOOOO",
"oXoooXoXoXXoXoXoXoXXoXoooXooXXooXoooXooooooooXooooXoooooooooooooooooooooooOoOoOooooOooOoOoOOoOoOoOOoOoOOoOoOOOoOoOoOOOOOOOOOOOOO",
"XXoXXoXoXoXoXoXXoXoXXoooXooXoooXoXooooooXoooooooooXooooooooooOo.oooooooOoooooo.OoOooOooOooOooOoOOooOoOOooOoOOOOOOOoOoOOOOOOOOoOO",
"ooXoXXoXoXoXoXooXoooooXoXooXoXoooXoXXoooooXoooXoooooooooooooooooooooooooOooOOooooOoOOooOOooOOOOooOOoOOoOOOOOOOOOOOOOOOOOOOOOOOOO",
"XooXoXXoXXXoXooXXoXooXoXooooXoXoooXoooooXooooXooXoooooooooooooooOooooOOoooOooooOoooooOooooOoOoOOOoOOoOoOOOoOOOOOoOOOOOOOOOOOOOOO",
"oXXoXooXXooXoXXoooXooXoooXXoooXoXoooooXooooooooXoooooooooooooooooooooooooooooOooOoOOOooOOOoOoOooOOoOoOOOoOOOOoOOOOOOOOOOOOOOOOOO",
"XoXoXoXooXoXoXXXXooXooXooXXoooXoXoo oooooooooooooXoooOoooooooooooooooOOooOoOOoOoooOoOooOoOOoOooOoOOoOOOOOOoOOOOOOOOOOOOOOOOOOOOO",
"oXoXoXoXXoXoXoooXooXoXooooooXoXooooooXoooooooXooooooooooOooooooooooOoooooooooooOOooOoOoooOOooOOOOooOoOoOOOOOOOOOOOOOoOOOOOOOOOOO",
"BXXoXooXoXoXoXXoooooooXXXooXoXooXoooooooXooXoooo.ooooooooooooooooOoooooooooooOOooOOooOoOOoOOOOOooOOOOOOoOOoOOOOOOOOOOOOOOOOOOOOB",
"BoXXoXXoXoXoXooXoXXoXoooXooXoooXooooXoXoooooooXoooooooooooooOoooooooOooOoOoOooOooOooOooOoOOoO.oOOoOOoOOOOoOOOOOOOOOOOOOOOOOOOOOB",
"BooXoXXoXoXoXoooXooooooXooXoooooooooooooooXoooooooooooooooooooooOoO.oOoOoooOooOoOoOOoOoOOooOoOOooOOOOOOOOOOOOOOOOOOOOOOOOOOOOOOB",
"BBXoXooXoXoXooXoooXXXXoooXooXooXooXooooooooooooooooooooooooooooooooooooooOOooOOoooooOoOooOOoOOoOOOoOOoOoOOOOOOOOOOOOOOOOOOOOOOBB",
"BBBXXoXoXoXoXXoooXooooXoooXXoXooXoooXooXXooooooooooooooooooOooooooOoooooooOoOooOoOOoooOOOoOOoOoOoOOOOOOOOOOOOOOOOOOOOOOOOOOOOBBB",
"BBBooXoXXooXoooXooXooXooXooooooooooooooooo.ooooooooooooooooooOoOOooooOoOOooOooOoOooOOOoOOOoOoOOOOOoOoOOoOOOOOOOOOOOOOOOOOOOOOBBB",
"BBBBXoXoXooooooXXXooooXXoXXooooooooXoooooXoooooooOooooooooooOooOoOooOooooOOoOOoOoOOoOooOoOOoOoOoOOOOOoOOOOOOOOOOOOOOOOOOOOOOBBBB",
"BBBBBBoXoXXoXXoooooXXooooooooXoooXooXooXooooooooooooooooooooooooooooooOoOooOoooooOoOoOOoOooOoOOOOOoOOOOOOOOOOOOOOOOOOOOOOOBBBBBB",
"BBBBBBBooooXooXooooXXoooXooooooXoooXoooooXooooooooooooooooooooooooOoOooooooooOOoOoOOOOOOOoOOOOOOoOOooOoOOOOOOOOOOOOOOOOOOBBBBBBB",
"BBBBBBBBBBoooXooXXooooXXoooXooooooooooooooooooooooooooooooOooOOooOooooOOoOOoOooOoOooOooOoOOoOoOoOOOOOOOOOOOOOOOOOOOOOOBBBBBBBBBB"
};
