/* XPM */
static char *dtool_logo[] = {
/* columns rows colors chars-per-pixel */
"128 128 73 1 ",
"  c #8B2F9A",
". c #932F9A",
"X c #9B2F9A",
"o c #8C319B",
"O c #8F399F",
"+ c #93319B",
"@ c #9C319B",
"# c #91399F",
"$ c #A3319B",
"% c #AB319B",
"& c #B0319B",
"* c #933CA0",
"= c #9543A4",
"- c #9946A5",
"; c #9949A7",
": c #9C4EA9",
"> c #9E53AB",
", c #A845A5",
"< c #A154AC",
"1 c #A559AE",
"2 c #AD59AE",
"3 c #B159AE",
"4 c #A45DB0",
"5 c #AC5DB1",
"6 c #A661B2",
"7 c #AB62B3",
"8 c #AB68B6",
"9 c #AE6DB8",
"0 c #B065B4",
"q c #B26AB6",
"w c #B16EB9",
"e c #AF70BA",
"r c #B274BC",
"t c #B479BE",
"y c #BD7BBF",
"u c #C17BBF",
"i c #B67EC0",
"p c #BB7DC0",
"a c #B780C1",
"s c #BB83C3",
"d c #BD89C6",
"f c #BF8DC8",
"g c #C086C4",
"h c #C28BC7",
"j c #C08EC8",
"k c #C494CB",
"l c #C997CD",
"z c #C79ACE",
"x c #C99BCE",
"c c #C99FD0",
"v c #CDA4D3",
"b c #CEA8D5",
"n c #D1ABD6",
"m c #D2AED8",
"M c #D4B3DA",
"N c #D8B7DC",
"B c #D7B9DD",
"V c #D9BBDE",
"C c #DFC6E3",
"Z c #E2C6E3",
"A c #E3CAE5",
"S c #E5CFE8",
"D c #E6D2E9",
"F c #E9D5EA",
"G c #ECDCEE",
"H c #EDDFF0",
"J c #EFE1F1",
"K c #F1E5F2",
"L c #F5ECF6",
"P c #F7F1F8",
"I c #F9F4FA",
"U c #FFFFFF",
"Y c None",
/* pixels */
"YYYYYYYYYooooooooooooooooooooooooooooooooooooooooooooooooooooooooooooooooooooooooooooooooooooooooooooooooooooooooooooo+YYYYYYYYY",
"YYYYYYooooooooooooooooooooooooooooooooooooooooooooooooooooooooooooooooooooooooooooooooooooooooooooooooooooooooooooooooooo+YYYYYY",
"YYYYYoooooooooooooooooooo  oooooooooooooooooooooooooooooooooooooooooooooooooooooooooooooooooooooooooooooooooooOoooooo+Oooo+YYYYY",
"YYYYooooo oooooooooooooooo  oooooooooooooooooooooooooooooooooooooooooooooooooooooooooooooooooooooooooooooooooooooOoooooo+oo+YYYY",
"YYYooooooooooooooooooooooooooooooooooooooooooooooooooooooooooooooooooooooooooooooooooooooooooooooooooooooooooooooooooooooo+ooYYY",
"YYooooooooooooooooooooooooooooooooooooooooooooooooooooooooooooooooooooooooooooooooooooooooooooooooooooooooooooooooooOooo++o++oYY",
"Yo oooooooooooooooooooooooooooooooooooooooooooooooooooooooooooooooooooooooooooooooooooooooooooooooooooooooooooooooOoooooo++oo++Y",
"YoooooooooooooooooooooooooooooooooooooooooooooooooooooooooooooooooooooooooooooooooooooooooooooooooooooooooooOooooooooooO+oo+oo+Y",
"Yoooooooooooooo ooooooooooooooooooooooooooooooooooooooooooooooooooooooooooooooooooooooooooooooooooooooooooooooooooo++oo+o+oo+++Y",
"ooooooooooooooo oooooooooooooooooooooooooooooooooooooooooooooooooooooooooooooooooooooooooooooooooooooOooOoooooOo++oooo+ooo+o+o+o",
"oooooooooooooooooooooooooo ooooooooooooooooooooooooooooooooooooooooooooooooooooooooooooooooooooooooooooooooooooOoo+oo+o++o++o++o",
"ooooooooo   oooo ooooooooo oooooooooooooooooooooooooooooooooooooooooooOO     o  oooOooooooooooooooooooooooooooooo+oo+o+oo+o+++o+",
"oooooooooooooooo oooooooooooooooooooooooooooooooooooooooooooooooooooooO;>>>>O;>;>>>>>>>>=>>;>>>>OOoooooooooooooooo+o+o++ooo+oo+o",
"oooooooooooooooo ooooooo oooooooooooooooooooooooooooooooooooooooooooooOmVVVVmBVVVVVVVVVVBBVVVVVVB>oooooooooOoooo+oo+o+oo+++o++++",
"oooo ooooooooooooooooooo  oo ooooooooooooooooooooooooooooooooooooooooo;VCCCCCCCCCCCCCCCCCCCCCDCCV6Ooooooooooooooo+o++o+o+o+++++o",
"oooo ooooooooooooooooooooooooooooooooooooooooooooooooooooooooooooooooO;VCCCCCCCCCCCCCCCCCCCCCCCCV>oooooooooooOoooo+oo+o+o+o+oo++",
"ooooooooooooooooooooooooooooooooooooooooooooooooooooooooooooooooooooooOBCCCCCCCCCCCCCCCCCCCCCCCCC< oooooooo+o++o+o+oo++o+++o+o++",
"oooooooooooooooooooooooooooooooooooooooooooooooooooooooooooooooooooooo=BCCCCCCCCCCCCCCCCCCCCCCCCC1 ooo+oo+ooooooo+o+o+o++oo+++o+",
"ooooooooooooooooooooooooooooooooooooooooooooooooo oooooooooooooooooooo;BCCCCCCCCCCCCCCCCCCCCCCCCV< +o++o+o+o+oo+oo+oo+o+oo++++++",
"oooooooooooooooooooooooooooooooooooooooooooooooo  o  ooooooooooooooooO;BCCCCCCCCCCCCCCCCCCCCCCCCC1 ooooo+ooo+o+o++o++o+++++oo+o+",
"oooooooooooooooooooooooooooooooooooooooooooooooooooooooooooooooooooooo=BCCCCCCCCCCCCCCCCCCCCCCCCC<ooo+ooooo+o+o+o+o+o++o+o+o+o++",
"oooooooooooooooooooo ooooooooooooooooooooooooooooooooooooooooooooooooo=BCCCCCCCCCCCCCCCCCCCCCCCCC< oooo+o+ooo++o+o+++oo+o+++++++",
"oooooooooooooooooooo oooooooooooooo ooooooooooooooooooooooo   oooooooo;BCCCCCCCCCCCCCCCCCCCCCCCCC1 oo+ooo++o+o+oo++o+o+++++++o++",
"oooooooooooooooooooo  ooooooooooooo   ooooooooooooooooooooo  ooooooooO;BCCCCCCCCCCCCCCCCCCCCCCCCC1 ooo++ooo+o+oo+oo+o++oo+o+++++",
"oooooooooooooooooooooooooooooooooooooooooooooooooooooooooooooooooooooo=BCCCCCCCCCCCCCCCCCCCCCCCCV1 +ooo+o+oo+oo+o++oo++o++++o+++",
"ooooooooooooooooooooooooooooooooooooooooo oooooooooooooooooooooooooooo=BCCCCCCCCCCCCCCCCCCCCCCCCC< oo+oo+oo+o++o+o+++o++o+++++++",
"oooooooooooooooooooooooooooooooooooooooooooooooooooooooooooooooooooooo;BCCCCCCCCCCCCCCCCCCCCCCCCC1o++o+o+o+o+o+++o+o++++++++++++",
"ooooooooooooooooooooooooooooooooooooooooooooooooooooooooooo ooooooooOO;BCCCCCCCCCCCCCCCCCCCCCCCCV1 oooo+o+o+o+o+o+o++oo+++o+++++",
"oooooooooooooooooooooooooooooooo   ooooooooooooooooooooooooooooooooooo;BCCCCCCCCCCCCCCCCCCCCCCCCC1 +oo+ooo+o+oo+++o+++o+++++++++",
"oooooooooooooooooooooooooooooooooooooooooooooooooooooooooooooooooooooo;BCCCCCCCCCCCCCCCCCCCCCCCCV1 o+oo++oo+o++o+o++o+++++++++++",
"ooooooooooooooooooooooooooooooooooooooooooooooooooooooo o  o    ooooooOBCCCCCCCCCCCCCCCCCCCCCCCCZ1 +oo+oo+o++o++++o++++++++++++@",
"oooooooooooooooooooooooooooooooooooooooooooooooooooooooO;:>>:==Ooooooo=BCCCCCCCCCCCCCCCCCCCCCCCCC1 o++o++o+o++o+oo++o++o++++@+++",
"ooooooooooooooooooooooooooooooooooooooooooooooooo=<icBSGJLLLLJGSMzt>*o=MCCCCCCCCCCCCCCCCCCCCCCCAV1 ++o+oo+oo+o+o+o+++++o++++++++",
"oooooooooooooooooooooooooooooooooooooooooooOoo;enGIUUUUUUUUUUUUUUUUPDbdCCCCCCCCCCSCCCCCCCCCCZZCCC1 oo++o+o++++o+++o++++++++++@@+",
"oooooooooooooooooooooooooooooooooooooooooooOemHLUUUUUUUUUUUUUUUUUUUUUUUILDCCCCCCCCCCCCCCCCCCCCZCV1 +o+o+++++o++++o++++++++++@+++",
"oooooooooooooooo   ooooooooooooooo ooooooOaCPPPLUUUUUUUUUUUUUUUUUUUUUUUUUUPFSCCCCCCCCCCCCCCACZCZC1.o+oo+o+oo+o+o+++++++++++@+++@",
"oooooooooooooooooooooooooooooooooooooooOiSIUPIIIUUUUUUUUUUUUUUUUUUUUUUUUUUUULFCCCCCCCCCCCCCZZCCCC1 oo+o++o++o+++o++++++++@+++++@",
"oooooooooooooooooooooooooooo ooooooooo6VIUUUPIIIUUUUUUUUUUUUUUUUUUUUUUUUUUUUUULDCCCCCACCCACCCZACV1.++oo+o++o++o++++++++++++++@++",
"oooooooooooooooo ooooooooooo ooooo oOfHLUUUUUUUUUUUUUUUUUUUUUUUUUUUUUUUUUUUUUUUUJCCCCCCCZCACCCCAC1.oo++oo++o+++o+o+++++++++@++@+",
"oooooooooooooooooooooooooooo ooooo =VHHLUUUUUUUUUUUUUUUUUUUUUUUUUUUUUUUUUUUUUUUUULDCCCCCCZCCZCCCC1 o+o+++o+++o++++++++++@+++@@+@",
"oooooooooooooooooooo  oooooooooooo9JUUUUUUUUUUUUUUUUUUUUUUUUUUUUUUUUUUUUUUUUUUUUUUIDCCCCCCZCCCCZV1 .+o++oo+++++o+++++++++++@+@+@",
"ooooooooooooooooooooooooooooooooosLUUUUUUUUUUUUUUUUUUUUUUUUUUUUUUUUUUUUUUUUUUUUUUUUIGCCCZCCACZZCZ1 ++oo+++o+o++++++++++@@+++@+++",
"oooooooooooooooooooooooooooooooofIUUUUUUUUUUUUUUUUUUUUUUUUUUUUUUUUUUUUUUUUUUUUUUUUUUUGACCZCCZZCCC1 +o++oo+++++++++++@++++++@+@@@",
"ooooooooooooooooooooooooooooooOfIUUUUUUUUUUUUUUUUUUUUUUUUUUUUUUUUUUUUUUUUUUUUUUUUUUUUUGCCZCACCACV1 +++o+++o++o+++++++++@+@@+@+@+",
"oooooooooooooooooooooooooooooodPUUUUUUUUUUUUUUUUUUUUUUUUUUUUUUUUUUUUUUUUUUUUUUUUUUUUUUIGCCZCCCCZZ1 +o+o+++o++++++@++++@+@++@+@+@",
"ooooooooooooooooooooooooooooorPUUUUUUUUUUUUUUUUUUUUUUUUUUUUUUUUUUUUUUUUUUUUUUUUUUUUUUUUUFCCZCACCC1.oo++++o+++++++++++@++++@+@++@",
"oooooooooooooooooooooooo  o 4KUUUUUUUUUUUUUUUUUUUUUUUUUUUUUUUUUUUUUUUUUUUUUUUUUUUUUUUUUUIDCZZCCZV1..+o+++o+++++++++@+++@@+@++@@+",
"oooooooooooooooooooooooooo =CUUUUUUUUUUUUUUUUUUUUUUUUUUUUUUUUUUUUUUUUUUUUUUUUUUUUUUUUUUUULACCZCAZ1 .+++o+++++++++++++@+++@+@@+@@",
"ooooooooooooooooooooooooo ovUUUUUUUUUUUUUUUUUUUUUUUUUUUUUUUUUUUUUUUUUUUUUUUUUUUUUUUUUUUUUUJZCZCCC1 +o+o+++++++++@+X+++@++@+@@@+@",
"ooooooooooooooooooooooooo 9PUUUUUUUUUUUUUUUUUUUUUUUUUUUUUUUUUUUUUUUUUUUUUUUUUUUUUUUUUUUUUUUDCZCZV1.o++++++++++++++++@++@+@@++@@@",
"ooooooooooooooooooooooooo=CUUUUUUUUUUUUUUUUUUUUUUUUUUUUUUUUUUUUUUUUUUUUUUUUUUUUUUUUUUUUUUUULACZCZ1.++o++++++@+++@+@++@@+++@@@@+@",
"oooooooooooooooooooooooo fUUUUUUUUUUUUUUUUUUUUUUUUUUUUUUUUUUUUUUUUUUUUUUUUUUUUUUUUUUUUUUUUUUGCCZC1 +++o++++++++@+++@+@++@@+@@+@@",
"ooooooooooooooooooooooo ;JUUUUUUUUUUUUUUUUUUUUUUUUUUUUUUUUUUUUUUUUUUUUUUUUUUUUUUUUUUUUUUUUUUIAZCV1..++++++++++@+++@++@@@+@@++@@+",
"ooooooooooooooooooooooo fUUUUUUUUUUUUUUUUUUUUUUUUUUUUUUUUUUUUUUUUUUUUUUUUUUUUUUUUUUUUUUUUUUUUGCCZ1 ++++++++++++++@++@++@@+@@@@@@",
"oooooooooooooooooooooooOGUUUUUUUUUUUUUUUUUUUUUUUUUUUUUUUUUUUUUUUUUUUUUUUUUUUUUUUUUUUUUUUUUUUUPACZ1.+++++++++@+@++@+@++@+@+@@@+@@",
"oooooooooooooooooooooooeUUUUUUUUUUUUUUUUUUUUUUUUUUUUUUUUUUUUUUUUUUUUUUUUUUUUUUUUUUUUUUUUUUUUUUGCV1 +++++++++++++@+@+@@+@@@+@@@@@",
"ooooooooooooooooooooooOCPPIIUUUUUUUUUUUUUUUUUUUUUUUUUUUUUUUUUUUUUUUUUUUUUUUUUUUUUUUUUUUUUUUUUULZZ1.++++++++++@+@@+@+@+@@+@@@+@@@",
"oooooooooooooooooooooo4LPPIIUUUUUUUUUUUUUUUUUUUUUUUUUUUUUUUIUUUUUUUUUUUUUUUUUUUUUUUUUUUUUUUUUUUDC1.+++++++@++++@+@+@@@++@@@@@@@@",
"oooooooooooooooooooooozLUUIIUUUUUUUUUUUUUUUUUUUUUUUUUULCfieeivSPUUUUUUUUUUUUUUUUUUUUUUUUUUUUUUUGC1..+++++++@@@++@+@++@@@+@@+@@@@",
"oooooooooooooooooooooOCLUUUUUUUUUUUUUUUUUUUUUUUUUUUULb4Oo  o  O6mPUUUUUUUUUUUUUUUUUUUUUUUUUUUUULV2..++++@+++++@++@+@+@+@@@@@@@@@",
"ooooooooooooooooooooo=HKUUUUUUUUUUUUUUUUUUUUUUUUUUUS6o  ooooooooO8FUUUUUUUUUUUUUUUUUUUUUUUUUUUUIA1.+++++@++++@++@+@@@@@@@@@@@@@@",
"ooooooooooooooooooooOeHHUUUUUUUUUUUUUUUUUUUUUUUUUUV= ooooooooooo  :ZUUUUUUUUUUUUUUUUUUUUUUUUUUUUD1.++++@++@+++@@+@@++@+@@@@@@@@@",
"ooooooooooooooooooooocCHUUUUUUUUUUUUUUUUUUUUUUUUUC=ooooooooooooo+o :DUUUUUUUUUUUUUUUUUUUUUUUUUUUG2.+++++@+++@++@+@@++@@+@@@@@@@@",
"ooooooooooooooooooooOBDHUUUUUUUUUUUUUUUUUUUUUUUUJ<ooooooooooooOoooo 7LUUUUUUUUUUUUUUUUUUUUUUUUUUK1.++++@++@@+@+@@+@@@@@@@@@@@@@@",
"ooooooooooooooooooo =GUUUUUUUUUUUUUUUUUUUUUUUUUUf ooooooooooooo+o+oooxUUUUUUUUUUUUUUUUUUUUUUUUUUL5.+++@+@+@++@@+@+@@@@@@@@@$@@$@",
"ooooooooo ooooooooo ;KUUUUUUUUUUUUUUUUUUUUUUUUUG= oooooooooooooooo+o >KUUUUUUUUUUUUUUUUUUUUUUUUUP5.@++@++++@+@+@@@+@@+@@+@@@@@@@",
"ooooooooooooooooooo 4PUUUUUUUUUUUUUUUUUUUUUUUUUvoooooooooooo+ooo+oooo+MUUUUUUUUUUUUUUUUUUUUUUUUUI7+++@+++@@+@+@+@@@@@@@@@@@@@@@$",
"ooooooooooooooooooo 9IUUUUUUUUUUUUUUUUUUUUUUUUUr ooooooooo+oooo+ooo+. sUUUUUUUUUUUUUUUUUUUUUUUUUI0.++++@+@+@+@@@++@@@@@@@@@@@@$@",
"ooo ooooooo ooooooo eUUUUUUUUUUUUUUUUUUUUUUUUUL> ooo+oooooooo+ooo++oo 7IUUUUUUUUUUUUUUUUUUUUUUUUU0.++@+++@++@++@@@@@@@@@@@$@@$@@",
"oo  ooooooo oooooo  rUUUUUUUUUUUUUUUUUUUUUUUUUJ;ooooooooo++oooooooooo.<LUUUUUUUUUUUUUUUUUUUUUUUUIq.@@++@@+@@@@@@@@+@@@@@@@@@$@@$",
"oooooooooo ooo oooo rUUUUUUUUUUUUUUUUUUUUUUUUUJ= oooooooo+oo+oo++o++o <LUUUUUUUUUUUUUUUUUUUUUUUUUq.+++@++@+@+@+@+@@@@@@@@$@@$@@$",
"oooooooooooooo ooo  eUUUUUUUUUUUUUUUUUUUUUUUUUL; ooooooooooooooooooo+ 1PUUUUUUUUUUUUUUUUUUUUUUUUUq.+@@+@@+@@+@@@@@@@@@@@@@$@@@$@",
"ooooooooooooooooooo 8IIIUUUUUUUUUUUUUUUUUUUUUUI6 ooooooooooooo+o+ooo+ wUUUUUUUUUUUUUUUUUUUUUUUUUI0.@@+@+@@+@@@@@@@@@@@@$@@@@$@$@",
"ooooooooooooooooooo 6IUIUUUUUUUUUUUUUUUUUUUUUUUs ooooooo+oo+o+oooo+++ kUUUUUUUUUUUUUUUUUUUUUUUUUI0.++@+@+@@@+@@+@@@@@@@@@$$@@$@$",
"ooooo ooooooooooo   >LUUUUUUUUUUUUUUUUUUUUUUUUUCoooooooooooooo++o++oo*DUUUUUUUUUUUUUUUUUUUUUUUUUI7.@@+@++@+@@@@@@@@@@@@@@@$@$@$@",
"oooooooooooooooo  o =JUUUUUUUUUUUUUUUUUUUUUUUUUP6ooooo+ooo+o+ooo+oo. rIUUUUUUUUUUUUUUUUUUUUUUUUUP2X++@+@@@+@@+@@@@@@@$@@$@@$@@$$",
"ooooooooooooooooooooOSUUUUUUUUUUUUUUUUUUUUUUUUUUN#oooooooo++ooo+oo+ *AUUUUUUUUUUUUUUUUUUUUUUUUUUK2.@+@+@@@@@@@@@@@@@@@@$$@@$$$@$",
"ooooooooooooooooooooomUUUUUUUUUUUUUUUUUUUUUUUUUUUdooo++oo+oo++ooo+o+kUUUUUUUUUUUUUUUUUUUUUUUUUUUK2X+@+@@@++@+@@@@@@@@$$@@@$@$@@$",
"oooooooooooooooooooo dUUUUUUUUUUUUUUUUUUUUUUUUUUULroo+ooooo+oo+o+o+sIUUUUUUUUUUUUUUUUUUUUUUUUUUUF1X@@@++@@@@@@@@@@@@@@@$$@@$@$$$",
"ooooo   ooo   oooooo 6PUUUUUUUUUUUUUUUUUUUUUUUUUUULs+oooo+ooo+o+ #hPUUUUUUUUUUUUUUUUUUUUUUUUUUUUA2X++@@@@+@@@@@@@@@$@$@@@$$@$$@$",
"ooooooooooooo  ooooooOHPPIIIUUUUUUUUUUUUUUUUUUUUUUUIM<o  .o++  +1NUUUUUUUUUUUUUUUUUUUUUUUUUUUUUIZ2.@@@@@@@@@@@@@@@@@@$@$@$$@$@$$",
"oooooooooooo  oooooooomPIIUUUUUUUUUUUUUUUUUUUUUUUUUUULnr;*#+*:rMLUUUUUUUUUUUUUUUUUUUUUUUUUUUUUUKZ1X+++@+@@@@@@@@@$@$@$$@$@@$$$$$",
"ooooooooooooooooooooooaPUUUUUUUUUUUUUUUUUUUUUUUUUUUUUUUIKDCCDKUUUUUUUUUUUUUUUUUUUUUUUUUUUUUUUUUFC2X@@@@@@@@@@@@@@@@$@@@$@@$$@$@$",
"oooooooooooooooooooooo=HUUUUUUUUUUUUUUUUUUUUUUUUUUUUUUUUUUUUUUUUUUUUUUUUUUUUUUUUUUUUUUUUUUUUUUIAV2.@+@@@@@@@@@@$@$@@$@$@$$@$$$$$",
"ooo  oooooooooooooooooocUUUUUUUUUUUUUUUUUUUUUUUUUUUUUUUUUUUUUUUUUUUUUUUUUUUUUUUUUUUUUUUUUUUUUUJZZ2XX@@+@@@@@@@$@$@@$@$@$@$$$$$$$",
"oo oooooooooooooooooooo4LUUUUUUUUUUUUUUUUUUUUUUUUUUUUUUUUUUUUUUUUUUUUUUUUUUUUUUUUUUUUUUUUUUUUPFZZ3.X@@@@@@@@@@@@$@@$$@$@$@$@$$$$",
"ooooooooooooooooooooooooBUUUUUUUUUUUUUUUUUUUUUUUUUUUUUUUUUUUUUUUUUUUUUUUUUUUUUUUUUUUUUUUUUUUUKZAC2XX@+@@@@@@@@@$@@$@@$$$$$$$$$$$",
"ooooooooooooooooooooooo 8PUUUUUUUUUUUUUUUUUUUUUUUUUUUUUUUUUUUUUUUUUUUUUUUUUUUUUUUUUUUUUUUUUUISZZC2.X@@@@@@@@$@@@@$@$$@@$$@$$$$$$",
"oooooooooooooooo   ooooooBUUUUUUUUUUUUUUUUUUUUUUUUUUUUUUUUUUUUUUUUUUUUUUUUUUUUUUUUUUUUUUUUUUKZZZV3XXX@@@@@$@@$$@@@$@@$$$$$$$$$$$",
"oooooooooooooooooo oooooo4LUUUUUUUUUUUUUUUUUUUUUUUUUUUUUUUUUUUUUUUUUUUUUUUUUUUUUUUUUUUUUUUUIFAZZZ3XX@@@@@@@@@@@@$$@$$$@@$$$$$$$%",
"oooooooooooooooooooooooooozUUUUUUUUUUUUUUUUUUUUUUUUUUUUUUUUUUUUUUUUUUUUUUUUUUUUUUUUUUUUUUUUJZZZZV3XX@@@@@@@@$@@$@$@$@$$$@$$$$$$$",
"oooooooooooooooooooooooooo=DUUUUUUUUUUUUUUUUUUUUUUUUUUUUUUUUUUUUUUUUUUUUUUUUUUUUUUUUUUUUUULAZZZAZ3XX@@@@@$@@@$$@@$$@$$$@$$$$$$$%",
"oooooooooooooooooooooooooo 8LUUUUUUUUUUUUUUUUUUUUUUUUUUUUUUUUUUUUUUUUUUUUUUUUUUUUUUUUUUUUUFZZZZZZ2X@@@@$@@@$@$$@$@$$$$$$$$$$%%$$",
"ooooooooooooooooooooooo oo okIUUUUUUUUUUUUUUUUUUUUUUUUUUUUUUUUUUUUUUUUUUUUUUUUUUUUUUUUUUUGZZZZZZC2X@@@@@@$$@$@@$@$@$$$$$$$$%$$$%",
"ooooooooooooooooooooooooooo OnUUUUUUUUUUUUUUUUUUUUUUUUUUUUUUUUUUUUUUUUUUUUUUUUUUUUUUUUUUKZZZZZZZC3X$@@@$@@$@@$@$@$$$$$$$$$$$$$%$",
"oooooooooooooooooooooooooooo =CUUUUUUUUUUUUUUUUUUUUUUUUUUUUUUUUUUUUUUUUUUUUUUUUUUUUUUUULZZZZZZZAV3X@@@@@$@@@$@$@$$@$$$$$$$$$%%$%",
"ooooooooooooooooooooooooooooo OVUUUUUUUUUUUUUUUUUUUUUUUUUUUUUUUUUUUUUUUUUUUUUUUUUUUUUILSZAZZZZZZZ3XXXX$$@@$@$@$@$$@$$$$$%$$%$%$%",
"ooooooooooooooooooooooooooooooO;AUUUUUUUUUUUUUUUUUUUUUUUUUUUUUUUUUUUUUUUUUUUUUUUUUUUULAZZZZZZZZZV3$XXX$@$@@$$$@$$$$$$$$$$$$$%$$%",
"oooooooooooooooooooooooooooooooo:ZUUUUUUUUUUUUUUUUUUUUUUUUUUUUUUUUUUUUUUUUUUUUUUUUUULAZZZZZZAZZZZ3XX@$@@@$$@@$$$@$$$$$$$%%$%$%%$",
"oooooooooooooooooooooooooooooooo =MUUUUUUUUUUUUUUUUUUUUUUUUUUUUUUUUUUUUUUUUUUUUUUUUKAZZZZZZZZZAZZ3X$@@@$@$@$$@$@$$$$$$$%$$%$%$%%",
"ooooooooooooooooooooooooooooooooo #kPUUUUUUUUUUUUUUUUUUUUUUUUUUUUUUUUUUUUUUUUUUUUIJZZZZZZZZZZZZZZ3X@@@$@@$@$$@$@$$$$$$$$$$%$$$%%",
"oooooooooooooooooooooooooooooooooo+oeFUUUUUUUUUUUUUUUUUUUUUUUUUUUUUUUUUUUUUUUUUUIFZZZZZZZZZZZZZZZ3X@$@@$$@$@$$$$$$$$%$$%%%$%%%%%",
"oooooooooooooooooooooooooooooooooooo ;bIUUUUUUUUUUUUUUUUUUUUUUUUUUUUUUUUUUUUUUIKAZZZZZZZZZAZZAZZZ3X$@@$@$$$$@$$$$$$$$%$$$%$%%$$%",
"oooooooooooooooooooooooooooooooo+ooo+o+0CUUUUUUUUUUUUUUUUUUUUUUUUUUUUUUUUUUUUPFZZAZZAZZZZZZZZZZZV3X@$$@$@$@@$$$$$$$$$$$%%$%$%%%%",
"ooooooooooooooooooooooooooooooooo+o+ooo #yAIUUUUUUUUUUUUUUUUUUUUUUUUUUUUUUUPFAZZZZAZZZZAZZZZZAAZZ3$$$@$$@@$$$$$$$$$$$%%$$%$%%$%%",
"oooooooooooooooooooooooooooooOooooooo+ooo *wNLUUUUUUUUUUUUUUUUUUUUUUUUUUILFZZZZZZZAZZZZZZZZZAAZZZ3XX@$@$$$@$$$$$%$$%$$$%$%%%%%%%",
"oooooooooooooooooooooooooooooooo+o+ooo++o+o +<hZLUUUUUUUUUUUUUUUUUUUUILGSZZZZZZZZZZZZZZZZZZZZZZAZ3$X$@$$$@$$$$$$$$$$%$%$%%%%%%%%",
"oooooooooooooooooooooooooooooooooooo+ooo+o+o+  #<tvAJIIUUUUUUUUUUIIKGSAAZAZAZAAZAAAZAAAAZAAAAZAAZ3X$@$@@$$$$$$$$%$$%$%$%$%%$%%%%",
"oooooooooooooooooooooooooooooooooo+++oooo+o+o+o.. .#-1qphkzzlkjhgsyyyyyyyyyyyyyuyyuyuuuuuuuuuuuuu&X$$$$$@$$$$$$%$$$%%$%$%%%%%%%%",
"ooooooooooooooooooooooooooooooooo+oooo+++o+o+o+o .+ +.. ...........+....X.+.X.X.XXXX&$XXXXXX$XXXXX@$$@@$$$$$$$$$$%%$$%%%%%%%%%%%",
"oooooooooooooooooooooooooooooooOoo+oo++o+oo++++++++++++++o++.++++++@+@@+@++@@++@@+@@XXX$@$@$@$@$$$$@$$$$$$$$$$$$%$$%%$$%$%%%%%%%",
"ooooooooooooooooooooooooOooooooo+ooo+oo+oo+oo+oo+oo+o++o+++++++@@+++@++@+@@+@@@@@@@@@XXX@@@@@@$@$X$$@$@$$$$$$$$%$$%$$%%%%%%%%%%&",
"oooooooooooooooooooooooOooooooooo+oo+oo+oo+++o+++o+o+++++++++++@+++@@+@+@@+@@@@@@@@@@@@@@@@$$@$@$$@$$$$$$$$$$$$%%$%%%%$%%%%%&&%&",
"oooooooooooooooooooooooooooOooooo+o++o+oo++oo++o+.++o++++++++++++@+++@+@@+@@+@@+@@@@@@@$@$@@@$@$@@$$$$$$$$$$$%$$$%%$$%%%%%%%%%&%",
"oo  oooo ooooooooooooooooooooooOooooo+o+o++oo++oo++++++++++@+@+++@@+@+@+++@+@+@@@@@$@@@@$@$@@@@$$@@$$$$$$$$%%$$%$%$%%%%%%%%%&%%&",
"oo oooooooooooo+oooooooooooooooo+o+++o+o++o++o++++o+++++++++++@++++@++@@@@@@@@@@@@@@@@@@@@@$$@$$$$$$@$$$$$$$%$$%%$%%%%%%%%%%%&%&",
"ooooooooooooooooooooooooooOoooOo+o+oo+o+o++o++++o++o++++++@++@++@+@+@+@+@@@@@@@+@@@@@$@@@$$@$@$@@$$$$$$$%$%$$%$$%$%%$%%%&%&%&&%&",
"ooooooooooooooooooooooooooooooooooo++o+o+oo++oo++++++++++++++++@+@+@+@@++@+@@@@@@@@@@@@$@@@$$$@$$$$@$$$$$$%$$%%%%%%%%%%%%%%%%&&&",
"oooooooooooooooooooooOooooooooooo+o+o+o++o++++++o+++++++@++@+@+@@+++@@@@@@+@@@@@@@$@@$@@$@$@@$$$@$$$$$$$$$$%%$%%$%%$%%%%%&%&&&&&",
"Yoooooooo  oooooooooooooooooooOo+o+o+o++o++o+oo++++++++++++++@+++@@@@++@+@@@@@@@@@@@@@$@@$@$$@$@$$$$$$$$%%$$$%$$%%%%%%%%%%&&%%&Y",
"YOoooooooooooooooo+oooooOoo+oo+oo+o+o++o+oo+o+o+++++++++++@@+@+@+@+@+@+@@@@@@@@@@@@@$@@$@$@$@$@$$$$$$$%$$%$%$%%%%%%%%%%&&&&&&%&Y",
"Yooooooooooooooo+ooooo+oooo+o+o++o+oo+o+o++++++++++++++++++++++@@+@+@@@@@@@@@@@@@@$@$@@$$@$@$$$$$$$$$$%$$%%$$%$%%%%%&%%%&%%&&&&Y",
"YYoooooooooooooooooo+oo+ooOoo++oo+o+++o+++o++++++++++++@+@++@+@+@+@@@++@@+@@@@@@@$@@@@$@@$$$$@$$$$$$$%$$%$%$%$%%%%%%%%%&%%&&&&YY",
"YYYoooooooo+ooo+ooo+ooo+oooo+o+oo++oo++oo+++o+++++++@+++++@@+@+@+@+@@@@@@@@@@@@@@@$@@$@$@$@$$$@$$$$$$$$%$%$%%%%%%%%%%&%&&&&&&YYY",
"YYYYoooooooooooooooo+oooo++oo+o++o++o++++o+++o++++++++@+++@+@+@+@@@+@@+@@@@@@@$@$@@$@$@$$$$@$$$$$$$$$%$$%$%%%%%%%%%%%&%%&&&&YYYY",
"YYYYYooooooooo+o+oo+oo+oooo++oooo++o++oo++o+++++++++++@+@++@++@@@+@@@@@@@@@$@@@@@@$@@@$$@$$$$$$$%$$%%$$%$%%$%%%%%%%%&%&&&&&YYYYY",
"YYYYYYoooooooo+oo+o+o+o++o+oo++++oo+o++++o+++++++++@@+++@++@@@@+@+@@+@@@@@@@@@$@@$@$$$$@@$$$$$$%$$$$$%%%$%%%%%%%&%&%%&&%&&YYYYYY",
"YYYYYYYYYoooo+ooooooo+ooo+oo+o+o+o++o+o+++++++++@++++++@++@+@++@@@@+@@@@@@@@@@$@@$@@$@@$$$@$$$$$$$$%$$%$%%$%$%%%%%%&&%&YYYYYYYYY"
};
