/* XPM */
static char *dtool_logo[] = {
/* columns rows colors chars-per-pixel */
"128 128 64 1 ",
"  c #8F2997",
". c #8F2C99",
"X c #902997",
"o c #932E99",
"O c #8E319B",
"+ c #94319B",
"@ c #98319B",
"# c #97399F",
"$ c #99399F",
"% c #973CA0",
"& c #9A3DA1",
"* c #9D42A3",
"= c #9E49A7",
"- c #9F4BA8",
"; c #A046A5",
": c #A14AA7",
"> c #A34DA8",
", c #A553AB",
"< c #A856AD",
"1 c #A659AE",
"2 c #A95AAF",
"3 c #AB5DB0",
"4 c #AE63B3",
"5 c #AF69B6",
"6 c #B066B5",
"7 c #B26AB7",
"8 c #B36DB8",
"9 c #B672BB",
"0 c #B875BC",
"q c #B779BE",
"w c #B97ABE",
"e c #BC7EC0",
"r c #BE83C3",
"t c #BF88C5",
"y c #C086C4",
"u c #C38BC6",
"i c #C48EC8",
"p c #C692CA",
"a c #C895CB",
"s c #CA9ACE",
"d c #CD9FD0",
"f c #CEA2D2",
"g c #D1A6D4",
"h c #D3AAD6",
"j c #D5AFD8",
"k c #D6B1D9",
"l c #D9B6DB",
"z c #DBBADE",
"x c #DDBFE0",
"c c #DFC1E1",
"v c #E1C5E3",
"b c #E4CCE6",
"n c #E6CFE8",
"m c #E7D0E8",
"M c #E9D4EA",
"N c #EDDCEE",
"B c #EFDFF0",
"V c #EFE0F0",
"C c #F2E5F2",
"Z c #F4EAF5",
"A c #F7F0F8",
"S c #F9F4FA",
"D c #FEFEFE",
"F c None",
/* pixels */
"FFFFFFFFFFOOOOOOOOOOOOOOOOOOOOOOOOOOOOOOOOOOOOOOOOOOOOOOOO+O+OOOOOO++O++O++OO+O++O++O+++O++O+O+O++++O+++O++++O++O+++o+FFFFFFFFFF",
"FFFFFFFOOOOOOOOOOOOOOOOOOOOOOOOOOOOOOOOOOOOOOOOOOOOOOOOOOOOOOO+O+OOOOOOOOOO++O+OO++O+OO++O+++O+++OO++++++++++++++o+++++++FFFFFFF",
"FFFFFFOOOOOOOOOOOOOOOOOOOOOOOOOOOOOOOOOOOOOOOOOOOOOOOOOOO+OO+O+O+O+OO++O++OOO+.++O++OO+O++O++++O++++++O+++O+++O+++++++++++FFFFFF",
"FFFFOOOOOOOOOOOOOOOOOOOOOOOOOOOOOOOOOOOOOOOOOOOOOOOOOOOOOO+OOOOOOOO++OO+OO+O+O+OO+OO++O+OO+++O++O+O+O+++++++++++++O+++++++++FFFF",
"FFFOOOOOOOOOOOOOOOOOOOOOOOOOOOOOOOOOOOOOOOOOOOOOOOOOOOOO+OOOO+O+O++O+OOOOOO+O+O+O+O++OO+++++O+++O+O++++++O+++++++++++++++++++FFF",
"FFFOOOOOOOOOOOOOOOOOOOOOOOOOOOOOOOOOOOOOOOOOOOOOOOOOOOOOOOO+OOOOOOOO+O+O++OO+O+O+++OO++++OO+++O+++++++O++++++++O+++++++++++++FFF",
"FFOOOOOOOOOOOOOOOOOOOOOOOOOOOOOOOOOOOOOOOOOOOOOOOOO+O+O++OO+O+OO+OO+OO+OO+O++O+O+Oo++++O++++OO+.++++O+++++++O+o+++++++++++++++FF",
"FOOOOOOOOOOOOOOOOOOOOOOOOOOOOOOOOOOOOOOOOOOOOOOOOOOOOOOOOOOOOO+OO++O+OO++O++O+O+O+OO+O+O+OO+++++++++++++++O++++++++++++++++++++F",
"FOOOOOOOOOOOOOOOOOOOOOOOOOOOOOOOOOOOOOOOOOOOOOOOOOO+OOOOOOO+OO+++OO+OOO+O+++O+O+O+OO+++++OO+O+O+O++++++++++O+++++++++++++++@+++F",
"FOOOOOOOOOOOOOOOOOOOOOOOOOOOOOOOOOOOOOOOOOOOOOOO+OOO+O+O+OOO+OOO.O+O++OO+OO++O+O+++++OO++++++++++++++++O+++++++++++++++++++++++F",
"OOOOOOOOOOOOOOOOOOOOOOOOOOOOOOOOOOOOOOOOOOOOOOO++OOOOOOOOOO+O++OO++OO+O++O+O+O+O+OO++++++OO+++++++O+O+++O++o+++++++@++++++++++++",
"OOOOOOOOOOOOOOOOOOOOOOOOOOOOOOOOOOOOOOOOO++OOOOOOOO+O+O+O+OOO+OO+OOO+O+OO+O+O+O+O++++OO+++++O++++++o++++++++++++++++++++++++++++",
"OOOOOOOOOOOOOOOOOOOOOOOOOOOOOOOOOOOOOOOOOOOOOOOOOOO+OOOO+OOO+OO+OO+O+O++O++O++O++O+OO+++OO+++++O+O++O++O++++++++o+++++++o++++++@",
"OOOOOOOOOOOOOOOOOOOOOOOOOOOOOOOOOOOOO+OOOOOOOO+OO+OO+OOO+O+OO++OO++OO+O+++O+O++O+O++++O+++++++++++++++++++++++++++@+++++++++++++",
"OOOOOOOOOOOOOOOOOOOOOOOOOOOOOOOOOOOOOOOOOOOO+O+OOOO+OO++OO++O+OOO+O++O++O++O+O+O+++O+++O+++++O++++O++O++++++++++++++@+++++@++++@",
"OOOOOOOOOOOOOOOOOOOOOOOOOOOOOOOOOOOOOOOOOOO+OOOOO+OOOO.OO+OO+OO+OO+OO+OO+OO+O++++O+++Oo+O++O+++O++++++++++++++++++++++++++++++++",
"OOOOOOOOOOOOOOOOOOOOOOOOOOOOOOOOOOOOOOOOOOO+OOOOOOOO+O+OO++OO+OO+O+O+O+O+O++O+++O+++O+O+++O++++++++O++++++++++++++++++++++++@+@+",
"OOOOOOOOOOOOOOOOOOOOOOOOOOOOOOOOOOO+OOO+OOOO+O+OO+OOOOO++OO+OO++O++OO+O+O+O+O+oOO++O+.+++++++O++.+++++++++++++++++++++++++++++@+",
"OOOOOOOOOOOOOOOOOOOOOOOOOOOOOOOOOOO+OOOOOOO+OOOO+OO+O+OOOOOO+O+O++O+O+++O%+++%,=+.+-3,%o++>>%+&>-#+++++++++++@++++++++++++++@+o+",
"OOOOOOOOOOOOOOOOOOOOOOOOOOOOOOOOOOOOOOOO+OOO+OO+OOOO+O+OO++O+OO++O+O+O+OOfa#rMZb**hZSZc,<lCZ99mZM=o+++++++++++++++++++++@++@+++@",
"OOOOOOOOOOOOOOOOOOOOOOOOOOOOOOOOOOOOOOOOOOO+OOOO+O+O+O++++OO+O+OO++OOO+OOzS5cDDN*tDZjNDjqSDDejDDZ>o++++@+++++++o+++++++++++++++@",
"OOOOOOOOOOOOOOOOOOOOOOOOOOOOOOOOOOOO+OOO+OOOOOO+OOO+OOOOOOO+O+O+++O+++O++lDt4uDN&gDk.tDb<8MDe3rSZ:++++++++++@++++++++++++@+@@+++",
"OOOOOOOOOOOOOOOOOOOOOOOOOOOOOOOOOOOOOOO+O+O++O+OOOO+O++OO++O+O+OO++OO++++lDr 4SB*fDf.qDb##bDe 1SZ>o+++++++++++++@++++@+@@++++@+@",
"OOOOOOOOOOOOOOOOOOOOOOOOOOOOOOOOO+OOOOOOOOOOOOOO+O+OO+OO+OO+O+O++OO++O+OOlDr.5DN*gDfoeDn%#bDe.3SZ-++o++++++@+++++++++o++++@+++++",
"OOOOOOOOOOOOOOOOOOOOOOOOOOOOOOOOOOOOO++OOOOOOOOOO++O++O++O+O+OO+O++OO++++lDr.5DN*gDfoeDb##bDe.2SZ=+++++++++++++++++o++++@+@++++@",
"OOOOOOOOOOOOOOOOOOOOOOOOOOOOOOOOOO+OOOOO+O+O+O+++OOOOOOOO+O+O++O+OO++O+O+lDr 8DN*fDgXwDn%#bDe 3SZ>o+++++++@++++++++++@+@+++++@++",
"OOOOOOOOOOOOOOOOOOOOOOOOOOOOOOOOOO+OOOOOOO+OOOOOOOO+O++O+O+O++O+O++O+++OOlDe.8DN*fDc=sDv#$bDe.3SZ>o++++++++++++++++++@++@o@++@+@",
"OOOOOOOOOOOOOOOOOOOOOOOOOOOOOOOOOOOOO+O++OOOO++OO++O+OO+O+O++O+O+O+++O+++lV,O5SN*5ADZSDio%bDrX2SC>++++++++++++++++@+++@++++@++++",
"OOOOOOOOOOOOOOOOOOOOOOOOOOOOOOOOOOOOOOOOO+OO+O+++OO+OO+OO+OO++O+O++++OO++e4..1lf++8lclr#+#al4.:kh*o+++++++++++++@+@+++++@+o++++@",
"OOOOOOOOOOOOOOOOOOOOOOOOOOOOOOOO+OO+O+O+OOO+OOOOO.+OO+O++O++OO+OO+O+++++O#153+*59-oO1eq4#o+#3ww3$+++++++o@++++++++++@+@+++@@@+++",
"OOOOOOOOOOOOOOOOOOOOOOOOOOOOOOOOOOO+O+OOOOO+O++OO++OO++OO++O+OO+++++.O++OaSDc3mSDp.rZDDSk*#fSDDZp@+++o++++++++++++@+++@+++++++@+",
"OOOOOOOOOOOOOOOOOOOOOOOOOOOOOOOO+OOOOOO+O+OO+OOO+OOO+O++++O+O++O+O+O+++O+jZDb8VSDp*NDjpAS81SSsfDC:+++++++++++++@+@++@++++@+@+@++",
"OOOOOOOOOOOOOOOOOOOOOOOO+OOOOOOOOOOO+OOOO++O++O+O+O+O+++O+O+O+O++++O+OO+o=uDb=,cDp=ZS1+bDe6DB&:ZZ>o@+++++++++++@+@+++@++++++@+@+",
"OOOOOOOOOOOOOOOOOOOO+OOOOOOOO++O+OO+OOO++OOOOOOO+OO++OO++O+O+++++O++++++OoeDb#OzDp:ZS<#bDe7DN&:ZZ>o+++++++o@++++++@++++@+@+@++++",
"OOOOOOOOOOOOOOOOOOOOOOOOOOO+OOOO+OOO+OOOOOO+O++OO++OO+OO+.OO+OO.O+..+OO++orDb#+zDp:ZS1#bDe7DN&:ZZ>++++++++++@+@@@++++@+++++o++@+",
"OOOOOOOOOOOOOOOOOOO+OOOOOOOOO+O+OOO+OO++O++OOOO+O+O++O++O=q9++tf,*94+++.ooeDb#+zDp:ZS1#bDe7DN&>ZZ>++++++++++++++++@+++@++@+@@+@+",
"OOOOOOOOOOOOOOOOOOOOOO+OOOO+OOOOOOOOO+OO+OO++OO+OO.+O4kt.qDm%#bDe1AV=#pr*.eDb%+zDp=ZS<@bDr7DN&:ZZ>o+++++++++@+@+++++@++@+o+@+++@",
"OOOOOOOOOOOOOOOOOOOOOOOOO+OO+OOO+O+O+O+OOO+OO++OO*tf%sDm4jDc#+bDe,AStqAS4 eDb#+zDp=VDi8CD94SZqySZ:+++++++++@+++++@@o++++@@+++@@+",
"OOOOOOOOOOOOOOOOOOOOOOOOOOOOO+O+O+OOOO+++O+OOO++.5SN*1VDSDArO#bDr+jDSDDz&.rDb##lDposDDDDb;%zDDDDh$+++++++@@++++@++++@+@@+++++@+@",
"OOOOOOOOOOOOOOOOOO+OOOOOO+O+OOOOOOO+O+OO+OO+OO**.-pr%O,tfa4+O+qp,O%9dde*+.,pq@+9a3X#9sde=oo*essq$++++++++++++@+++@+@++++@+@+++@+",
"OOOOOOOOOOOOOOOOOOO+OO+O+OO+O+OOOO+OO+OOOOOOOO=rfs8OOO,tfp4++1ti,O%9dfq*o=9p9#+1ifp3oo#4afu>o%7ut&+++++++++@+o@@@+@++++++++@+@+@",
"OOOOOOOOOOOOOOOOOOOOOOOOOOOOOOO+O+OOOOOOO+5f%*cDSDDfO3VDSDAq5ADDr+jDDSDz=xDDb#8ZDSDZ8ouSDDDM,dDDC>o+++@+@+++@+++++++@+@+@++@@+@+",
"OOOOOOOOOOOOOOOOOOOOOOOOOOOOO+OO+OO++OOO+*NS49DZ9pDV=sDm4kDc9mZDe-ZStqAS9lNDb$jDc4xDh&MDf7NDysMDZ>+++++++o+@+++@+@@++++@++@++@+@",
"OOOOOOOOOOOOOOOOOOO.+O+OO++OOOO+O++OO+O%#*ND5eDcO1SZ-fDg eDn**bDe1SZ=&ND8#eDb%zDp pDz=ND7olDa$3SZ>o++@+@@@++@++++++++@+++@+@@+@+",
"OOOOOOOOOOOOOOOOO+O+OOOOOOOOO+OOO+OOOO*f-%ND5qDc%1SZ-fDh.eDn##bDe1SZ:&ND8.eDb&zDpXpDz=ND7+lDaX3SC>o++@++++@++++++++@@++@+@+++@o@",
"OOOOOOOOOOOOOOOOOOOO+O+OO+O+O+O++OO+O*cZ-%MD5rDmO1SZ-fDf.qDn##bDw1SZ>&ND8 eDb&zDpXpDz;ND7+lDao3SZ>+++++@@++++@@+@+++++@o@+@@@++@",
"OOOOOOOOOOOOOOOOOOOOOO+O+OOOOOOOOO+OO1SZ-*ND5eDbO3SZ,fDh.qDn##bDe1SZ-&NS8.rDb&zDpXpDz*ND7olDaX2SZ:+@++@++@+++++++@+@@++@+@@+@+@+",
"OOOOOOOOOOOOOOOOO+OO+OOOOOO++O++++O%=1SZ-%ND5qDmO1SZ-hDh eDn%#bDe<SZ>&ND8 eDb&zDpXpDz*ND8+zDao3SZ:o+@++++++@+@@+@o++++@+@++@+@+@",
"OOOOOOOOOOOOOOOOOOOOOO+OOO+OO+OOOOOsr=VDfaSS15SSpjDN=pDBtvDz##bDe-ZDfsSS3.eDb$gDMrMDg$bDzuCDeX2SZ>o@+++++++++++++@+++@+@+@+@o@+@",
"OOOOOOOOOOOOOOOOOOOOOOOOO+O++O+OO+9SrOtADDSfO*kSDDZr.-bSDDN7o#cDe.pZDDSf#.wDb#2MDDSM2o0CDDDz=o2SC>++@+@+@+@++@+@+++@@+@+@+@+@+@+",
"OOOOOOOOOOOOOOOOOOOOOO+OOO+OOO++O+15=OO3ee4OOO%4rq,O+O*5r9=oo+39=o+1ww3#+#:83#o=9y8=+oo>qw6%X@;76$o@+++@+++@@++++++@+@+@+@+@+@+@",
"OOOOOOOOOOOOOOOOOOOOO+OO+OO+O+OO#sk4OO-sxcf,OO3fcxp*O+5kvlr#%wjl4-plf&o4jvzu&o@qkvlw#*rkk<X,gvvs:o+++@++@++@+++@@+@+@+@+@+@+@+@+",
"OOOOOOOOOOOOOOOOOOOO+O+OO+OOOOO.4VDZ4#cDAZDM=,VDZADl+5ADCSDi8DDDegDDZ>3ZDZSDf+eSDCSSwyDDD6*MDZZDv&@o++@@++++@o+++@+@+@+@o@+@+@+@",
"OOOOOOOOOOOOOOOO+O+OOOO+O++O+OO*1-nDi,AS53ZD49DV,eSZ-fDc=sDb8hCDrtlSZ=iDn>uDM*lDh=kDl9jZD64DZ38SZ>o@+@+++@+@++@+@+@+@+@+@+@+@+@+",
"OOOOOOOOOOOOOOOOOOO+OOO+OOOOOOOq5OlDp1SZ=%ND5eDb+1AZ,gDg.wDn&#bDeo2SZ:pDlo6DN=zDpXpDz#*ND67DN&:CZ>+@+++++@+o@++++@+@+@o@+@+@+@+@",
"OOOOOOOOOOOOOOOO+OOO+O+O+O++O+*c5OlDp1SZ-%ND5qDb#1SZ-fDgowDn##bDe.3SZ=pDz+6DN=zDpXpDz+*ND67DN&:ZZ>o++@+@+++@++@@@+@+@+@+@+@+@+@+",
"OOOOOOOOOOOOOOOOOO+O+OO+OOO++O9S5OlDa1SZ-%MD5eDb#1SZ>fDg.wDm##bDe.3SZ:pDzo7DN*zDpXpDz#*ND66DN;:ZZ,+@+++++@+@++@++@+@+@+@+@+@+@+@",
"OOOOOOOOOOOOOOOOOOO+O++OO++OOOlD8OlDp1SZ-*MD5eDb+1SZ,fDgowDm%#bDe.2SZ:pDl+6DN=zDpXpDz+*ND77DM&:ZZ>o++@+@+++++@+@@+@+@+@+@+@+@+@+",
"OOOOOOOOOOOOOOOOOOO+OOOOOOOOO*ND9OxDp1SZ,*VD5qDM%4SZ>fDk.rDn%#cDe.3SZ:pDv+9DN=lDsosDz@*ND66DC;>ZZ>@@+@+@+@++@+@++@+@+@+@+@+@+@+@",
"OOOOOOOOOOOOOOOO++OO+O++++O+O+cDMjADq*VDclDZ,4SSlcDm%tDZjNBu++,4=o2SZ:9DShMDx$sDCgCDso*ND7,ZDlvDB;oo++++++@@+@+@@+@+@+@+@+@+@++@",
"OOOOOOOOOOOOOOOOOO+OO++OO+O+O.1cASZf%.9MSSBrO+iVSSM5+*jZNt=o++ooo+$tv:$sCSSb3X:lZSZl:o&nC6oyNSSNq+@++++@@+@o+@@++@o@+@o@+@+@+o@@",
"OOOOOOOOOOOOOOOOO+O++OOOOO+O+*=-,3-O+===11=O%==-31&#*++-=oo+O+O+++oo&$#+>64&o#&*,23;$@@>6>$o;<3>&@++@++++++@@++@@++@@+@+@+@+@@+@",
"OOOOOOOOOOOOOOOO++OOOO+++O+.3NVcqO.5cVVc4OOrmVVk-%pmNr.++++++++++++++#>>gMb47zMz=ybNio>jNCMy@4lMv;o@+++@+@+@+@@+@+@++@+@+@+@+@@@",
"OOOOOOOOOOOOOOOOOO+OO+OOO++.tVmDA4=VDMNDM*5SSmVDk5SDDp.++++O++++++++++oyDDD9cDDN6ZDDg@lDCnSS8kDDC>o@+@++@+@+@++@+@+@@+@+@+@+@@+@",
"OO+OO+O++O+O+OO++OOOOO+O+OOOf8*NDe4DV-1ZS1iDb#wDN3tmS5.++++++++++++++++<uCD8qsDN<ycDg&NDw$vDa8sSZ>o@o@+@+@+@+@@+@+@++@+@+@+@@@@@",
"+OOOOOOOOOOOO+OOOO++++O+OOOOk4OcDr5SV*=ZS1iDl+5SN=.zl++++++++++++++++++o&ND7X7DN*ogDg*BS7olDaX2SZ>o@@+@+@+@+@++@+@+@@+@+@+@+@+@+",
"OO+OOOOOOO+OO++O+O+OO++O+OO*c4#cDr5DN*=VS3iDz+5DN=+l9+O+++++++++++++@++o&ND7X7DN*ogDg;ND7+zDaX4SZ>o@+@+@+@+@+@@+@+@++@+@+o@@@+@@",
"OOOOO++OO+OO+OO++OOO+OO+O+O*M1%cDr4DN*=ZS3pDz+7SN*+d-+++.+++++++++++++++*ND7X7DN*+gDg&BD7+lDaX2SZ>o@++@+@+@+@o+@+@+@@+@+@@@@@@@+",
"+O+OOOOOOO+OO+OOOO+O+O+O++O=N1OcDr4DN*=ZS3tDl+5DN=+t%o+++++++++++++++@++$vD8X8DN&@gDg;ND7ozDaX2SZ>++@+@++@+@+@+@@+o@@++@@@@@@@@+",
"OOOOO++O+OO+O++O+OO++OO++OO=V8*MDe5SV,1ZS3iDb%wDN*#9#++++++++++++++++++o@zD8o8DN;ogDg&NDe&vDpo2SZ>o@+@+@@+@+@+@++@@++@@+@+@++@@@",
"OO+OOOOO+OO+.OOO+O+OO+O++O+=VZmDA1=NDNNDM*4SSMZDk##9#+++++++++++++++++++@zD8X7DN;ohDg+kDZmDS6X3SZ>o@@+@++@+@o@+@@@+@@@+@+@@@@@+@",
"O+OOO+O+OO+O+O++O+O++O+O++O%hNVcqOO4xNNl4.+ebBNg=o#9#+O+++++++++++++++++#gM3X3nl&ouMuo:hMBbw$o,bx;o@+@+@@+@++@@+++@++@@@+@+@@o@@",
"O+OO++OOO+OO+OOOO+O+O+oOO+++#15,OO%,54=++%,,**,1:++&#++++++++++@+++++++++#&,33>$o@,4:oo&68<@oo;62$@@o@+@+@+@+@+@+@+@@+@+@@+@@@@@",
"OOO+OOO+O++OO++OO++O+OO++OO+pVAk+,cASAk=5mZC3iVAc#>l9o+++++++++++++++++++#aZDSN8*hCSdo6bSDZg&wMZN:o@@+@+@+@+@+@+@+@+@@@@+@@@o@@+",
"OOOOO++OOOOOO+O++O++O++OO+++zSDx+kDNfCDtsSDA5mSDb#sDg++++++++++++++++++@@4SSkvDM6ZDDg@vDnhZDwjSDZ:@@+@+@+@+@+@+@+@@@o@+@@+@@+@@@",
"+O+OOO+O+O+++O+OO+O++O+++O++,fDz%bDt.jDg<9ZS43aDb&lDso++++++++o+++++++X63eDm$3SC34kDg;ND9oxDa2eSZ:@o@+@+@+@+@+@+@++@@@@@@@@+@@@+",
"+OOO+OO+O+OOO++OO+O+O++O++OO.pDz%bDe.fDjo=ZS2 eDn&zDao+++++++o+++++++o:b8eDb$2SZ>XgDg;ND7ozDaX2SC,@@@o+@+@+@+@+@@@@++@@@@@@@@@@+",
"OO++O++O+OO+O+O++O+++OO+O+++.pDx%bDeofDg.>ZS3.eDb&lDa.<=o++++++++++++$kD7eDb@2SZ,ogDg&ND7@zDaX2SZ>o@o@@+@+@+@+@++@@@@@@+@@o@+@@@",
"O++OO+OO+OO++++OO++O+O++++O+.pDz%bDrofDjo-ZS3.eDn&zDpXib<o+o++++@@oo+&ND7eDb$<SZ>ogDg&BD7olDa@2SZ:@@@@+@+@+@o+@@@@+@@+@@+@@+@@+@",
"OOOO+OO+OO+O+OO+O+O+O++OO+++.pDz%bDe fDgo:ZS3 eDb%lDp iDl$*#oooo+@>e&%ND8wDb@<SZ>ohDg&ND7ozDao2SZ:o@@+@+@+@+@@@+@+@@@@+@+@@+@+@@",
"+OO++OO+OO+O+O+OO+OO+O+.+++O.eDz#cDf=cDfo>ZS3 eDb%kDl:kDl*zl9,49>-NS86ZD60DB2eDC:ogDg&NDp,mDuX4SZ>o++@@o+@+@@++@+o@@@@+@+@o@@+@@",
"O++OO++OO++OO++++O+++++O+O++.,Zc+uDDZDA8o-ZS3.eDb$wSDZDSw+fDSZDC2%cDSZDb;>NDZSDj$ohDg+sDSZDC2@2SZ:@@@+@@@+@+@@@@@@@@@+@@+@@@@@+@",
"OOOOOOOO++O+O+O+O++O++O++++OO+it.#wkxj8+o&fg=.4ki++8kvk9@o$rlch3oo:pzzs,oo<sxzu;oXwlwX$yzxg3@o>gd;@++@@++@+@+@+@@@+@@@@+@+@+@@@@",
"++O++O+++O+O+O+O+O++O++++O++++#79=+2q5++=8rq>+++>qy8;+++1wr6&@$<97#$6q<o@,wr9;o@<97$&602$:89:@298$+@+++@@o@+@@@@++@@+@@@@@@@++@@",
"O++OO++O+O+OOO+OO+++O+++O++O++%vD8sADN*-bDDDC8o4BDDDm,+yZDDSl*dSDM2bSDg+wZDDDv:iZDC2zSDz6NDDeiZDC>o@@+@+@+@@o@@@@@+@@@+@+@+@@@@@",
"OOOO+O.+++O+++O++O+O++O+O++O++owS9lZDN*aDNrcDx$zDveNDa*NDguZD9lCDN6MZDg$bDlyCDygCDC6mZDl9CZDegCDZ>@@+@+@+@+@@@@++@@@@+@@@@@@@@@@",
"++O+OO+OO++OO++++++O+O+O+O+++++&c9=9DN*fDg wDm*bDr gDg:ZS3#bDr;qDN::hDg*ND8olDa;7SC<:sDz;>nDe;7SZ:o@@+@+@@@@+@+@@+@@@@@@@+@@@@+@",
"OO+O++O++OO++O+O+O+++++O+++++O+.54 6DN*fDgowDb*bDrXgDg>ZS3@bDrX7DN;XgDg;ND7olDaX2SZ,XpDz@$nDeX2SZ:@@+@+@+@+@@@@@@@@++@o@@@o@@@@@",
"OO+OO++OO+O+OO++O++++O++++O++++o+#o5DB*fDgowDn*bDrXfDg>ZS3#vDyX8DN*ogDg&BD7ozDaX3SZ,oaDz@$bDeX3SC>@@@@o@@@@@+@@+@+@+@o+@@+@@@@@@",
"++O++O+++O+O+++O++O++++O++++++O+++o7DN&gDgowDn*bDeofDg:ZS2@bDyX7DN;ogDg*BD7olDao2SZ>oaDz@$bDeX3SZ>o@o@@@+@+@@@@@@@@@@@@@@@@+@@@@",
"O++OO++O+O+++O+O+O++O+O+O+++++++++o5DN*gDgXwDn*bDr gDg>CS2@bDyX8DN*ogDg;ND7olDao2SZ>opDz@$bDe@4SZ>@@@o@+@@@+++@++@+@@@+@@@@@@@@@",
"+O+O+OO+O+O+++++++OO++++++++O+++O++4SN*aDM7lDv%zDl6mDs=CDs9CD9X7DN;ogDg&MDh8NDuX2SZ>opDz@&bDeX2SZ>o@@@@@@o@@@@@@@@@@@+@@@@@@o@@@",
"OO+OO+OO+O++O+O+++O++O++++O++++O+++%hN*<NDDDZwoqZDDDB2+pSDDDv;o7DN;XgDgoySDDDM,o2SZ>XaDz#$nDeX3SZ>o@@@@+@@@@@@@@+@+@@@+@@@@@@@@@",
"++O++O++++OO++O+O++++++++++++++++++O*q$o>ysu3+o+3usy>+o#7ase;oo:yw$o6u6+@3isy:X@;yy&@2u8+@9u,@&ye&@@+@@@+@+@+@+@@@+@@+@@@@@@@@@@",
"O++OO++OO+++O++++++++++O+++++O+++++++o,si&:raw+$4agp2+&8pi=X:ugg9$@,ya7$6ip>X;yggw&@>ya9$4ip2&0pu&o@@@+@+@+@@@@+@@@@@@@@@o@@@@@@",
"++O++O++O+.++++OO+.+O+++++O++++O+++++o*lZ3MDDz+wSDDDC4uDDS2;nDSDDd,BDDgwDDD7&cDSSDk>mDDl7SDDedDDZ,@+@+@@@@@@@+@@o@+@@@@@@@@@@@@@",
"O++O++O+++++O+O+++++++++++++++O+++++++o&u2lMDz$vDj3bDdubSS29DC7uDC6xNDgwbZD76SZ0eSZ7zMDz8bZDesnSZ:@@@@@@@@+@+@@+@+@@@@@@@@@@@@@@",
"+OO++OO+O+O+O+++O+++++O++++O+++++++++++o$$$pDz&bDeXfDh$>ZS2eDb@<SZ,$gDg$;ND76DN*:ZS4$pDz$&bDe@4SZ>@@X@@@+@@@o@@+@@@@@@@@@@@@@@@@",
"OO+OO+++O+O++O+O++O+O+++++++++++++++++++++oyDz$bDeXfDjo>ZS2eDb$<ZZ>ogDgo&BD68DN&:ZS4XaDz@$bDeX3SZ>@@o@@@@@@+@@+@@+@@@@@@@@@o@@@@",
"++O+++O+++++++++O+++++++O++++O+++++++++++++&id&bDrofDho:ZS2eDb$<SZ,ogDgo&ND76DB&:ZS2opDz@$bDe@2SC>@@@@@@+@@@@@@@@@@@@+@@@@@@@@@@",
"O+O+++O+oO+O++++++O+++O+O++++++++++++++++++o@%$xDeXgDh+>CS2eDb$2SZ,ogDg@;ND77DN&:ZS3oaDz@$bDeX3SZ>o@@o@@+@@@+@+@@@@@@@@@@@@@@@@@",
"+O++O+++++++OO+++++++o+++++++o+++++++o+++++++++,s7ogDho>ZS2wDn$2SZ,ogDgo&ND77DB&;ZS3XaDz$$bDeX3SZ>@@@@@@@@@+@@@@@@@@@@@@@@@@@@@@",
"O++O++O++O+O+++O+O+++O++++O++++++++++++++++++++o+$$aZpo>ZS26SSakDN;XgDg@;BD62ZSdgDZ>opDz@$bDe@4SC,o@@+o@+@@@@@@@@o@@@@@@@@@@@@o@",
"O+o+O+O++O+++++++++++++++++++++++@+++++@+++++++++oo$>;o;nZ2$hSDDCeo@gDg@&MS7$sSDDZi@opDl@$bDeX2ZC>@+@@@@@@+@@o@@@@@@@@@@@@@@@@@@",
"+O++++++.O+++O+++++++++++O+++++++++++++++++++++@@@++o@+@;2&o$3q9,@@+,7,@$37&@$299<@@+>7<@@27;@&64@@@+@@@@@@+o@@@@@@o@@@@@@@@@@@@",
"+++OO+O+++++++++++O++O+o++++++++++++++++++++++++++@+++++oo+@@oXoo+++o@o@@oo@o@ooX@o@+@o@+@@o@@@o@@@@@@@++@@@@@@@@@@@@@@@@@@@@@@@",
"+O+OO+++O++O+++++++++++++++++++++++++++++++++o+++++++@+++@+@+++@@++@+@@o+@o@@@+@@+@+@+@@+@+@@o@@@o@@@+@@@@@@@@@@@@@@@@@@@@@@@@@@",
"++++++O++++++O+++O++O++++++++o++++@++++++++++@@+@+@+++@+++++@++++@@+@+@@@+@+@+@+@@+@+@o@@@@@@@@@@@@@@@+@@o@@@@@@@@@@@@@@@o@@@@@@",
"O+O++O+O++++++++++++++++++++++++++++++++++++++++++++@++@@+++@+@++@+@+@o@+@+@+@+@@o@+@+@@@+@@@@@@@@+@@@@++@@@@@@@@@@@@@@@@@@@@@@@",
"++++++++++O++++O+++O+++++++++++++++++++++++@@+@++@@o+++@+++@@+++@+@+@+@+@+@+@+@+@@++@@+@@@@++@++@o@@@+@+@@@@@@@@@@@@@@@@@@@@@@@@",
"OO+O+++O+++++++++O++++++++++++++++o+++++++++++@+++++@+@+@+@++@o++@+@+@+@+@+@+@+@+@@@+@@@@+@@@@@@@+@@@@@@@@@@@+@@@@@@@@@@@@@@@@@@",
"++++O++++O++O+++++++++++++++++++++++@++++++@@++++@+@++++++++++@@@+@+@+@+@+@+@+@+@++@@@@+@@+@o@@+@@@+o@@@@@@@@@@@@@@@@@@@@@@@@@@@",
"O+O+++++++O+++++++O+++++++++++@++++++++o@@++@+++@+o++@+@++++++@++@+@+@+@+@+@+@+@+@@@@+@@+o@@@@+@@@@@@@@@@@@@@@@@@@@@@@@@@@@@@@@@",
"++++O++O++++++O++++++++++++++++++++++++++++@+++@++@@++++@+@+@@+@@+@+@+@+@+@+@+@+@++@@@@+@@@@+@@@@@@@@@@@@@@@@@@@@@@o@@@@@@@@@@@@",
"+OO++++++O++++++++++++++++++++++@+++++++@+++@+@+++++@++++++@@+@++@+@o@+@+@+@@++@@@@@@@+@@@+@@@+@@@@@@@@@@@@@@@@@@@@@@@@@@@@@@@@@",
"++++++++++++O++O++++++++++o+++++++++++@++++@+++++@+@++@+@++@+@+@@o@+@+@+@+@+o@+@@+@@+@@@++@@+@@@@@@@@@@@@@@@@@@@@@@@@@@@@@@@@@@@",
"+O+++++++++O++++++++++++++++++++++++o++@+++++@+@++++@+++++@+@+@++@+@+@+@+@+@@@@+@@+o@++@@@+@@@+@@@@@@@@@@@@@@@@@@@@@@@@@@@@@@@@@",
"++++++O++++++O+++o+++++++++++++++++++@+++@@+++o@+@+@++@++@+@+@o@@+@+@+@+@+@+@+@@@+@@@@@@+@@@@+@@@@@@@@@@@@@@@@@@@@@@@@@@@@@@@@@@",
"F+++++++O+++++++++++++++++++++++++++@+++++++++@++@+@@+@++@@o@+@++@+@+@+@+@+@@+@+@@@+@++@@+@@@@@@X@@@@@@@@@@@@@@@@@@@@@@@@@@@@@@F",
"F++OO+++++o+++++++++++++++@++++++++@++@+@+@+@+++++++++++@+@@+@+@@+@+@+@+@+@+@@@@@+@@@@@@@@@++@o@@@@@@@@@@@@@@@@@@@@@@@@@@@@@@@@F",
"F++++++++++++++++o@+++++o++++++++@+++++++++++++++@+@++o@@+@+@+@++@+@+@@++@@@+@+@o@@+@@+@@@@@@@@@@@@@@@@@@@@@@@@@@@@@@@@@@@@@@@@F",
"FF+++O++++++++o++++++++++++++++++++@+@@+@+@++@+@+++@+@+@+@+@+@+@@+@+@++@@++@@@+@@@@@@+@@@@@X@@@@@@@@@@@@@@@@@@@@@@@@@@@@@@@@@@FF",
"FFF++++++++++++++++++++++++++++++++@+++++o+@@+++++++@+@+@++@@+@++@+@+@o@+@o@@@@@@@@@@@@@@@@@@@@@@@@@@@@@@@@@@@@@@@@@@@@@@@@@;FFF",
"FFF++++O++++++++++++++++@++++++@@++++@@++@++@++@@+@++@+@@o@++@+@@+@+@+@+@@@@+@+@o@@@@+@o@@@@@@@@@@@@@@@@@@@@@@@@@@@@@@@@@@@@@FFF",
"FFFF++++++++++++++++@++++++@+++@@o+++++++++@++@+@+++@+@+@+@@@+@++@+@@+@@@+@+@@@@@@@@@@@X@@@@@@@@@@@@@@@@@@@@@@@@@@@@@@@@@@@@FFFF",
"FFFFFF+++++++++++++++++++++o++++++@+@@+@@+++@+++++@@+@+@+@+++@+@@+@++@+@@@@@@+@+@X@@X@@@X@@@@@@@@@@@@@@@@@@@@@@@@@@@@@@@@;FFFFFF",
"FFFFFFF+++++++++++++++++++++++@++@+++++++++@+++@+@@+@+@+@+@+@+@+@@+@+@@@@++@@o@+@@@@@@@@@@@@@@@@@@@@@X@@@@@@@@@@@@@@@;@@@FFFFFFF",
"FFFFFFFFFF++++++++@++++++++++@++++@+@++@+@++@+++@o+@+@+@+@+@+@+@+o@+@+@+@@@@@@@@@@@@@@@@@@@@@@@@@@@@@@@@@@@@@@@@@@@@@@FFFFFFFFFF"
};
