/* XPM */
static char *dtool_logo_small[] = {
/* columns rows colors chars-per-pixel */
"64 64 211 2 ",
"   c #8D2B98",
".  c #8D2D99",
"X  c #8E2D99",
"o  c #8F2D99",
"O  c #8D2E99",
"+  c #8E2E99",
"@  c #8F2E99",
"#  c #8D2E9A",
"$  c #8D2F9A",
"%  c #8E2E9A",
"&  c #8E2F9A",
"*  c #8F2F9A",
"=  c #902E99",
"-  c #902E9A",
";  c #902F9A",
":  c #912F9A",
">  c #922F9A",
",  c #932F9A",
"<  c #942F9A",
"1  c #8B319B",
"2  c #8D309B",
"3  c #8C319B",
"4  c #8D319B",
"5  c #8E309A",
"6  c #8F309A",
"7  c #8E309B",
"8  c #8F309B",
"9  c #8E319B",
"0  c #8F319B",
"q  c #8F329B",
"w  c #8F339C",
"e  c #90309A",
"r  c #91309A",
"t  c #90309B",
"y  c #91309B",
"u  c #90319B",
"i  c #91319B",
"p  c #92319B",
"a  c #93319B",
"s  c #92329B",
"d  c #95309A",
"f  c #94319B",
"g  c #95319B",
"h  c #96319B",
"j  c #97319B",
"k  c #91329C",
"l  c #90339C",
"z  c #91339C",
"x  c #93339C",
"c  c #91349C",
"v  c #90349D",
"b  c #92359D",
"n  c #91369D",
"m  c #92369D",
"M  c #91369E",
"N  c #94359D",
"B  c #95359D",
"V  c #97349C",
"C  c #96369D",
"Z  c #96369E",
"A  c #97369E",
"S  c #98319B",
"D  c #99319B",
"F  c #98369E",
"G  c #92399F",
"H  c #933A9F",
"J  c #94399F",
"K  c #963A9F",
"L  c #943BA0",
"P  c #953BA0",
"I  c #973CA0",
"U  c #963DA1",
"Y  c #963EA1",
"T  c #983FA2",
"R  c #9940A2",
"E  c #9842A3",
"W  c #9B42A3",
"Q  c #9A43A3",
"!  c #9943A4",
"~  c #9A45A5",
"^  c #9B45A5",
"/  c #9A46A5",
"(  c #9D48A6",
")  c #9E49A6",
"_  c #9E4AA7",
"`  c #9E4EA9",
"'  c #9F4EA9",
"]  c #9F51AA",
"[  c #A14DA9",
"{  c #A14EA9",
"}  c #A051AB",
"|  c #A251AA",
" . c #A354AC",
".. c #A356AD",
"X. c #A458AE",
"o. c #A558AE",
"O. c #A658AE",
"+. c #A45AAF",
"@. c #A55AAF",
"#. c #A65AAF",
"$. c #A65BB0",
"%. c #A75CB0",
"&. c #AA63B3",
"*. c #AB63B3",
"=. c #AB64B4",
"-. c #AE68B6",
";. c #AF6AB6",
":. c #B06FB9",
">. c #B26EB9",
",. c #B371BA",
"<. c #B671BA",
"1. c #B474BB",
"2. c #B375BC",
"3. c #B574BC",
"4. c #B776BD",
"5. c #B777BD",
"6. c #B679BE",
"7. c #B77BBF",
"8. c #B87BBF",
"9. c #BC83C3",
"0. c #BC84C3",
"q. c #BD84C3",
"w. c #BD85C4",
"e. c #C18AC6",
"r. c #C08BC7",
"t. c #C18BC7",
"y. c #C08CC7",
"u. c #C18DC7",
"i. c #C18DC8",
"p. c #C38EC8",
"a. c #C592CA",
"s. c #C693CB",
"d. c #C793CB",
"f. c #C694CB",
"g. c #C797CD",
"h. c #C893CB",
"j. c #C894CB",
"k. c #C998CD",
"l. c #C99BCE",
"z. c #CB9DCF",
"x. c #CB9FD1",
"c. c #CDA1D2",
"v. c #CCA2D2",
"b. c #CDA3D2",
"n. c #D0A7D4",
"m. c #D0A9D5",
"M. c #D0AAD6",
"N. c #D2ACD7",
"B. c #D3ADD7",
"V. c #D6B2DA",
"C. c #D6B5DB",
"Z. c #D8B5DB",
"A. c #D9B5DB",
"S. c #D9B6DC",
"D. c #D9B7DC",
"F. c #DAB6DC",
"G. c #D9B9DD",
"H. c #DCBFE0",
"J. c #DDC0E0",
"K. c #DDC0E1",
"L. c #DFC3E2",
"P. c #E0C5E3",
"I. c #E1C7E4",
"U. c #E3CBE6",
"Y. c #E4CBE6",
"T. c #E4CEE7",
"R. c #E7D4EA",
"E. c #E8D4EA",
"W. c #EAD7EC",
"Q. c #EAD9ED",
"!. c #EBD9ED",
"~. c #EBDAED",
"^. c #ECDBEE",
"/. c #ECDCEE",
"(. c #EDDDEF",
"). c #EDDFEF",
"_. c #EEDFF0",
"`. c #EEE0F0",
"'. c #EEE1F0",
"]. c #EFE1F0",
"[. c #EFE1F1",
"{. c #F0E3F1",
"}. c #F1E4F2",
"|. c #F1E6F3",
" X c #F2E8F4",
".X c #F4EAF5",
"XX c #F5ECF6",
"oX c #F5EDF6",
"OX c #F6EEF7",
"+X c #F6EFF7",
"@X c #F7F0F8",
"#X c #F7F1F8",
"$X c #F8F1F8",
"%X c #F8F2F8",
"&X c #F8F2F9",
"*X c #F9F3F9",
"=X c #F9F4F9",
"-X c #F9F5FA",
";X c #FBF7FB",
":X c #FBF8FC",
">X c #FCF9FC",
",X c #FDFBFD",
"<X c #FDFCFD",
"1X c #FDFCFE",
"2X c #FEFCFE",
"3X c #FEFDFE",
"4X c #FEFEFE",
"5X c #FEFEFF",
"6X c #FFFEFF",
"7X c #FFFFFF",
"8X c None",
/* pixels */
"8X8X8X8X1 1 1 1 1 1 1 1 1 3 3 3 3 3 3 3 3 3 4 4 4 4 4 4 4 4 4 9 9 9 9 9 9 9 9 9 0 0 0 0 0 0 0 0 0 u u u u u u u u u i i 8X8X8X8X",
"8X8X8X1 1 1 1 1 1 1 1 1 3 3 3 3 3 3 3 3 3 4 4 4 4 4 4 4 4 4 9 9 9 9 9 9 9 9 9 0 0 0 0 0 0 0 0 0 u u u u u u u u u i i i i 8X8X8X",
"8X8X1 1 1 1 1 1 1 1 1 3 3 3 3 3 3 3 3 3 4 4 4 4 4 4 4 4 4 9 9 9 9 9 9 9 9 9 0 0 0 0 0 0 0 0 0 u u u u u u u u u i i i i i i 8X8X",
"8X1 1 1 1 1 1 1 1 1 1 3 3 3 3 3 3 3 3 3 4 4 4 4 4 4 4 4 4 9 9 9 9 9 9 9 9 0 0 0 0 0 0 0 0 0 u u u u u u u u u i i i i i i i i 8X",
"1 1 1 1 1 1 1 1 1 1 3 3 3 3 3 3 3 3 3 4 4 4 4 4 4 4 4 4 9 9 9 9 9 9 9 9 0 0 0 0 0 0 0 0 0 u u u u u u u u u i i i i i i i i i i ",
"1 1 1 1 1 1 1 1 1 3 3 3 3 3 3 3 3 3 4 4 4 4 4 4 4 4 4 9 9 9 9 9 9 9 9 9 0 0 0 0 0 0 0 0 0 u u u u u u u u u i i i i i i i i i p ",
"1 1 1 1 1 1 1 1 3 3 3 3 3 3 3 3 3 4 4 4 4 4 4 4 4 4 9 9 9 9 9 9 9 9 9 0 0 0 0 0 0 0 0 0 u u u u u u u u u i i i i i i i i i p p ",
"1 1 1 1 1 1 1 3 3 3 3 3 3 3 3 3 4 4 4 4 4 4 4 4 4 9 9 9 9 9 9 9 9 9 0 0 0 0 0 0 0 0 0 u u u u u u u u u i i i i i i i i i p p p ",
"1 1 1 1 1 1 3 3 3 3 3 3 3 3 3 4 4 4 4 4 4 4 4 4 9 9 9 9 9 9 9 9 9 0 0 0 & O O O O O + + + + + + * u u i i i i i i i i i p p p p ",
"1 1 1 1 1 3 3 3 3 3 3 3 3 3 4 4 4 4 4 4 4 4 4 9 9 9 9 9 9 9 9 9 0 0 0 5 ..0.0.0.0.q.q.q.q.q.q.9.o.t i i i i i i i i i p p p p p ",
"1 1 1 1 3 3 3 3 3 3 3 3 3 4 4 4 4 4 4 4 4 4 4 9 9 9 9 9 9 9 9 0 0 0 0 . r.1X3X2X2X2X2X2X2X2X2X<Xa.* i i i i i i i i i p p p p p ",
"1 1 1 1 3 3 3 3 3 3 3 3 3 4 4 4 4 4 4 4 4 4 9 9 9 9 9 9 9 9 9 0 0 0 0 . u.7X7X7X7X7X7X7X7X7X7X6Xf.; i i i i i i i i p p p p p p ",
"1 1 1 3 3 3 3 3 3 3 3 3 4 4 4 4 4 4 4 4 4 9 9 9 9 9 9 9 9 9 0 0 0 0 0 . u.7X7X7X7X7X7X7X7X7X7X5Xs.; i i i i i i i p p p p p p p ",
"1 1 3 3 3 3 3 3 3 3 3 4 4 4 4 4 4 4 4 4 9 9 9 9 9 9 9 9 9 0 0 0 0 0 0 . u.7X7X7X7X7X7X7X7X7X7X5Xs.; i i i i i i p p p p p p p p ",
"1 3 3 3 3 3 3 3 3 3 4 4 4 4 4 4 4 4 4 9 9 9 9 9 9 9 9 9 0 0 0 0 0 0 0 . u.7X7X7X7X7X7X7X7X7X7X5Xs.; i i i i i p p p p p p p p p ",
"3 3 3 3 3 3 3 3 3 4 4 4 4 4 4 4 4 4 9 9 9 9 9 9 9 9 9 0 0 0 0 0 0 0 0 O u.7X7X7X7X7X7X7X7X7X7X5Xs.; i i i i p p p p p p p p p a ",
"3 3 3 3 3 3 3 3 4 4 4 4 4 4 4 4 4 9 9 9 9 9 9 9 9 9 0 0 8 5 5 5 5 8 8 X u.7X7X7X7X7X7X7X7X7X7X5Xs.; i i i p p p p p p p p p a a ",
"3 3 3 3 3 3 3 4 4 4 4 4 4 4 4 4 9 9 9 9 9 9 9 9 9 5 # q L E ~ / ! U b   t.7X7X7X7X7X7X7X7X7X7X5Xs.; i i i p p p p p p p p p a a ",
"3 3 3 3 3 3 4 4 4 4 4 4 4 4 4 4 9 9 9 9 9 9 9 $ v ` 6.v.H.R.).'.Q.I.B.w.B.6X7X7X7X7X7X7X7X7X7X5Xs.; i i p p p p p p p p p a a a ",
"3 3 3 3 3 3 4 4 4 4 4 4 4 4 4 9 9 9 9 9 9 $ n &.m.[.:X7X7X7X7X7X7X7X7X,X:X7X7X7X7X7X7X7X7X7X7X5Xs.; i p p p p p p p p p a a a a ",
"3 3 3 3 3 4 4 4 4 4 4 4 4 4 9 9 9 9 9 9 2 ] M.oX7X7X7X7X7X7X7X7X7X7X7X7X7X7X7X7X7X7X7X7X7X7X7X5Xs.; p p p p p p p p p a a a a a ",
"3 3 3 3 4 4 4 4 4 4 4 4 4 9 9 9 9 9 7 w 2.~.6X7X7X7X7X7X7X7X7X7X7X7X7X7X7X7X7X7X7X7X7X7X7X7X7X5Xs.: p p p p p p p p a a a a a a ",
"3 3 3 4 4 4 4 4 4 4 4 4 9 9 9 9 9 2 M r.+X7X7X7X7X7X7X7X7X7X7X7X7X7X7X7X7X7X7X7X7X7X7X7X7X7X7X5Xs.: p p p p p p p a a a a a a a ",
"3 3 4 4 4 4 4 4 4 4 4 9 9 9 9 9 7 v i.-X7X7X7X7X7X7X7X7X7X7X7X7X7X7X7X7X7X7X7X7X7X7X7X7X7X7X7X5Xs.: p p p p p p a a a a a a a a ",
"3 4 4 4 4 4 4 4 4 4 9 9 9 9 9 9 7 7.#X7X7X7X7X7X7X7X7X7X7X7X7X7X7X7X7X7X7X7X7X7X7X7X7X7X7X7X7X5Xs.: p p p p p a a a a a a a f f ",
"4 4 4 4 4 4 4 4 4 9 9 9 9 9 9 $ +.'.7X7X7X7X7X7X7X7X7X7X7X7X7X7X7X7X7X7X7X7X7X7X7X7X7X7X7X7X7X5Xs.: p p p p p a a a a a a a f f ",
"4 4 4 4 4 4 4 4 9 9 9 9 9 9 2 H C.7X7X7X7X7X7X7X7X7X7X7X7X7X7X7X7X7X7X7X7X7X7X7X7X7X7X7X7X7X7X5Xs.: p p p p a a a a a a a f f f ",
"4 4 4 4 4 4 4 4 9 9 9 9 9 9 $ :.*X7X7X7X7X7X7X7X7X7X7X7X7X7X7X7X7X7X7X7X7X7X7X7X7X7X7X7X7X7X7X5Xs.: p p p a a a a a a a f f f f ",
"4 4 4 4 4 4 4 9 9 9 9 9 9 7 G G.7X7X7X7X7X7X7X7X7X7X7X7X7X7X7X7X7X7X7X7X7X7X7X7X7X7X7X7X7X7X7X5Xs.: p p a a a a a a a f f f f f ",
"4 4 4 4 4 4 9 9 9 9 9 9 9 $ @.XX7X7X7X7X7X7X7X7X7X7X7X7X6X=X(.!.oX3X7X7X7X7X7X7X7X7X7X7X7X7X7X5Xs.: p a a a a a a a f f f f f f ",
"4 4 4 4 4 9 9 9 9 9 9 9 9 $ y.5X7X7X7X7X7X7X7X7X7X7X7X&XN.=._ ( O.f.}.7X7X7X7X7X7X7X7X7X7X7X7X5Xs.: a a a a a a a a f f f f f g ",
"4 4 4 4 9 9 9 9 9 9 9 9 9 l G.7X7X7X7X7X7X7X7X7X7X7X@Xq.m % * ; - y *.^.7X7X7X7X7X7X7X7X7X7X7X5Xs.> a a a a a a a f f f f f g g ",
"4 4 4 9 9 9 9 9 9 9 9 9 5 ! R.7X7X7X7X7X7X7X7X7X7X5Xx.c 6 u i i i i - 1.*X7X7X7X7X7X7X7X7X7X7X5Xd.> a a a a a a f f f f f g g g ",
"4 4 9 9 9 9 9 9 9 9 9 0 & } {.7X7X7X7X7X7X7X7X7X7X X .* u u i i i i e I L.7X7X7X7X7X7X7X7X7X7X6Xd.> a a a a a f f f f f g g g g ",
"4 4 9 9 9 9 9 9 9 9 9 0 % @.XX7X7X7X7X7X7X7X7X7X7XU.P t u i i i i i i ; l.7X7X7X7X7X7X7X7X7X7X6Xd.> a a a a f f f f f f g g g g ",
"4 9 9 9 9 9 9 9 9 9 0 0 # $.OX7X7X7X7X7X7X7X7X7X7XK.J t i i i i i i i o a.7X7X7X7X7X7X7X7X7X7X6Xd.> a a a f f f f f f g g g g g ",
"9 9 9 9 9 9 9 9 9 0 0 0 % X..X7X7X7X7X7X7X7X7X7X7XE.T y i i i i i i i s n.7X7X7X7X7X7X7X7X7X7X6Xd.> a a f f f f f f g g g g g g ",
"9 9 9 9 9 9 9 9 0 0 0 0 & ` _.7X7X7X7X7X7X7X7X7X7X%X;.- i i i i i i ; ) W.7X7X7X7X7X7X7X7X7X7X6Xd.> a f f f f f f g g g g g g h ",
"9 9 9 9 9 9 9 0 0 0 0 0 8 Y T.7X7X7X7X7X7X7X7X7X7X7XJ.Q ; i i i i e N k.<X7X7X7X7X7X7X7X7X7X7X6Xd.> a f f f f f g g g g g g h h ",
"9 9 9 9 9 9 0 0 0 0 0 0 0 0 B.7X7X7X7X7X7X7X7X7X7X7X1XV.{ i @ o ; R a.$X7X7X7X7X7X7X7X7X7X7X7X6Xd.> f f f f f g g g g g g h h h ",
"9 9 9 9 9 0 0 0 0 0 0 0 0 & 8.<X7X7X7X7X7X7X7X7X7X7X7X4X^.z.3.,.p.U.>X7X7X7X7X7X7X7X7X7X7X7X7X5Xd., f f f f g g g g g g h h h h ",
"9 9 9 9 0 0 0 0 0 0 0 0 0 * ' `.7X7X7X7X7X7X7X7X7X7X7X7X7X7X5X5X7X7X7X7X7X7X7X7X7X7X7X7X7X7X7X5Xd., f f f g g g g g g h h h h h ",
"9 9 9 9 0 0 0 0 0 0 0 0 0 u z b.7X7X7X7X7X7X7X7X7X7X7X7X7X7X7X7X7X7X7X7X7X7X7X7X7X7X7X7X7X7X7X5Xd., f f f g g g g g h h h h h h ",
"9 9 9 0 0 0 0 0 0 0 0 0 u u * #.|.7X7X7X7X7X7X7X7X7X7X7X7X7X7X7X7X7X7X7X7X7X7X7X7X7X7X7X7X7X7X5Xd., f f g g g g g h h h h h h j ",
"9 9 0 0 0 0 0 0 0 0 0 u u u u k g.3X7X7X7X7X7X7X7X7X7X7X7X7X7X7X7X7X7X7X7X7X7X7X7X7X7X7X7X7X7X5Xd., f g g g g g g h h h h h j j ",
"9 0 0 0 0 0 0 0 0 0 u u u u u 6 ^ P.7X7X7X7X7X7X7X7X7X7X7X7X7X7X7X7X7X7X7X7X7X7X7X7X7X7X7X7X7X5Xd., g g g g g g h h h h h h j j ",
"0 0 0 0 0 0 0 0 0 u u u u u u u * %./.7X7X7X7X7X7X7X7X7X7X7X7X7X7X7X7X7X7X7X7X7X7X7X7X7X7X7X7X5Xd.< g g g g g h h h h h h j j j ",
"0 0 0 0 0 0 0 0 u u u u u u u u u e -.`.7X7X7X7X7X7X7X7X7X7X7X7X7X7X7X7X7X7X7X7X7X7X7X7X7X7X7X6Xh.< g g g g h h h h h h j j j j ",
"0 0 0 0 0 0 0 u u u u u u u u u i i y *.E.7X7X7X7X7X7X7X7X7X7X7X7X7X7X7X7X7X7X7X7X7X7X7X7X7X7X6Xh.< g g g h h h h h h j j j j j ",
"0 0 0 0 0 0 u u u u u u u u u i i i i ; | V.;X7X7X7X7X7X7X7X7X7X7X7X7X7X7X7X7X7X7X7X7X7X7X7X7X6Xh.< g g h h h h h h j j j j j j ",
"0 0 0 0 0 0 u u u u u u u u u i i i i i ; K 5.Y.>X7X7X7X7X7X7X7X7X7X7X7X7X7X7X7X7X7X7X7X7X7X7X6Xh.< g h h h h h h j j j j j j S ",
"0 0 0 0 0 u u u u u u u u u i i i i i i i y ; W 4.D.].;X7X7X7X7X7X7X7X7X7X7X7X7X7X7X7X7X7X7X7X6Xj.< h h h h h h j j j j j j S S ",
"0 0 0 0 u u u u u u u u u i i i i i i i i i p r : N [ >.e.c.B.Z.S.S.S.S.S.S.S.S.S.S.S.S.F.F.F.A.<.d h h h h h j j j j j j S S S ",
"0 0 0 u u u u u u u u u i i i i i i i i i p p p p p r = : x B C Z Z Z Z Z Z A A A A A A F F F F V h h h h h j j j j j j S S S S ",
"0 0 u u u u u u u u u i i i i i i i i i p p p p p p p p p a a a a a a a a f f f f f g g g g g g h h h h h h j j j j j S S S S S ",
"0 u u u u u u u u u i i i i i i i i i p p p p p p p p p a a a a a a a a f f f f f f g g g g g h h h h h h j j j j j S S S S S S ",
"u u u u u u u u u i i i i i i i i i p p p p p p p p p a a a a a a a a f f f f f f g g g g g h h h h h h j j j j j S S S S S S D ",
"u u u u u u u u u i i i i i i i i i p p p p p p p p p a a a a a a a f f f f f f g g g g g h h h h h h j j j j j S S S S S S D D ",
"u u u u u u u u i i i i i i i i i p p p p p p p p p a a a a a a a f f f f f f g g g g g h h h h h h j j j j j j S S S S S D D D ",
"u u u u u u u i i i i i i i i i p p p p p p p p p a a a a a a a f f f f f f g g g g g h h h h h h j j j j j j S S S S S D D D D ",
"8Xu u u u u i i i i i i i i i p p p p p p p p p a a a a a a a f f f f f f g g g g g g h h h h h j j j j j j S S S S S S D D D 8X",
"8X8Xu u u i i i i i i i i i p p p p p p p p p a a a a a a a a f f f f f g g g g g g h h h h h h j j j j j S S S S S S D D D 8X8X",
"8X8X8Xu i i i i i i i i i p p p p p p p p p a a a a a a a a f f f f f g g g g g g h h h h h h j j j j j S S S S S S D D D 8X8X8X",
"8X8X8X8Xi i i i i i i i p p p p p p p p p a a a a a a a a f f f f f f g g g g g h h h h h h j j j j j j S S S S S D D D 8X8X8X8X"
};
