/* XPM */
static char *dtool_logo[] = {
/* columns rows colors chars-per-pixel */
"64 64 54 1 ",
"  c #8F2F9A",
". c #932E9A",
"X c #8E319B",
"o c #94319B",
"O c #98319B",
"+ c #95399F",
"@ c #993A9F",
"# c #963BA0",
"$ c #9A3DA1",
"% c #9D43A4",
"& c #9E48A6",
"* c #A146A5",
"= c #A14AA7",
"- c #A34DA9",
"; c #A553AC",
": c #A856AD",
"> c #A759AF",
", c #A959AF",
"< c #AB5DB1",
"1 c #AD63B3",
"2 c #B065B4",
"3 c #B26AB7",
"4 c #B36EB8",
"5 c #B673BB",
"6 c #B876BD",
"7 c #B779BE",
"8 c #BA7ABE",
"9 c #BC7EC0",
"0 c #BE83C3",
"q c #C086C4",
"w c #C28AC6",
"e c #C48EC8",
"r c #C692CA",
"t c #C895CC",
"y c #CB9BCE",
"u c #CD9ED0",
"i c #CEA2D2",
"p c #D0A5D3",
"a c #D3AAD6",
"s c #D5AFD8",
"d c #D6B1D9",
"f c #D9B5DB",
"g c #DBBBDE",
"h c #DDBFE0",
"j c #DFC2E1",
"k c #E1C5E3",
"l c #E4CBE6",
"z c #E6CFE8",
"x c #E7D1E8",
"c c #E9D4EA",
"v c #EDDCEE",
"b c #EFE0F0",
"n c #F1E4F2",
"m c None",
/* pixels */
"mmmmXXXXXXXXXXXXXXXXXXXXXXXXXXXXXooXXoXoXoXXoXoXoXooXooooooommmm",
"mmXXXXXXXXXXXXXXXXXXXXXXXXXXoXoXXXXXoXoXoXoooooXooooooooXooooomm",
"mXXXXXXXXXXXXXXXXXXXXXXXXXXXXXXXoXXoXoXoXooXooXoooooooooooooooom",
"mXXXXXXXXXXXXXXXXXXXXXXXXoXXXoXoXooXoXoXooXoXooo.ooXooXoooooooom",
"XXXXXXXXXXXXXXXXXXXXXXXXXXXoXXXXoXXoXoXoXooooXoXoXooXoooOooooooo",
"XXXXXXXXXXXXXXXXXXXXXXXXoXXXoXoXXXoXoXXooXoXoooooooooooooooooooo",
"XXXXXXXXXXXXXXXXXXXXXXXoXoXoXXoooXXoXooXoooXXooooooooooooooooooo",
"XXXXXXXXXXXXXXXXXXXXXoXXXXXXXoXXXooXoXoooXooooooooXooooooooooooo",
"XXXXXXXXXXXXXXXXXXXXXoXXXXXXoXXoXXoXXXXXo ..X.. .oooooooooooOooO",
"XXXXXXXXXXXXXXXXXXXXXXoXoXooXXoXooXo->5w&0i11t1r3.oooooOoooooooo",
"XXXXXXXXXXXXXXXXXXXXXXXXXXXXoXXoX.o 9div0cilrbevy.ooooooooooooOo",
"XXXXXXXXXXXXXXXXXXoXoXoXXooXoXXoooX 0f>z0j3x;x1iy.oooooooooooOoo",
"XXXXXXXXXXXXXXXXXXXXXXXXXoXXXoXoXoX 8f1xrj3x;x1iu.ooooooooooOoOo",
"XXXXXXXXXXXXXXXXXXoXXXoooXXooXoXXoo.8y>c5vfj&x<iu.ooooooooOooooo",
"XXXXXXXXXXXXXXXXXoXXoXXXXXoXXoXXooo ;3;0>4i8#530<.oooooooooOooOo",
"XXXXXXXXXXXXXXXXXXoXXooXooXooXoXXoX.1byjf7xlr0xx8.oooooooOooOoOo",
"XXXXXXXXXXXXXXXXXXoXXoXXXXXXXXXXo.Xo$jewhppwgftuu.oooooooOooOoOo",
"XXXXXXXXXXXXXXXXXXXXoXXoXXX%+;+1&-+oog08hpuqgfwtu.oooooOooOooooo",
"XXXXXXXXXX%XXXXXX+XXXooXX11d0j;z0l0p&gq9hygpfaafy.oooooOoooooOOo",
"XXXXXXXXXXXXXXXXXXXXXXX#;y;aj0%i>rjy#r41t,df4<ff<oooOoooOoOooooO",
"XXXXXXXXXXXXXXXXXXXXo>&ij0&aj09g>rjt2g48hp-whu2g8.oooooooOoOoOoO",
"XXXXXXXXXXXXXXXXXXX+&l0c0c0v0z0v0c0cqxrlrlexwcwky.OooOOoooooOoOo",
"XXXXXXXXXXX#XX#XXX%01xrj1z0j3x-x0x1x<frl4gtx2k3iu.oooooooOoooO.O",
"XXXXXXXXXXXXXXXXX+>x1v0x1cij4x-x0c1c<ftl6htx3l3pu.oooOOoooOoOoOo",
"XXXXXXXXXXXXXXXXX73gjj1jjj1kjd&j5jlj&a0ikz2dkl-ut.oooooOOooOoOoO",
"XXXXXXXXXXXXXXXX>0#5d7X0d3X0a1;r>00>0e-<aw*9w<9w:.OooOo.OoOoOoOo",
"XXXXXXXXXXXXXXXX7v5ldx7cfz0xfjuntbyijx0fhxtcatllw.oOOooooOoOoOoO",
"XXXXXXXXXXXXXXX11jrc1c0z1c0j3x>x3iij9ail4h9tddryu.oOooOoOoOoOoOo",
"XXXXXXXXXXXXXXXg1j0v1l0z1z0l3c;x1iih9ail4h9rsdetuO.OOoooOoOo.OoO",
"XXXXXXXXXXXXXXXlic0cuv0bix0cif&0-iuddlejac4esphkt.ooooOOoOoOOoOo",
"XXXXXXXXXXXXXXX0i0&0i7&0i7&00%X o;1,ay=4pt*2w:tp:.oOoOOoOoOoOooO",
"XXXXXXXXXXXXXX0k04jl40lj9jiXXXX o..:kiajwx4ulg6zw.oooOoOoOoOooOO",
"XXXXXXoXXoXXX+9tgfiipgrfyyr.oooooo.$af8c4xwx6x9guOOOOoOoOoOoOOOO",
"oXoXXoXXXXooX&00hf0tdj9pr1;.ooooooo.rs,c*kex2l3puOOOoOoOoOoOOoOo",
"XXoXoXXooXXoX&ytfsiaahrfr;$.ooooooo.qa<x-kwx6x3pt.OOOo.OoOooO.Oo",
"oXXXoXXoXooXX&fj95jj39lj<&$oooooooo.6t:f*a4ykf*eqOOOoOO.OoOOOOOO",
"XoXXXXoXoXooX+ey&0f74t7p1<&oooooooO.$wa92p:6gw:p5OOOO.OOoOOOOOOo",
"XXXooXXoXooXooix0xajyb0bej5.ooooooo$3cuxwvqlpxwcyOOOO..OOOoooOOO",
"XooXXooXoXXoo 4j0f5j;c:ftl4$ooO.o.@yel2x:kwx<l4pyOOO.O..oOOOOOOo",
"XXoXXoXoXoXoX 4lif9j;c;ftl5i2$oO@--xel2c:kwx2l3pyOOOOOOOOOOoOoOO",
"oXoXoXoXXoooo >h0cjd&z;fwfhc6ppt;hfx4xgl*k9jgc:py.OooOOo.OOoOoOO",
"oXXXXoXooXoXXoo5>0i->i&166w3<9w9,3p3*ry,,926ew*94OoOOoOOOOOOOOoO",
"XXooXoooXoXooX.4asz5xjd4clu6cltsctn6fklqbphkuvtvrOOooOOOoOooOoOO",
"oXXooXoXooooooo$54x0j4lyf8kppwh4c<lwx2l6su8l<x3su.ooOOoOOOOOOOOO",
"XoXoXXoooXoXooooo>xej5xif6kpiqg<c-jwz2l3py3l-x:pu.OOoOOOOOOOO.OO",
"oXoXoooXoXoooXooo;z0c0x0lthugpd:c-kwzwc2py3l-x2puO.OOOOooOooOOOO",
"XooooXoXooooooooo#0>ig0-ah4:ff2:p*t2qhu*q6:u*p:q8OOO.OoOOOOOOOOO",
"oXXoXooooXooXooXooX50ii>dj6qg:uhe6h9se2ff3paqg6g9.OOOOOOOoOOOOOO",
"oXoXoXoooooooXooooo$,ulrkrkqvqcqc9vwhsspssyx9vqku.OOoOOOOOOOOOOO",
"XooooooXoooXooooooo..;utf6k:zql<c:k5wsfeyp3z*l2iuOOOOOoO.OOOOOOO",
"XooXoXooXoooXooooooo.o@2e6l;xwx2c:k5rsdtup4l-x2py.OOOOO.OOOO.OOO",
"oXoooXooooooooooooooOo..@;8=k3llg*h4epwxx92j-k<utOO..OOOOOOOOOOO",
"oooooXoXooooooooooooooooO..O=@*<$O-@$*O::OO:@-@**OOOO.OOOOOOOOOO",
"oXXooooooXooooooooooooooO.oo....OOOOO.OOOOOOO.OOOO.OOOOOOOOOOOOO",
"ooooooXooooooooooooooooOooooOOooO.OO.OOOOOOOOOOoOO.OOOOOOOOOOOOO",
"XoXooooooooooooooooooOoooOoOoooOOOOOOOO.OOOOoOOOOOOOOOOOOOOOOOOO",
"XoXoooo.XooooooooooooOoOooooOooo.OOoOoOooOOOOOoOOOOOOOOOOOOOOOOO",
"ooooooooooooooooOoooo.oooOoOooOOO.oOoOoOOOO.oOOOOOOOOOOOOOOOOOOO",
"ooooooooooooooooooooOoOOOoO.OoOoOoOoOoOOOoOOOOOOOOOOOOOOOOOOOOOO",
"oooooXoooooooooooooOoooooooooOoO.OoOoOoOOoOoOoOoOOOOOOOOOOOOOOOO",
"moooooooooooooooooOooOoOOOoOOoOoOoOoOOOoO.OOOOOOOOOOOOOOOOOOOOOm",
"mooooooooooooooooOooooooooOooOoOoOoOoOOOOOOOOOOOOOOOOOOOOOOOOOOm",
"mmmooooooooooooooooooOooOooOOoOoOoOoOOOoO.OOOOOOOOOOOOOOOOOOOmmm",
"mmmmooooooooooOooOoOooOoooOooOoOoOO.OoOOOO.OOOOOOOOOOOOOOOOOmmmm"
};
