/* XPM */
static char *dtool_logo[] = {
/* columns rows colors chars-per-pixel */
"64 64 65 1 ",
"  c #8A2F9A",
". c #932E9A",
"X c #9B2F9A",
"o c #8C319B",
"O c #8F389F",
"+ c #93319B",
"@ c #9C319B",
"# c #91399F",
"$ c #A3319B",
"% c #AB319B",
"& c #B0319B",
"* c #933DA1",
"= c #9543A3",
"- c #9A46A5",
"; c #9949A6",
": c #9B4CA8",
"> c #9F52AB",
", c #AB4BA7",
"< c #A04DA8",
"1 c #A055AD",
"2 c #A259AE",
"3 c #AC5BAF",
"4 c #A45DB0",
"5 c #AD5CB0",
"6 c #B15CB0",
"7 c #A661B2",
"8 c #A962B3",
"9 c #AC69B6",
"0 c #AE6DB8",
"q c #B169B6",
"w c #B16CB8",
"e c #B375BC",
"r c #B378BD",
"t c #B77FC1",
"y c #B983C3",
"u c #BF8AC6",
"i c #C38AC6",
"p c #C88AC6",
"a c #C38FC8",
"s c #C494CB",
"d c #C995CB",
"f c #C69ACE",
"g c #CA9BCE",
"h c #CB9ED0",
"j c #CDA4D3",
"k c #CEA8D5",
"l c #D1A5D3",
"z c #D1ABD6",
"x c #D4AED8",
"c c #D5B4DB",
"v c #DABCDF",
"b c #DFC6E3",
"n c #E2C5E3",
"m c #E2C9E5",
"M c #E7CFE8",
"N c #E6D2E9",
"B c #E9D4EA",
"V c #ECDCEE",
"C c #EFE1F1",
"Z c #F1E5F2",
"A c #F4ECF6",
"S c #F7F0F8",
"D c #F9F4FA",
"F c #FFFFFF",
"G c None",
/* pixels */
"GGGG ooooooooooooooooooooooooo  oooooooo oooooooooo ooooooooGGGG",
"GGooo oooooooooooooooooooooooo  ooooooooo oooooooooooooooooo=OGG",
"Gooo ooooooooooo oooo  oooooooooooooooooooooooooo oooooooooooo=G",
"Gooooooooooooooooooo oooooooooooooooooooooooooooooooooOooOoo+OOG",
"ooooooooooooo oooooooooooooo oooooooooooooooooooooooooooo+oooo+o",
"oooooooooooo oooo ooooooooooo oooooo o  oOoooooO ooooooooo++++++",
"oooooo oooooooooooooooooooooooooooo4yytyyyyytyyy7OooooOoo++o+oo+",
"ooo oooooo ooooooooooooooooooooooooyNbbbbbNbbbbNyOooooooo+o+o+o+",
"oooooooo oooooooo o o oooooooooooo tbbbbbbbbbbbbaoooooooo+o+oo++",
"ooooooooo oooooooo oooooooo oooooootbbbbbbbbbbbbuoo++o+++o+o++o+",
"oooooooo ooooooooooooooooo ooooooootNbbbbbbbbbbNuooooo+ooo+++o++",
"ooooooooooooooooooooooooooo oooooootbbbbbbbbbbbbuoo+o+o+++o+++++",
"oo oo oooooooooooooooooooooooooooootbbbbbbbbbbbbuo+o+o+o+oo+o+++",
"ooo  o o ooooooooo ooooooooooooooootbbbbbbbbbbbbuo+oo+o++++o++++",
"ooooooooooooo oooooooooooooo  ooo  tbbbbbbbbbbbbuooooo+oo+++++++",
"oooooooooooooo oooooo    oO=::;=Oo rbbbbbbbbbbbNu+o++o++o+++++++",
"ooooo  ooooooooooooo  o>ykmCCACCmkyfbbbbbbbbbbbmi +o+o+++o++++++",
"oooo  oooooooooooo  OyvAFFFFFFFFFFFDABmbbbbbbbbmuoo+o++o++++++++",
"ooooooooooooo ooo o9mDDDFFFFFFFFFFFFFFSBbbbbbnnmio++o+++++++++@+",
"oooooooooooooo o =kDDDDDFFFFFFFFFFFFFFFDZmbbbbbmio+o+o+o++++@++@",
"oooooooooooooooo:bFFFFFFFFFFFFFFFFFFFFFFFAmmbnbmuoo+++++++@++++@",
"oooooooooooooo >NFFFFFFFFFFFFFFFFFFFFFFFFFSNbnbmu++o+o+++++++@+@",
"oooooooooo  o :NFFFFFFFFFFFFFFFFFFFFFFFFFFFSmbbbu+o++o++++++@+@+",
"o oooooooo   =cFFFFFFFFFFFFFFFFFFFFFFFFFFFFFAmnmi ++++++++@++@+@",
" oooo ooooooouFFFFFFFFFFFFFFFFFFFFFFFFFFFFFFFVbmioo+++++@++@++@@",
"oooo o oooo 1ZFFFFFFFFFFFFFFFFFFFFFFFFFFFFFFFDMmu+++++@++++@@@+@",
"ooooooooooookFFFFFFFFFFFFFFFFFFFFFFFFFFFFFFFFFZmio++++++@+@+@@@@",
"ooooooooooo1ZFFFFFFFFFFFFFFFFFFFFFFFFFFFFFFFFFDBi++++++@+@+@++@@",
"ooo ooooooofCCDDFFFFFFFFFFFFDDFFFFFFFFFFFFFFFFFCu++++++++@+@@@@@",
"oo oooooooObACDDFFFFFFFFFFCu940uVFFFFFFFFFFFFFFAi+++@+@+@+@@@@@@",
"ooo ooooo :VASSDFFFFFFFFFc;     :cDFFFFFFFFFFFFFd+++++@++@@+@@@@",
"ooooooooo rVAADDFFFFFFFFcO o  oo =bFFFFFFFFFFFFFg.++@++@+@@@+@@@",
"ooooooooo uFFFFFFFFFFFFA2 ooooo+o 4SFFFFFFFFFFFFj++@+@++@@+@@@@@",
"ooooooooookFFFFFFFFFFFFvOoooooooo+#nFFFFFFFFFFFFz.++@+@@+@@@@@@$",
"oooooooooocFFFFFFFFFFFFf ooooooo++ lFFFFFFFFFFFFx@@++@+@@@@@@@@$",
"oooooooooocFFFFFFFFFFFFf oooo+o+oo jFFFFFFFFFFFFx++@@+@@@@@@@$@@",
" oooooooo kFFFFFFFFFFFFcooooooooo+#vFFFFFFFFFFFFzX+@@++@@@@@@@$@",
"o oo oooo uFFFFFFFFFFFFC; oo+o+o+ <ZFFFFFFFFFFFFl.+@@@@@@@@@$@$$",
"ooooo ooo yFFFFFFFFFFFFFhoo++oo+ #kFFFFFFFFFFFFFh.@@@@@@@@$@@@@$",
"oooo oooo 4DFFFFFFFFFFFFDu#  oo #aDFFFFFFFFFFFFFd@@++@@@@$@@$$@$",
" oo o ooo =NFFFFFFFFFFFFFDv9;=;wvFDFFFFFFFFFFFFDa+@@@@@@@@@$@@$$",
"oooo oooooojFFFFFFFFFFFFFFFDZBZDFFFFFFFFFFFFFFFZi+@@@@@@@$$@$$@$",
"oooooooooo 7SFFFFFFFFFFFFFFFFFFFFFFFFFFFFFFFFFDBi@@@@@@$@$@$$$$$",
"oooooooooo ObFFFFFFFFFFFFFFFFFFFFFFFFFFFFFFFFFAMi@@@@@@@$@$@@$$$",
" oooooooooo 9DFFFFFFFFFFFFFFFFFFFFFFFFFFFFFFFDBni@@@@@$@$@@$$$$$",
"oooooooooooookFFFFFFFFFFFFFFFFFFFFFFFFFFFFFFFZnnp@@@@@@$@$$$$$$$",
"oooooooooooo ;NFFFFFFFFFFFFFFFFFFFFFFFFFFFFFDMnMp@@@@$@$$$$$$$%$",
"oooooooooo oo 7ZFFFFFFFFFFFFFFFFFFFFFFFFFFFDNnnnpX@@@@$@$@$$$$$%",
"oooooooooooooo 7ZFFFFFFFFFFFFFFFFFFFFFFFFFDBnnnMi@$@@$@@$$$$$$%$",
"oooooooo ooooooO9CFFFFFFFFFFFFFFFFFFFFFFFDBnnnnnp@$@$@$$$$$%$%$%",
"oo ooooooooooooo 2nFFFFFFFFFFFFFFFFFFFDFZNnnnnnni$@@@$$$$$$$$%%%",
"ooooooooooooooooo *aZFFFFFFFFFFFFFFFFFDVMnMnnnnMp@@$$@$$$$$$$$%%",
"oooooooooooooooooo+o<gZDFFFFFFFFFFFFDZMnnnnnnnnnp$@$$$$$$$%$%$%%",
"ooo ooooooooooOoo+oo. -ezNZDFDDDDAZBnvnnnnnnnnnnpX$@@$$$%$$%%%%%",
"oo ooooooooooooooo+oo++ .*<5qqwqq533333366666666,$$$$$$$$%%$%%%%",
"o o oooooooooooo+ooo+oo+o+. . ......X.XXXXXXXX$X$X@$$$$$$$$%%%%%",
"ooooooooooooooooo+o+o+o++o++++@+.@+@@@@@@@@$@@$@$@$$$$$%%%%%%%%%",
"ooooooooooooOoOoo++oo++o+++++++++++@+@@+@@@@@$@$$$$$$$$$$%%%%%&%",
"ooooooooooooooooooo+++o+++++++@+@+@++@@@@@$@@$@@@$$$%$$%%$%%%&%&",
"oooooooooooooooo+o+oo+++o++++@+++@@@@@@@@@@@$@$$$$$$$%%$%%%%%%&&",
"GooooooooooOoooo+o++o+++++++@++@@++@@@@@@@$@@$$$$$$$$%%%%%%%&%&G",
"GooooooooooooOooo+o+++o+++++++@++@@@@@@@@$@$$@$$$$%$$%$%%%%&&&&G",
"GGoooooOooooooOo+oo++++++@+@+@@+@@@@@@@@@@@@$@$$$$$%$%%%%%&%&&GG",
"GGGGoooooo Ooooo+o++o++++++++@+@+@@@@@@@$@$$$$$$$$%$%%%%%&%&GGGG"
};
