/* XPM */
static char *dtool_logo[] = {
/* columns rows colors chars-per-pixel */
"24 24 173 2 ",
"   c #8F2F9A",
".  c #902D99",
"X  c #922D99",
"o  c #902F9A",
"O  c #912F9A",
"+  c #932E9A",
"@  c #922F9A",
"#  c #932F9A",
"$  c #942E9A",
"%  c #952E9A",
"&  c #942F9A",
"*  c #952F9A",
"=  c #962E9A",
"-  c #962F9A",
";  c #8B319B",
":  c #8C319B",
">  c #8D319B",
",  c #8F309B",
"<  c #8E319B",
"1  c #8F319B",
"2  c #90309A",
"3  c #90309B",
"4  c #91309B",
"5  c #90319B",
"6  c #91319B",
"7  c #93309A",
"8  c #92309B",
"9  c #93309B",
"0  c #92319B",
"q  c #93319B",
"w  c #94309A",
"e  c #95309A",
"r  c #94319B",
"t  c #95319B",
"y  c #96309A",
"u  c #96319B",
"i  c #97319B",
"p  c #95339C",
"a  c #92349C",
"s  c #93349C",
"d  c #92349D",
"f  c #96359D",
"g  c #96379E",
"h  c #98319B",
"j  c #99319B",
"k  c #94389F",
"l  c #97389E",
"z  c #963BA0",
"x  c #993BA0",
"c  c #9B43A4",
"v  c #9D43A4",
"b  c #9E44A4",
"n  c #9E46A5",
"m  c #9F47A6",
"M  c #A247A6",
"N  c #A24AA7",
"B  c #A151AA",
"V  c #A351AA",
"C  c #A251AB",
"Z  c #A450AA",
"A  c #A552AB",
"S  c #A652AB",
"D  c #A454AC",
"F  c #A654AC",
"G  c #A754AC",
"H  c #A755AC",
"J  c #A656AD",
"K  c #A757AE",
"L  c #A854AC",
"P  c #A855AC",
"I  c #A955AC",
"U  c #A959AE",
"Y  c #A95AAF",
"T  c #AA5AAF",
"R  c #AB5AAF",
"E  c #AA5BAF",
"W  c #AC5BAF",
"Q  c #A85DB0",
"!  c #A95DB0",
"~  c #AA5DB0",
"^  c #AD60B2",
"/  c #AF68B6",
"(  c #AF6AB7",
")  c #B063B3",
"_  c #B064B4",
"`  c #B165B4",
"'  c #B166B5",
"]  c #B168B6",
"[  c #B069B6",
"{  c #B46BB7",
"}  c #B26CB7",
"|  c #B16CB8",
" . c #B16EB8",
".. c #B36EB9",
"X. c #B874BC",
"o. c #B977BD",
"O. c #B97ABF",
"+. c #BA7CBF",
"@. c #B97DC0",
"#. c #BA7DC0",
"$. c #BA7EC1",
"%. c #BB7FC1",
"&. c #BD80C2",
"*. c #BE84C3",
"=. c #C188C5",
"-. c #C289C6",
";. c #C28AC6",
":. c #C38AC6",
">. c #C28BC7",
",. c #C38BC7",
"<. c #C28CC7",
"1. c #C38CC7",
"2. c #C48CC7",
"3. c #C38DC8",
"4. c #C48DC8",
"5. c #C58DC8",
"6. c #C48EC8",
"7. c #C48FC8",
"8. c #C48FC9",
"9. c #C58FC9",
"0. c #C68FC9",
"q. c #C590C9",
"w. c #C690C9",
"e. c #C790C9",
"r. c #C691CA",
"t. c #C792CA",
"y. c #C693CA",
"u. c #C694CB",
"i. c #C795CB",
"p. c #C995CC",
"a. c #C897CC",
"s. c #C997CC",
"d. c #C998CD",
"f. c #C999CD",
"g. c #CA98CD",
"h. c #CB98CD",
"j. c #CA99CD",
"k. c #C999CE",
"l. c #CA99CE",
"z. c #C99ACE",
"x. c #CA9ACE",
"c. c #CB9ACE",
"v. c #CA9BCE",
"b. c #CB9BCE",
"n. c #CB9BCF",
"m. c #CC9ACE",
"M. c #CB9CCF",
"N. c #CB9DCF",
"B. c #CC9CCF",
"V. c #CC9DCF",
"C. c #CD9DCF",
"Z. c #CB9ED0",
"A. c #CC9ED0",
"S. c #CD9ED0",
"D. c #CD9FD0",
"F. c #CE9FD0",
"G. c #CDA0D1",
"H. c #CEA0D1",
"J. c #CFA4D3",
"K. c #CFA5D3",
"L. c #D0A3D2",
"P. c #D0A4D3",
"I. c #D0A5D3",
"U. c #D1A5D3",
"Y. c #D0A5D4",
"T. c #D0A6D4",
"R. c #D1A6D4",
"E. c #D0A7D4",
"W. c #D1A7D4",
"Q. c #D1A8D5",
"!. c #D2A8D5",
"~. c #D3A8D5",
"^. c None",
/* pixels */
"^.; ; ; : : > > < < 1 1 5 5 6 6 0 0 0 q q q r ^.",
"; ; ; : : > > < < 1 1 1 5 5 6 6 0 0 q q q r r r ",
"; ; : : > > < < < 1 1 5 5 4 o O O @ 9 q r r r r ",
"; : : > > > < < 1 1 5 5 3 c / | } ..n 7 r r r t ",
": : : > > < < 1 1 5 5 6 o ! M.Q.v.l.E + r r t t ",
": : > > < < 1 1 5 3 o o . V 7.v.q.q.A # r t t t ",
": > > < < 1 1 ,   z C D J ~ a.J.W.R.U + t t t t ",
"> > < < 1 1 , k Q %.v.<.k.8.>.s.c.V.F # t t t u ",
"> < < 1 1 , z @.E.E.K.x.T.v.P.U.Y.c.T $ t t u u ",
"< < 1 1 1 d ( Z.u.f.N.3.M.y.w.A.j.r.S & t u u u ",
"< < 1 1   B Z.T.T.T.I.i.x.W.W.D.S.U.U $ t u u u ",
"< 1 1 5 2  .z.z.k.d...m Z 1.n.j.9.S.G & u u u u ",
"1 1 5 5 a $.Q.Y.Y.+.l # X ] j.V.R.b.T % u u u i ",
"1 5 5 6 s *.x.x.G.[ p 9 + H 9.2.D.9.P * u u i i ",
"5 5 6 6 4 #.Q.x.x.A.Y x b -.L.C.U.B.R % u i i i ",
"5 6 6 6 O K v.7.=.c.t.;.6.g.V.4.H.e.L * i i i i ",
"6 6 6 0 8 g O.!.R.I.W.B.c.U.S.g.h.m.R = i i i h ",
"6 6 0 0 q @ n =.l.G.j.r.,.c.p.:.5.0.I - i i h h ",
"6 0 0 q q q 9 v &.c.D.!.C.C.~.F.B.C.W = i h h h ",
"0 0 q q q r r 7 f N ^ o.' _ X.{ ) ` M y h h h h ",
"0 q q q r r r r t w & w e e e y y y i i h h h j ",
"q q q r r r r t t t t u u u u i i i i h h h h j ",
"q q q r r r t t t t u u u u i i i i h h h h j j ",
"^.q r r r r t t t u u u u i i i i h h h h j j ^."
};
