/* XPM */
static char *dtool_logo_small[] = {
/* columns rows colors chars-per-pixel */
"24 24 117 2 ",
"   c #8C2C99",
".  c #8E2D99",
"X  c #8F2D99",
"o  c #8D2F9A",
"O  c #8E2F9A",
"+  c #8F2F9A",
"@  c #902E9A",
"#  c #912E9A",
"$  c #902F9A",
"%  c #912F9A",
"&  c #922E9A",
"*  c #932E9A",
"=  c #942E9A",
"-  c #952F9A",
";  c #8B319B",
":  c #8D309A",
">  c #8C319B",
",  c #8D319B",
"<  c #8F309A",
"1  c #8E309B",
"2  c #8E319B",
"3  c #8F319B",
"4  c #90309A",
"5  c #91309A",
"6  c #90309B",
"7  c #91309B",
"8  c #90319B",
"9  c #91319B",
"0  c #92319B",
"q  c #93319B",
"w  c #93329B",
"e  c #94319B",
"r  c #95319B",
"t  c #96319B",
"y  c #97319B",
"u  c #94329B",
"i  c #95329B",
"p  c #96329B",
"a  c #91359D",
"s  c #93359D",
"d  c #91369D",
"f  c #98319B",
"g  c #99319B",
"h  c #93399F",
"j  c #963BA0",
"k  c #943CA0",
"l  c #963FA2",
"z  c #9742A3",
"x  c #9942A3",
"c  c #9A43A4",
"v  c #9C45A5",
"b  c #9C47A5",
"n  c #9D4BA8",
"m  c #A14FA9",
"M  c #A652AB",
"N  c #A357AD",
"B  c #A75DB0",
"V  c #A861B3",
"C  c #AA60B2",
"Z  c #AB60B2",
"A  c #AC60B2",
"S  c #AD60B2",
"D  c #AD67B5",
"F  c #B06AB7",
"G  c #B06BB7",
"H  c #B16DB8",
"J  c #B16EB8",
"K  c #B372BB",
"L  c #B374BB",
"P  c #B97ABE",
"I  c #B97DC0",
"U  c #B97EC0",
"Y  c #BA80C1",
"T  c #BB80C1",
"R  c #BB81C2",
"E  c #BA82C2",
"W  c #BE86C4",
"Q  c #C390C9",
"!  c #C797CC",
"~  c #C99DCF",
"^  c #CBA0D1",
"/  c #D3ABD6",
"(  c #D2ACD7",
")  c #D5B1D9",
"_  c #D6B2DA",
"`  c #DABBDE",
"'  c #DDBEDF",
"]  c #DCBEE0",
"[  c #DEC0E0",
"{  c #DFC4E2",
"}  c #E0C3E2",
"|  c #E0C4E2",
" . c #E0C4E3",
".. c #E2CAE6",
"X. c #E4CDE7",
"o. c #E5CEE7",
"O. c #E6D0E8",
"+. c #ECDBED",
"@. c #F1E5F2",
"#. c #F2E8F4",
"$. c #F4EAF5",
"%. c #F5ECF6",
"&. c #F6EEF7",
"*. c #F8F2F9",
"=. c #FAF5FA",
"-. c #FBF7FB",
";. c #FCFAFC",
":. c #FCFAFD",
">. c #FDFAFD",
",. c #FDFBFD",
"<. c #FDFCFD",
"1. c #FEFCFE",
"2. c #FEFDFE",
"3. c #FEFEFE",
"4. c #FFFEFF",
"5. c white",
"6. c None",
/* pixels */
"6.; ; ; > > > > , , , 2 2 2 2 3 3 3 8 8 8 8 9 6.",
"; ; ; ; > > > , , , , 2 2 2 3 3 3 8 8 8 8 9 9 9 ",
"; ; ; > > > , , , , 2 2 2 1 O O O + 6 8 9 9 9 0 ",
"; ; > > > , , , , 2 2 2 1 n U Y Y I c 4 9 9 0 0 ",
"; > > > , , , , 2 2 2 3 O L ;.5.5.-.C @ 9 0 0 0 ",
"> > > > , , , 2 2 : O O   K ;.5.5.-.C @ 0 0 0 0 ",
"> > > , , , 2 1 : l N D B W :.5.5.-.C @ 0 0 0 q ",
"> > , , , 2 : k E ..&.=.*.&.3.5.5.-.C # 0 0 q q ",
"> , , , , : z ( -.5.5.5.5.5.5.5.5.-.Z # 0 q q q ",
", , , , 1 d ^ 1.5.5.5.5.5.5.5.5.5.-.Z # 0 q q e ",
", , , 2 o V %.5.5.5.4.<.3.5.5.5.5.-.Z # q q e e ",
", , 2 2 : ~ 5.5.5.>.) J Q $.5.5.5.-.Z & q e e e ",
", 2 2 1 a ] 5.5.5.X.x . 7 ! 3.5.5.-.Z & q e e r ",
"2 2 2 1 h { 5.5.5.` s $ X T <.5.5.-.Z & e e r r ",
"2 2 2 3 3 _ 5.5.5.#.H j m  .5.5.5.-.A * e r r t ",
"2 2 3 3 O R ,.5.5.5.$.{ +.2.5.5.5.-.A * r r t t ",
"2 3 3 3 < b O.5.5.5.5.5.5.5.5.5.5.-.A * r t t t ",
"3 3 3 3 8 < G @.5.5.5.5.5.5.5.5.5.-.S = r t t y ",
"3 3 3 8 8 8 9 F o.,.5.5.5.5.5.5.5.-.S = t t y y ",
"3 3 8 8 8 9 9 $ v P / [ } } } } | ' M - t y y f ",
"3 8 8 8 9 9 9 0 5 % 0 w w u u i p p t t y y f f ",
"8 8 8 9 9 9 0 0 0 0 q q q e e r r t t y y f f f ",
"8 8 9 9 9 9 0 0 0 q q q e e r r t t y y f f f g ",
"6.8 9 9 9 0 0 0 q q q e e r r t t y y y f f g 6."
};
