/* XPM */
static char *dtool_logo[] = {
/* columns rows colors chars-per-pixel */
"24 24 195 2 ",
"   c #8A2E99",
".  c #892E9A",
"X  c #8B2E9A",
"o  c #8A2F9A",
"O  c #8C2F9A",
"+  c #8D2F9A",
"@  c #8E2F9A",
"#  c #8F2F9A",
"$  c #912D99",
"%  c #932D99",
"&  c #902E9A",
"*  c #902F9A",
"=  c #912F9A",
"-  c #932E9A",
";  c #922F9A",
":  c #952E99",
">  c #962E99",
",  c #972E9A",
"<  c #992E9A",
"1  c #9A2E9A",
"2  c #9B2F9A",
"3  c #9C2E9A",
"4  c #9C2F9A",
"5  c #9D2F9A",
"6  c #9E2F9A",
"7  c #9F2F9A",
"8  c #8A309A",
"9  c #8A309B",
"0  c #8B309B",
"q  c #8B319B",
"w  c #8B329B",
"e  c #8C309A",
"r  c #8D309B",
"t  c #8C319B",
"y  c #8D319B",
"u  c #8E319B",
"i  c #8F319B",
"p  c #8C329B",
"a  c #8C339C",
"s  c #8E329C",
"d  c #8D349D",
"f  c #8E369E",
"g  c #8F389F",
"h  c #90309B",
"j  c #90319B",
"k  c #91319B",
"l  c #92319B",
"z  c #93319B",
"x  c #94319B",
"c  c #95319B",
"v  c #96319B",
"b  c #97319B",
"n  c #91359D",
"m  c #98319B",
"M  c #99319B",
"N  c #9A319B",
"B  c #9B319B",
"V  c #9C319B",
"C  c #9D319B",
"Z  c #9E319B",
"A  c #9F319B",
"S  c #A1309B",
"D  c #A0319B",
"F  c #A1319B",
"G  c #A2319B",
"H  c #A3319B",
"J  c #A4319B",
"K  c #A5319B",
"L  c #A6319B",
"P  c #A7319B",
"I  c #A8319B",
"U  c #A9319B",
"Y  c #AA319B",
"T  c #AB319B",
"R  c #AC319B",
"E  c #AD319B",
"W  c #AE319B",
"Q  c #AF319B",
"!  c #913CA0",
"~  c #933CA0",
"^  c #923CA1",
"/  c #943CA1",
"(  c #9340A2",
")  c #9543A4",
"_  c #9644A4",
"`  c #9746A5",
"'  c #9840A2",
"]  c #9948A6",
"[  c #9949A7",
"{  c #994AA7",
"}  c #9A4AA7",
"|  c #9C4EA9",
" . c #9F55AC",
".. c #A640A2",
"X. c #A056AD",
"o. c #A157AE",
"O. c #A459AF",
"+. c #A559AF",
"@. c #A659AE",
"#. c #A45AAF",
"$. c #A85BAF",
"%. c #AE59AE",
"&. c #AF59AE",
"*. c #B159AE",
"=. c #B059AF",
"-. c #A35CB0",
";. c #AE5DB0",
":. c #AA61B2",
">. c #AD61B2",
",. c #AB6BB7",
"<. c #B164B4",
"1. c #B367B5",
"2. c #B567B5",
"3. c #B766B4",
"4. c #B667B5",
"5. c #B168B6",
"6. c #B36AB7",
"7. c #B56CB7",
"8. c #B06DB8",
"9. c #B277BD",
"0. c #B875BC",
"q. c #B67CBF",
"w. c #B879BE",
"e. c #BB7CC0",
"r. c #BA84C3",
"t. c #BA85C4",
"y. c #BB87C4",
"u. c #BD87C5",
"i. c #BC88C5",
"p. c #C395CB",
"a. c #C496CC",
"s. c #C497CC",
"d. c #C89BCF",
"f. c #C9A0D1",
"g. c #CFA9D5",
"h. c #CFAAD6",
"j. c #D3B0D9",
"k. c #D7B6DB",
"l. c #D7B7DC",
"z. c #D9BADD",
"x. c #DBBFE0",
"c. c #DDC2E1",
"v. c #DEC2E1",
"b. c #DEC4E2",
"n. c #DFC6E3",
"m. c #E1C1E1",
"M. c #E3C5E3",
"N. c #E0C6E3",
"B. c #E0C8E4",
"V. c #E1C8E4",
"C. c #E0C9E4",
"Z. c #E1C9E4",
"A. c #E2CBE5",
"S. c #E4CAE5",
"D. c #E7CEE7",
"F. c #E6D1E9",
"G. c #E6D2E9",
"H. c #E6D3E9",
"J. c #E7D5EB",
"K. c #E8D5EA",
"L. c #E8D5EB",
"P. c #E9D8EC",
"I. c #ECD9ED",
"U. c #EBDCEE",
"Y. c #EDDFEF",
"T. c #EEE0F0",
"R. c #EFE0F0",
"E. c #EFE2F1",
"W. c #F0E5F2",
"Q. c #F1E5F3",
"!. c #F1E6F3",
"~. c #F2E8F4",
"^. c #F3E8F4",
"/. c #F3EAF5",
"(. c #F4EBF5",
"). c #F6EDF6",
"_. c #F7EEF7",
"`. c #F6EFF7",
"'. c #F7F0F8",
"]. c #F7F1F8",
"[. c #F9F4FA",
"{. c #FAF5FA",
"}. c #FAF6FB",
"|. c #FBF6FB",
" X c #FBF8FC",
".X c #FCF9FC",
"XX c #FCFAFC",
"oX c #FCFAFD",
"OX c #FDFCFD",
"+X c #FDFCFE",
"@X c #FEFDFE",
"#X c #FEFEFE",
"$X c #FFFEFF",
"%X c #FFFFFF",
"&X c None",
/* pixels */
"&Xq q q q q q q q q q q q q q q q q q t t y u &X",
"q q q q q q q q q q q q q 0 8 8 8 9 q t y u i i ",
"q q q q q q q q q q q q p ,.i.y.y.r.] e u i i j ",
"q q q q q q q q q q q q a s.A.C.Z.b.#.O u i j k ",
"q q q q q q q q q 0 o o p p.C.n.n.c.O.+ i j k l ",
"q q q q q q q o 9 ! [ { ( a.B.n.n.c.O.@ j k l z ",
"q q q q q 0 0 X.f.G.Q.!.J.P.H.n.n.v.+.@ j l z c ",
"q q q q 0 d t.~.%X%X%X%X%X%XoXT.V.v.+.# k z c v ",
"q q q q q i.}.%X%X%X%X%X%X%X%X#XE.v.@.* l x v b ",
"q q q . -./.%X%X%X%X%X%X%X%X%X%XOXG.@.= x v b M ",
"q q q w h.%X%X%X%X@X~.!.OX%X%X%X%X^.$.; c b M N ",
"q q 8 ) U.%X%X%X@Xg.| } d.XX%X%X%X[.>.- b m N V ",
"q q o  .`.%X%X%XY.`   X / F.%X%X%X.X5.: m N B C ",
"q q . o.].%X%X%XL.^ e r n N.%X%X%XXX6.> M B C Z ",
"q q o { W.%X%X%X}.q.s u 8.`.%X%X%X|.<., B V Z D ",
"q q 0 f x.%X%X%X%X'.z.k.(.%X%X%X%X).;.< V Z D F ",
"q q q . 9. X%X%X%X%X%X%X%X%X%X%X$XI.%.2 C A F H ",
"q q q 0 g j.%X%X%X%X%X%X%X%X%X%X).M.&.4 A F H K ",
"q q q q o _ l.OX%X%X%X%X%X%X$X_.D.m.=.5 D G K P ",
"q q q q t O ~ u.K.{.#X$X+X[.R.S.M.m.*.7 G J P U ",
"q q q q t y r @ ' :.w.e.0.7.1.2.4.3...S J L U T ",
"q q q t y u i i h & $ % : , < 1 3 6 S H L I T E ",
"q q t y u u i j k z x v m M B C A F H K I Y E Q ",
"&Xt y y u i j k l x v b M B V Z D G J P U R W &X"
};
