/* XPM */
static char *dtool_logo_small[] = {
/* columns rows colors chars-per-pixel */
"16 16 94 2 ",
"   c #8D2F9A",
".  c #8E2F9A",
"X  c #902E9A",
"o  c #912E9A",
"O  c #902F9A",
"+  c #922E9A",
"@  c #932E9A",
"#  c #922F9A",
"$  c #942E9A",
"%  c #952E9A",
"&  c #942F9A",
"*  c #8B319B",
"=  c #8D309A",
"-  c #8C319B",
";  c #8D319B",
":  c #8E309B",
">  c #8E319B",
",  c #8F319B",
"<  c #90309A",
"1  c #91309B",
"2  c #90319B",
"3  c #91319B",
"4  c #92309A",
"5  c #92319B",
"6  c #93319B",
"7  c #94319B",
"8  c #95319B",
"9  c #96309B",
"0  c #96319B",
"q  c #97319B",
"w  c #90339C",
"e  c #91339C",
"r  c #93379E",
"t  c #98319B",
"y  c #99319B",
"u  c #93389E",
"i  c #953CA0",
"p  c #973DA1",
"a  c #9B3BA0",
"s  c #9741A3",
"d  c #9742A3",
"f  c #9A43A4",
"g  c #9E47A6",
"h  c #9D49A7",
"j  c #9E4AA7",
"k  c #A256AD",
"l  c #AA59AE",
"z  c #A85CB0",
"x  c #A95CB0",
"c  c #A85DB0",
"v  c #AA5CB0",
"b  c #AB5CB0",
"n  c #AA5EB1",
"m  c #AC5EB1",
"M  c #AB63B3",
"N  c #AD62B3",
"B  c #AE62B3",
"V  c #AD65B4",
"C  c #B170BA",
"Z  c #B273BB",
"A  c #C18CC7",
"S  c #C28EC8",
"D  c #C390C9",
"F  c #C391C9",
"G  c #C592CA",
"H  c #C595CB",
"J  c #C99BCF",
"K  c #CB9ED0",
"L  c #CDA1D1",
"P  c #CEA4D3",
"I  c #CFA7D4",
"U  c #D7B5DB",
"Y  c #DDBFE0",
"T  c #DEC3E2",
"R  c #DFC4E2",
"E  c #E8D4EA",
"W  c #EBDAED",
"Q  c #ECDBEE",
"!  c #EFDFF0",
"~  c #EFE1F1",
"^  c #F0E2F1",
"/  c #F3E9F4",
"(  c #F3E9F5",
")  c #F4EBF5",
"_  c #F5EDF6",
"`  c #F6EEF7",
"'  c #F7EFF8",
"]  c #F7F0F8",
"[  c #FBF8FC",
"{  c #FCF9FC",
"}  c #FDFBFD",
"|  c #FEFEFF",
" . c #FFFEFF",
".. c #FFFFFF",
/* pixels */
"- * * - - ; ; > > > , , 2 2 3 3 ",
"* * - - ; ; ; > > w w e 2 3 3 3 ",
"* - - - ; ; > > u A I J h O 3 5 ",
"- - - ; ; =   . i E ..` c X 5 5 ",
"- - ; ;   s C F D ^ ..` z X 5 6 ",
"- ; ;   k T [ ..|  ...` x o 6 6 ",
"; ; = d R ............` x o 6 7 ",
"; >   Z { ..( P Y } ..` x # 6 7 ",
"> > > H ....K 1 j ~ ..` v + 7 8 ",
"> > : S ....U f V ) ..` v @ 8 8 ",
"> , . M ] ..{ Q /  ...` b @ 8 0 ",
", , , r L } ..........` b $ 0 q ",
", , 2 < p G W _ ] ' ] ! l % q q ",
", 2 2 3 1 5 g n N N B m a 9 q t ",
"2 2 3 3 5 5 4 # + @ $ & 9 q t t ",
"2 3 3 5 5 5 6 6 7 8 0 0 q t t y "
};
