/* XPM */
static char *dtool_logo[] = {
/* columns rows colors chars-per-pixel */
"16 16 113 2 ",
"   c #8F2F9A",
".  c #922E99",
"X  c #902F9A",
"o  c #932F9A",
"O  c #942F9A",
"+  c #952F9A",
"@  c #962F9A",
"#  c #8B319B",
"$  c #8C319B",
"%  c #8D319B",
"&  c #8F309A",
"*  c #8F309B",
"=  c #8E319B",
"-  c #8F319B",
";  c #90309A",
":  c #91309A",
">  c #90319B",
",  c #91319B",
"<  c #93309A",
"1  c #92319B",
"2  c #93319B",
"3  c #94309B",
"4  c #95309B",
"5  c #94319B",
"6  c #95319B",
"7  c #96309B",
"8  c #97309B",
"9  c #96319B",
"0  c #97319B",
"q  c #95349C",
"w  c #94369E",
"e  c #95379E",
"r  c #98319B",
"t  c #99319B",
"y  c #99359D",
"u  c #98369E",
"i  c #94389E",
"p  c #953A9F",
"a  c #993BA0",
"s  c #9B3FA2",
"d  c #9D3EA1",
"f  c #9D3FA2",
"g  c #9E3FA2",
"h  c #9D41A3",
"j  c #9E41A3",
"k  c #9B46A5",
"l  c #9E45A5",
"z  c #9F48A6",
"x  c #A34BA8",
"c  c #A44BA8",
"v  c #A24CA8",
"b  c #A34DA9",
"n  c #A44DA8",
"m  c #A54DA8",
"M  c #A44DA9",
"N  c #A450AA",
"B  c #A455AD",
"V  c #A557AD",
"C  c #AB5DB0",
"Z  c #AE64B4",
"A  c #AE65B4",
"S  c #AE66B5",
"D  c #AE67B5",
"F  c #AF67B5",
"G  c #AF68B6",
"H  c #B06BB7",
"J  c #B673BB",
"K  c #B878BD",
"L  c #BA7ABF",
"P  c #BA7CC0",
"I  c #BC82C2",
"U  c #BE83C3",
"Y  c #BF84C3",
"T  c #BE85C4",
"R  c #BF86C4",
"E  c #C186C4",
"W  c #C48AC6",
"Q  c #C58DC8",
"!  c #C58EC8",
"~  c #C68FC9",
"^  c #C791C9",
"/  c #C691CA",
"(  c #C791CA",
")  c #C792CA",
"_  c #C693CA",
"`  c #C793CB",
"'  c #C794CB",
"]  c #C995CC",
"[  c #C896CC",
"{  c #C996CC",
"}  c #CA97CD",
"|  c #C998CD",
" . c #C999CD",
".. c #CA98CD",
"X. c #CA99CD",
"o. c #CA99CE",
"O. c #CA9ACE",
"+. c #CB9ACE",
"@. c #CB9BCE",
"#. c #CA9BCF",
"$. c #CC9BCF",
"%. c #CB9DCF",
"&. c #CC9CCF",
"*. c #CC9DCF",
"=. c #CD9DCF",
"-. c #CB9DD0",
";. c #CC9ED0",
":. c #CC9FD0",
">. c #CD9FD0",
",. c #CD9FD1",
"<. c #CDA0D1",
"1. c #CEA1D2",
"2. c #CDA2D2",
/* pixels */
"# # $ $ % = = - > , , 1 2 2 5 5 ",
"# # $ % = = - > > , 1 2 2 5 5 5 ",
"# $ % % = - > > w H P K l < 5 6 ",
"$ % % = - * & ; e U >./ v o 6 6 ",
"% % = - * i B D G R >.;.b O 6 6 ",
"% = - * k T ;.#.;. .<.X.b O 6 9 ",
"= - * p I <.:.o.%.O.;.| x O 9 9 ",
"= -   V -.,.' F J >.X.@.M + 9 9 ",
"- > ; G 2.<.Z . a E +.| n + 9 0 ",
"> > X S <.X.L s N ) $...n + 0 0 ",
"> , : z _ [ &.! ` =...} n @ 0 0 ",
", 1 1 2 A *.1.+.{ $.^ ( m @ 0 r ",
"1 1 2 2 q C Y { Q ] ~ W c @ r r ",
"1 2 2 5 5 3 u h f j g d y r r r ",
"2 2 5 5 5 6 6 4 7 7 8 8 0 r r t ",
"2 5 5 5 6 6 9 9 9 0 0 0 r r t t "
};
