/* XPM */
static char *dtool_logo[] = {
/* columns rows colors chars-per-pixel */
"16 16 144 2 ",
"   c #882997",
".  c #892D99",
"X  c #892E99",
"o  c #892E9A",
"O  c #8A2F9A",
"+  c #8D2F9A",
"@  c #8F2E9A",
"#  c #8E2F9A",
"$  c #8F2F9A",
"%  c #912E9A",
"&  c #912F9A",
"*  c #932F9A",
"=  c #942F9A",
"-  c #952F9A",
";  c #962E9A",
":  c #962F9A",
">  c #992E9A",
",  c #992F9A",
"<  c #9B2F9A",
"1  c #9D2F9A",
"2  c #9F2F9A",
"3  c #8A309A",
"4  c #8A309B",
"5  c #8B309B",
"6  c #8B319B",
"7  c #8C309A",
"8  c #8D309B",
"9  c #8C319B",
"0  c #8D319B",
"q  c #8E319B",
"w  c #8F319B",
"e  c #8C329C",
"r  c #8C339C",
"t  c #90319B",
"y  c #91319B",
"u  c #92319B",
"i  c #93319B",
"p  c #94319B",
"a  c #95319B",
"s  c #96319B",
"d  c #97319B",
"f  c #90359D",
"g  c #98319B",
"h  c #99319B",
"j  c #9A319B",
"k  c #9B319B",
"l  c #9C309A",
"z  c #9C319B",
"x  c #9D319B",
"c  c #9E309A",
"v  c #9E319B",
"b  c #9F319B",
"n  c #A1319B",
"m  c #A2309A",
"M  c #A2319B",
"N  c #A3319B",
"B  c #A4319B",
"V  c #A5319B",
"C  c #A6319B",
"Z  c #A7319B",
"A  c #A8319B",
"S  c #A9319B",
"D  c #AA319B",
"F  c #AC319B",
"G  c #AD319B",
"H  c #AF319B",
"J  c #923DA1",
"K  c #933EA1",
"L  c #933FA2",
"P  c #9543A4",
"I  c #9745A4",
"U  c #9848A6",
"Y  c #9C4FA9",
"T  c #9F51AB",
"R  c #A843A4",
"E  c #A151AA",
"W  c #A051AB",
"Q  c #A151AB",
"!  c #A351AB",
"~  c #A056AD",
"^  c #A757AE",
"/  c #AB50AA",
"(  c #AD52AB",
")  c #AB54AC",
"_  c #A35CB0",
"`  c #AD5BB0",
"'  c #AD5EB1",
"]  c #A661B2",
"[  c #A863B3",
"{  c #AA62B3",
"}  c #AC67B5",
"|  c #AB69B6",
" . c #AB6AB7",
".. c #AD6EB8",
"X. c #B67CBF",
"o. c #B67DC0",
"O. c #C27FC1",
"+. c #BA85C4",
"@. c #BE88C5",
"#. c #C384C3",
"$. c #C68DC8",
"%. c #C694CB",
"&. c #CC9CCF",
"*. c #C9A0D1",
"=. c #CFA4D3",
"-. c #CDA6D4",
";. c #D0ACD7",
":. c #D2AFD8",
">. c #DABDDF",
",. c #DABEDF",
"<. c #DBBEDF",
"1. c #DBBFDF",
"2. c #DFC4E2",
"3. c #DFC7E3",
"4. c #E1C1E1",
"5. c #E0C8E4",
"6. c #E2CAE5",
"7. c #E2CBE6",
"8. c #E2CCE6",
"9. c #E8D1E8",
"0. c #ECDDEE",
"q. c #EDDDEE",
"w. c #ECDEEF",
"e. c #EDDFF0",
"r. c #EDE0F0",
"t. c #EEE0F0",
"y. c #EFE0F0",
"u. c #F1E5F2",
"i. c #F1E5F3",
"p. c #F4E9F4",
"a. c #F4ECF6",
"s. c #F5EDF6",
"d. c #F6EFF7",
"f. c #F7F1F8",
"g. c #F9F3F9",
"h. c #F9F4FA",
"j. c #FBF8FC",
"k. c #FDFAFD",
"l. c #FDFCFD",
"z. c #FDFCFE",
"x. c #FEFCFE",
"c. c #FEFEFE",
"v. c #FFFEFF",
"b. c #FFFFFF",
/* pixels */
"6 6 6 6 6 6 6 6 5 o o o 5 9 q w ",
"6 6 6 6 6 6 6 4 J | .. .K 8 w t ",
"6 6 6 6 6 6 3 X Y ,.5.1.T + t y ",
"6 6 6 6 O e P U _ >.3.<.W # y i ",
"6 6 6 3 ~ ;.0.i.w.e.8.<.Q $ u a ",
"6 6 O ] r.b.b.b.b.b.d.2.E & p d ",
"6 4 L 7.b.b.b.c.b.b.b.q.! * s h ",
"6 o  .j.b.l.:.X.6.b.b.d.^ - g k ",
"6 . +.b.b.t.I   } j.b.h.' ; j x ",
"6 X o.v.b.s.[ f @.z.b.g.` > x b ",
"6 O ~ a.b.b.u.6.f.b.b.p.) < b n ",
"6 6 r *.c.b.b.b.b.b.x.9./ 1 n B ",
"6 6 3 K -.g.b.b.b.k.y.4.( 2 N Z ",
"6 6 9 7 f { %.=.&.$.#.O.R m C D ",
"6 6 9 q w @ % = : , l c M C S G ",
"6 9 0 w t y p s h z v n V A F H "
};
