/* XPM */
static char *dtool_logo[] = {
/* columns rows colors chars-per-pixel */
"48 48 61 1 ",
"  c #8B2F9A",
". c #932E9A",
"X c #9B2F9A",
"o c #8C319B",
"O c #8F399F",
"+ c #93319B",
"@ c #9C319B",
"# c #90389E",
"$ c #A3319B",
"% c #AB319B",
"& c #B0319B",
"* c #923DA1",
"= c #9542A3",
"- c #9A45A5",
"; c #9848A6",
": c #9B4DA8",
"> c #9E53AB",
", c #A156AD",
"< c #A35AAF",
"1 c #B45FB1",
"2 c #A661B2",
"3 c #A965B4",
"4 c #AC6AB7",
"5 c #AD6EB8",
"6 c #AF70BA",
"7 c #B476BC",
"8 c #BD76BC",
"9 c #B57CBF",
"0 c #BB7ABF",
"q c #B77FC1",
"w c #BD83C3",
"e c #BD89C6",
"r c #C38AC6",
"t c #C68FC9",
"y c #C492CA",
"u c #CA94CB",
"i c #C79ACE",
"p c #CC9BCE",
"a c #CCA3D2",
"s c #CFA9D5",
"d c #D1A6D4",
"f c #D1ABD6",
"g c #D2AFD8",
"h c #D5B2DA",
"j c #D9B7DC",
"k c #D7B9DD",
"l c #DABBDE",
"z c #DBBFE0",
"x c #DFC6E3",
"c c #E1C6E3",
"v c #E2C9E4",
"b c #E6D2E9",
"n c #E9D6EB",
"m c #EBDBED",
"M c #EDDFF0",
"N c #EFE2F1",
"B c #F1E5F2",
"V c #F4EBF5",
"C c #F9F5FA",
"Z c #FFFFFF",
"A c None",
/* pixels */
"AAoooooooooooooooooooooooooooooooooooooooooo+oAA",
"Aooooooooooooooooooooooooooooooooooooooooooooo+A",
"ooooooooooooooooooooooo ooooooooooooooooooooo++o",
"ooooooooooooooooooooooo ooo         oooo+oooo+o+",
"oooooooooooooooooooooooooo=>O>>>>>>>=oo+oo+o+oo+",
"oooooooooooooooooooooooooo5zkkzzlxlx7 ooo+o+o++o",
"ooooooo oooooooooooooooooo6xxxxxxcxx7 oooo+o++o+",
"oooooooooooooooooooooooooo6xxxxxxxxx7 o++oo+o+++",
"oo ooooooooooooooooooooooo6xxxxxxxxx7ooo+o+o++++",
"oooooooooooooooooooo ooooo6xxxxxxxxx7o+ooo++o+++",
"oooooooooooooooooooo  oooo2xxxxxxxxv7 +o+o+o++++",
"oooooooooooooooooooO=;:=Oo2xxxxxxxxx7oo++++o++++",
"oo   ooooooooooo=6sxmBVNbgsxxxxxxxxc7 o+oo++++++",
"ooooooooooooo =ebCCCZZZZCCCCMxxxxxxv7 +o++++++@+",
"ooooooooooooo<xCZZZZZZZZCCCCVNMxxxcc7.o+++o+++++",
"oooooooooooowMVCZZZZZZZZCCCVVNMMvccv7 ++o+++++@@",
"ooooooooooowCZZZZZZZZZZZZZZZZZZZBvxv7 ++++++@+@+",
"oooooooooo4VZZZZZZZZZZZZZZZZZZZZZNcc7.o++++++++@",
" ooooo oo;nZZZZZZZZZZZZZZZZZZZZZZCbx7 +++++++@+@",
"oooooo ooiZZZZZZZZZZZZZZZZZZZZZZZZVv7++++++@@.@@",
"ooooooo ;NZZZZZZZZZZZZZZZZZZZZZZZZZn7.+++@++@@+@",
"ooooooo eZZZZZZZZZZZCmmVZZZZZZZZZZZV8.++++@++@@@",
"oooooooOzZZZZZZZZZZk<=O>aCZZZZZZZZZC0.++@+@@@@@@",
"ooooooo=NZZZZZZZZZsOoooooeZZZZZZZZZZw.+++@+@@@@@",
"ooooooo>CZZZZZZZZB: ooooo*vZZZZZZZZZr.+@@+@@@@@@",
"ooooooo2CZZZZZZZZzoooooo+oiZZZZZZZZZy.+@+@+@@@@@",
"o  oooo5ZZZZZZZZZhoo+oo+o eZZZZZZZZZu.@+@@@@@$@$",
"oo oooo2CZZZZZZZZx#oooooo+aZZZZZZZZZt..@@@@@@@@$",
"ooooooo>CZZZZZZZZC3 o+o. :mZZZZZZZZZrX@@+@@@@$@@",
"oooooooOnZZZZZZZZZb,    -kZZZZZZZZZZw+++@@@@@@$$",
"oooooooohZZZZZZZZZZMi33wbZZZZZZZZZZC8X@@@@@$@$$$",
"oooooooo7CZZZZZZZZZZZCCZZZZZZZZZZZZB8.@@@$@@$@$$",
"ooooooooOxCCCCCCZZZZZZZZZZZZZZZZZZCn8.@@@@@@$$$$",
"ooooooooo9VVCCCCZZZZZZZZZZZZZZZZZZBv8X@@@$$@$$$$",
"oooooooooOgVZZZZZZZZZZZZZZZZZZZZZCvv8X@X@$@$$$$$",
"oooooooooo;bZZZZZZZZZZZZZZZZZZZZCncv8X$X$@$$$$$$",
"ooooooooooo<nZZZZZZZZZZZZZZZZZZCmccc8&X$X$$$$$%%",
"ooooooooooo >xZZZZZZZZZZZZZZZZCncccv8$X$$$$$%$%$",
"oooooooooooo =iVZZZZZZZZZZZZZVvccvcv8X$$$$$$$$$%",
"ooooooooooooooo>aMCZZZZZZZCVnvvvvvvv8$X$@$$$%%%%",
"oooooooooooooo+  -4yfjljhfpuuuuuuuuu1X$$$$$%%%%%",
"oooooooooo+o+oo++ ...+++@++@@@@@@@$@$@$$$$$$$%%%",
"oooooooooooooo+oo+++++++++@+@+@@$@@$$$$$$%$%%%%%",
"oooooooo+o+o++o++o+o+++++@+@@@@@$@@$$@$$%$%%%%%&",
"oooooo+oooooo+o+++++++++@@@+@@@@@@$$$$$$$%%%%%&&",
"oooooooo+o+++oo+o+++++@@@+@@@@@@@$@$$$$%%%%%%&&&",
"Aoooooo+oo+o+o+++++@+@@+@@@@@$@$$@$$$%%$%%%%%&&A",
"AAooooooo+o+o+o++++++++@++@@@@@@@$$$$$$%$%%%&&AA"
};
