/* XPM */
static char *dtool_logo[] = {
/* columns rows colors chars-per-pixel */
"48 48 44 1 ",
"  c #8F2F9A",
". c #932E9A",
"X c #8E319B",
"o c #94319B",
"O c #98319B",
"+ c #96389E",
"@ c #983A9F",
"# c #973BA0",
"$ c #9B3DA1",
"% c #9C43A4",
"& c #A145A5",
"* c #A049A7",
"= c #A34DA9",
"- c #A454AC",
"; c #A856AD",
": c #A758AE",
"> c #A95AAF",
", c #AA5DB0",
"< c #AD63B3",
"1 c #B066B4",
"2 c #B26BB7",
"3 c #B36DB8",
"4 c #B573BB",
"5 c #B875BC",
"6 c #B778BD",
"7 c #BA7ABF",
"8 c #BC7EC0",
"9 c #BE83C3",
"0 c #C085C4",
"q c #C28AC6",
"w c #C48EC8",
"e c #C692CA",
"r c #C896CC",
"t c #CB9ACE",
"y c #CD9ED0",
"u c #CEA2D2",
"i c #D1A5D3",
"p c #D3ABD6",
"a c #D5AFD8",
"s c #D7B2DA",
"d c #D9B5DB",
"f c #DBBADE",
"g c #DEBEE0",
"h c None",
/* pixels */
"hhhXXXXXXXXXXXXXXXXXXX+XXXXoXoXooXooooooooooohhh",
"hXXXXXXXXXXXXXXXXXXXXXXXXXXooXoXXooXXooooXooooOh",
"hXXXXXXXXXXXXXXXXXXXXXXX+XoXoXoXooXooooooooooooh",
"XXXXXXXXXXXXXXXXXXXXXXXXXXXoooXoXooooooXoooooooo",
"XXXXXXXXXXXXXXXXXXXXXXXXoXXoXooXoooooooooooooooo",
"XXXXXXXXXXXXXXXXXXXXXXXXXXoXoXooXooXoXoooooooooO",
"XXXXXXXXXXXXXXXXXXXXXXXXoXo+X#o%@@##OXooooooooOo",
"XXXXXXXXXXXXXXXXXXXXXXXXooX69s8durup6ooooooooooo",
"XXXXXXXXXXXXXXXXXXXXXoXoXo e9spes9pr9oOoooooooOo",
"XXXXXXXXXXXXXXXXoXooXXoXoXXe9aprd6uq9.ooooooOooo",
"XXXXXXXXXXXXXXXXXXoXooXoXoX3<e4sr,q83.oooooOoo.O",
"XXXXXXXXXXXXXXXXXoXXoXoXooo4puwtd5yd<ooooooooOoo",
"XXXXXXXXXXXXXXXXooX.XXXXoXX:s9sswssr9.oooooOooOO",
"XXXXXXXXXXXXXXXXXX+%<42964,:s6psessr9.ooOooooOoo",
"XXXXXXXXXXXXXXXXXX<4tf<e6su:e2eed6rs<.ooooOooooO",
"XXXXXXXXXXXXXXXX1ed4td8s6sp9i9d9qsqa3.oOoOoooOoo",
"XXXXXXXXXXXXXX-9sd9ddt9fiua9fa9fswat0OOoOoOooOoO",
"XXXoXXXXXXXXX%p9sd9sg99suup6sa9fdqiw0.OOooOooOOo",
"XXXXoXXoXXXX%3tg99g8ig299si,99g90f883O..oOooOoOo",
"XXXXXXXXXXXX999g99f39d9a9p9pt9g9tqra<.O.oooOoOoO",
"XXXXXoXXXXX-9fs9sd9fftus9fstfs9fepst0.O.oOoOoOOo",
"XXXXXXXoXXXr9ds9ss9af99u4sa9fs9a0par9.O.OoOoOooO",
"oXoXXoXXXXX9g99d9uf9it:-%99f99f95qyd1..OoOoOoOoo",
"XXXXXXooXX:s99d49s9u-XXXX%:g9uut7s0p2.O.OoOoOoOO",
"XXXXooXoo <tssuasuet#oooXX@sqf0dseau0O.OoOoOoOOO",
"oXXoXXXXXo39ss9aat9-ooooooot6a3ss0iq8OOOOoOoOOoo",
"XoXXoXooX 6f8id9pd<%ooooooX93t1twg075OOOoOoOoOOO",
"XXXoXXoXX 2p1ar9ep43ooooooo,pr0r7g7y3OOOOoOoOOOo",
"XXXooXoXoX-gptdepuup@.OOOO>tidwdsrai0.OOoOoOOOoO",
"ooXXXoXooX%sp9s8teup8>@O@&iaea5ss0iw0.o.OoOOoOOO",
"XoXoooooXo#e9gt3999sd5yq1aa7fp<trfq86.OooOoOOOOo",
"XXXoXXoXoXX<9a4tu<uu3ttwqi99s7tqruqt3.oOOoOOoOOO",
"oXooXooooXX%6supaipsiudwdtpduyf0gwai0OOOOOOOOOOO",
"XooXoXoXooooOuuuuprpaea5p8pawqi5a5iq7OOOOOOOOOOO",
"oXXoooXoooXo 99ds9fs8fa1t7epf5t2i2r05OOOOOOO.OOO",
"XoXoXoooooooo@,qu<pr4u5y0w0y8wt5y0wr1OOOOOOO.OOO",
"oXXooXXoooooo.@:fupsefaysuudyasegrai0OOOOOOOOOOO",
"XoooooooXoooooo.-9ep5sa0p0wtiyi7a5i00OOOOOOOOOOO",
"oXoXoooooooooooo.O&71irft7qrwff1i2t07OOOOOOOOOOO",
"oooooXooooooooooOO..@$$-$$&&$==O&&&&&OOOOO.OOOOO",
"oooooooooooooooooOooo.o.Oo.oO..OO.OOOOOOOOOOOOOO",
"XXoooooXoooooooooooOoOoOoOOoOoOoOOOOOOOOOO.OOOOO",
"oooXXooooooooooOOoOoooOoOooOoOOOO.OOOOOOOOOOOOOO",
"ooooooooooooooooooooOooOoOOoOoOoOOOOOOOOOOOOOOOO",
"oooooooooooooooOoOooooOoOoOooOOOOOOOOOOOOOOOOOOO",
"hoXoooooooooOooooooOOOoOoOoOOOoOO.OOOOOOOOOOOOOh",
"hooooOooooooooOooOoOoOOoOoOOoOOOOOOOOOOOOOOOOOOh",
"hhhooooooooOoOooO.ooOooOoOoOOOOOOOOOOOOOOOOOOhhh"
};
