/* XPM */
static char *dtool_logo_small[] = {
/* columns rows colors chars-per-pixel */
"48 48 174 2 ",
"   c #8D2B98",
".  c #8F2D99",
"X  c #8D2E99",
"o  c #8D2E9A",
"O  c #8D2F9A",
"+  c #8E2E9A",
"@  c #8F2E9A",
"#  c #8E2F9A",
"$  c #8F2F9A",
"%  c #902D99",
"&  c #912D99",
"*  c #922D99",
"=  c #932D99",
"-  c #902E99",
";  c #912E99",
":  c #922E99",
">  c #932E99",
",  c #912E9A",
"<  c #902F9A",
"1  c #912F9A",
"2  c #952F9A",
"3  c #8B319B",
"4  c #8D309A",
"5  c #8C319B",
"6  c #8D319B",
"7  c #8E309A",
"8  c #8F309A",
"9  c #8E309B",
"0  c #8F309B",
"q  c #8E319B",
"w  c #8F319B",
"e  c #8F349C",
"r  c #90309A",
"t  c #91309A",
"y  c #90309B",
"u  c #91309B",
"i  c #90319B",
"p  c #91319B",
"a  c #92319B",
"s  c #93319B",
"d  c #91329B",
"f  c #92329B",
"g  c #95309A",
"h  c #94319B",
"j  c #95319B",
"k  c #96319B",
"l  c #97319B",
"z  c #90339C",
"x  c #92339C",
"c  c #90349C",
"v  c #91349C",
"b  c #92349C",
"n  c #92349D",
"m  c #93349D",
"M  c #92369E",
"N  c #98319B",
"B  c #99319B",
"V  c #95389E",
"C  c #95399F",
"Z  c #943A9F",
"A  c #953A9F",
"S  c #943AA0",
"D  c #9841A3",
"F  c #9843A4",
"G  c #9A42A4",
"H  c #9B43A4",
"J  c #9945A5",
"K  c #9A44A4",
"L  c #9B45A5",
"P  c #9C45A5",
"I  c #9B48A6",
"U  c #9C48A6",
"Y  c #9C49A7",
"T  c #9E49A7",
"R  c #A153AB",
"E  c #A155AC",
"W  c #A355AC",
"Q  c #A255AD",
"!  c #A454AC",
"~  c #A957AE",
"^  c #A758AE",
"/  c #A75EB1",
"(  c #A85CB0",
")  c #A95DB1",
"_  c #A85FB1",
"`  c #A95FB1",
"'  c #AB60B2",
"]  c #AB62B3",
"[  c #AD64B4",
"{  c #AD67B5",
"}  c #B06DB8",
"|  c #B06EB9",
" . c #B372BB",
".. c #B678BD",
"X. c #B87ABE",
"o. c #BA7DC0",
"O. c #BB7DC0",
"+. c #BA7EC0",
"@. c #BB7FC1",
"#. c #BC7DC0",
"$. c #BD7EC0",
"%. c #BC83C3",
"&. c #BE88C5",
"*. c #C08BC6",
"=. c #C08BC7",
"-. c #C18CC7",
";. c #C28EC8",
":. c #C38FC9",
">. c #C390C9",
",. c #C490C9",
"<. c #C491C9",
"1. c #C591CA",
"2. c #C595CC",
"3. c #C796CC",
"4. c #C998CD",
"5. c #CA98CD",
"6. c #C89ACE",
"7. c #CA9BCF",
"8. c #C89CCF",
"9. c #CA9ED0",
"0. c #CB9FD0",
"q. c #CCA0D1",
"w. c #CCA1D1",
"e. c #CDA4D3",
"r. c #CEA5D3",
"t. c #CFA5D3",
"y. c #CFA6D4",
"u. c #D1AAD6",
"i. c #D2ACD7",
"p. c #D3ADD7",
"a. c #D4ADD7",
"s. c #D4AFD8",
"d. c #DBBCDF",
"f. c #DDBEDF",
"g. c #DDC1E1",
"h. c #DEC1E1",
"j. c #DEC2E1",
"k. c #DFC3E2",
"l. c #DFC4E3",
"z. c #DFC5E3",
"x. c #E0C5E3",
"c. c #E3CBE6",
"v. c #E4CDE7",
"b. c #E6CFE8",
"n. c #E5D0E8",
"m. c #E6D0E8",
"M. c #E6D2E9",
"N. c #E8D4EA",
"B. c #E9D6EB",
"V. c #ECDDEE",
"C. c #EDDDEF",
"Z. c #F0E4F2",
"A. c #F1E5F2",
"S. c #F2E6F3",
"D. c #F3E8F4",
"F. c #F3E9F4",
"G. c #F4EAF5",
"H. c #F4EBF5",
"J. c #F5ECF6",
"K. c #F6EEF7",
"L. c #F7F0F7",
"P. c #F8F1F8",
"I. c #F9F4FA",
"U. c #FCF9FC",
"Y. c #FCFAFC",
"T. c #FDFBFD",
"R. c #FDFCFE",
"E. c #FEFCFE",
"W. c #FEFDFE",
"Q. c #FEFEFE",
"!. c #FEFEFF",
"~. c #FFFEFF",
"^. c white",
"/. c None",
/* pixels */
"/././.3 3 3 3 3 3 3 5 5 5 5 5 5 6 6 6 6 6 6 6 q q q q q q q w w w w w w w i i i i i i p p /././.",
"/./.3 3 3 3 3 3 3 5 5 5 5 5 5 5 6 6 6 6 6 6 q q q q q q q w w w w w w w i i i i i i i p p p /./.",
"/.3 3 3 3 3 3 3 5 5 5 5 5 5 5 6 6 6 6 6 6 6 q q q q q q w w w w w w w i i i i i i i p p p p p /.",
"3 3 3 3 3 3 3 5 5 5 5 5 5 5 6 6 6 6 6 6 6 q q q q q q w w w w w w w i i i i i i i p p p p p p a ",
"3 3 3 3 3 3 5 5 5 5 5 5 5 6 6 6 6 6 6 6 q q q q q q w w w w w w w i i i i i i i p p p p p p p a ",
"3 3 3 3 3 5 5 5 5 5 5 5 6 6 6 6 6 6 6 q q q q q q w w 0 0 0 0 0 0 y y y i i i p p p p p p p a a ",
"3 3 3 3 5 5 5 5 5 5 5 6 6 6 6 6 6 6 q q q q q q q w w M S Z Z Z A A A A n i p p p p p p p a a a ",
"3 3 3 5 5 5 5 5 5 5 6 6 6 6 6 6 6 q q q q q q q w w # %.z.j.j.j.j.j.j.h.{ @ p p p p p p a a a a ",
"3 3 3 5 5 5 5 5 5 6 6 6 6 6 6 6 q q q q q q q w w w X y.^.^.^.^.^.^.^.^.+.. p p p p p a a a a a ",
"3 3 5 5 5 5 5 5 5 6 6 6 6 6 6 6 q q q q q q w w w w X y.^.^.^.^.^.^.^.~.o.. p p p p a a a a a a ",
"3 5 5 5 5 5 5 5 6 6 6 6 6 6 6 q q q q q q w w w w w X y.^.^.^.^.^.^.^.~.o.. p p p a a a a a a a ",
"5 5 5 5 5 5 5 6 6 6 6 6 6 6 q q q q q q w w w w w w X y.^.^.^.^.^.^.^.~.o.. p p p a a a a a a s ",
"5 5 5 5 5 5 6 6 6 6 6 6 6 q q q q q q 9 o o 7 0 # X   t.^.^.^.^.^.^.^.~.o.. p p a a a a a a a s ",
"5 5 5 5 5 6 6 6 6 6 6 6 q q q q q O q D _ ..*.>.&. .W s.^.^.^.^.^.^.^.~.o.. p a a a a a a a s s ",
"5 5 5 5 6 6 6 6 6 6 6 q q q q 4 q Q 6.M.L.!.^.^.^.E.D.K.^.^.^.^.^.^.^.~.o.. a a a a a a a s s s ",
"5 5 5 6 6 6 6 6 6 6 q q q q O F 2.Z.~.^.^.^.^.^.^.^.^.^.^.^.^.^.^.^.^.~.o.% a a a a a a s s s s ",
"5 5 5 6 6 6 6 6 6 q q q q O R g.R.^.^.^.^.^.^.^.^.^.^.^.^.^.^.^.^.^.^.~.o.% a a a a a s s s s s ",
"5 5 6 6 6 6 6 6 6 q q q O E n.^.^.^.^.^.^.^.^.^.^.^.^.^.^.^.^.^.^.^.^.~.O.% a a a a s s s s s s ",
"5 6 6 6 6 6 6 6 q q q 4 J l.^.^.^.^.^.^.^.^.^.^.^.^.^.^.^.^.^.^.^.^.^.~.O.% a a a s s s s s s h ",
"6 6 6 6 6 6 6 q q q q c 8.W.^.^.^.^.^.^.^.^.^.^.^.^.^.^.^.^.^.^.^.^.^.~.O.% a a s s s s s s h h ",
"6 6 6 6 6 6 q q q q O / F.^.^.^.^.^.^.^.^.^.^.^.^.^.^.^.^.^.^.^.^.^.^.~.O.% a a s s s s s h h h ",
"6 6 6 6 6 q q q q q e e.^.^.^.^.^.^.^.^.^.^.^.!.^.^.^.^.^.^.^.^.^.^.^.~.O.% a s s s s s h h h h ",
"6 6 6 6 q q q q q 4 I V.^.^.^.^.^.^.^.^.E.N.w.<.p.A.^.^.^.^.^.^.^.^.^.~.O.% s s s s s h h h h h ",
"6 6 6 q q q q q q o } I.^.^.^.^.^.^.^.E.i.U 8 $ d ( v.^.^.^.^.^.^.^.^.~.O.& s s s s s h h h h j ",
"6 6 q q q q q q q X =.^.^.^.^.^.^.^.^.c.K + i p p . ] H.^.^.^.^.^.^.^.~.O.& s s s s h h h h j j ",
"6 6 q q q q q q w w 0.^.^.^.^.^.^.^.Q.;.+ i p p p u V d.^.^.^.^.^.^.^.~.O.& s s s h h h h j j j ",
"6 q q q q q q w w z r.^.^.^.^.^.^.^.U.X.+ p p p p p r u.^.^.^.^.^.^.^.~.O.& s s h h h h j j j j ",
"q q q q q q q w w w 0.^.^.^.^.^.^.^.~.:.@ p p p p u C f.^.^.^.^.^.^.^.~.O.& s h h h h j j j j j ",
"q q q q q q w w w X -.^.^.^.^.^.^.^.^.v.P < p p u - [ J.^.^.^.^.^.^.^.~.O.& h h h h j j j j j k ",
"q q q q q w w w w o | I.^.^.^.^.^.^.^.R.p.T d < m ) b.^.^.^.^.^.^.^.^.~.O.* h h h j j j j j k k ",
"q q q q w w w w w 7 Y C.^.^.^.^.^.^.^.^.R.B.q.,.a.S.^.^.^.^.^.^.^.^.^.~.#.* h h h j j j j k k k ",
"q q q w w w w w w w v y.^.^.^.^.^.^.^.^.^.^.^.^.^.^.^.^.^.^.^.^.^.^.^.~.#.* h h j j j j k k k k ",
"q q w w w w w w w i $ ` G.^.^.^.^.^.^.^.^.^.^.^.^.^.^.^.^.^.^.^.^.^.^.~.#.* h j j j j k k k k l ",
"q w w w w w w w i i i b 9.W.^.^.^.^.^.^.^.^.^.^.^.^.^.^.^.^.^.^.^.^.^.~.#.* j j j j k k k k l l ",
"w w w w w w w i i i i 8 L x.^.^.^.^.^.^.^.^.^.^.^.^.^.^.^.^.^.^.^.^.^.~.#.= j j j j k k k k l l ",
"w w w w w w i i i i i i $ ! m.^.^.^.^.^.^.^.^.^.^.^.^.^.^.^.^.^.^.^.^.~.#.= j j j k k k k l l l ",
"w w w w w i i i i i i i p r ! k.T.^.^.^.^.^.^.^.^.^.^.^.^.^.^.^.^.^.^.~.#.= j j k k k k l l l l ",
"w w w w i i i i i i i p p p < G 3.S.!.^.^.^.^.^.^.^.^.^.^.^.^.^.^.^.^.~.$.= j k k k k l l l l N ",
"w w w w i i i i i i p p p p p r x ^ 7.N.P.Y.~.^.^.^.^.^.^.^.^.^.^.^.^.~.$.= k k k k l l l l l N ",
"w w w i i i i i i i p p p p p p p 1 f H ' @.1.4.4.4.4.4.4.5.5.5.5.5.5.5.~ 2 k k k l l l l l N N ",
"w w i i i i i i i p p p p p p p a a a t 1 , ; ; ; ; ; ; : : : : > > > > g k k k l l l l l N N N ",
"w i i i i i i i p p p p p p p a a a a a a a s s s s s h h h h j j j j k k k k l l l l l N N N N ",
"i i i i i i i p p p p p p p a a a a a a a s s s s s h h h h j j j j j k k k k l l l l N N N N B ",
"i i i i i i p p p p p p p a a a a a a a s s s s s h h h h h j j j j k k k k l l l l N N N N B B ",
"i i i i i p p p p p p p a a a a a a a s s s s s h h h h h j j j j k k k k l l l l N N N N B B B ",
"/.i i i p p p p p p p a a a a a a a s s s s s h h h h h j j j j k k k k l l l l N N N N B B B /.",
"/./.i p p p p p p p a a a a a a a s s s s s h h h h h j j j j k k k k l l l l l N N N N B B /./.",
"/././.p p p p p p a a a a a a a s s s s s s h h h h j j j j k k k k k l l l l N N N N B B /././."
};
