/* XPM */
static char *dtool_logo[] = {
/* columns rows colors chars-per-pixel */
"96 96 62 1 ",
"  c #8F2E9A",
". c #922E9A",
"X c #8E319B",
"o c #94319B",
"O c #98319B",
"+ c #97399F",
"@ c #99399F",
"# c #973BA0",
"$ c #9A3DA1",
"% c #9D43A4",
"& c #9F49A7",
"* c #9F4BA8",
"= c #A046A5",
"- c #A149A7",
"; c #A24DA8",
": c #A553AC",
"> c #A856AD",
", c #A758AE",
"< c #A959AF",
"1 c #AB5DB1",
"2 c #AD62B3",
"3 c #AF69B6",
"4 c #B066B5",
"5 c #B26AB7",
"6 c #B46EB9",
"7 c #B672BB",
"8 c #B876BD",
"9 c #B778BD",
"0 c #BA7ABE",
"q c #BC7EC0",
"w c #BE82C2",
"e c #BF88C5",
"r c #C086C4",
"t c #C28AC6",
"y c #C48EC8",
"u c #C692CA",
"i c #C896CC",
"p c #CB9BCE",
"a c #CD9ED0",
"s c #CEA2D2",
"d c #D0A6D4",
"f c #D3AAD6",
"g c #D5AFD8",
"h c #D6B1D9",
"j c #D9B6DB",
"k c #DCBBDE",
"l c #DEBFE0",
"z c #DFC1E1",
"x c #E1C6E3",
"c c #E3CAE5",
"v c #E6CFE8",
"b c #E7D0E8",
"n c #EAD6EB",
"m c #ECDBEE",
"M c #EEDFF0",
"N c #EFE0F0",
"B c #F1E4F2",
"V c #F5ECF6",
"C c #F7F0F8",
"Z c #F9F4FA",
"A c #FDFAFD",
"S c None",
/* pixels */
"SSSSSSSXXXXXXXXXXXXXXXXXXXXXXXXXXXXXXXXXXXXoXXXXoXoXoXXoXXoXooXooo ooXoXooooooXooooo.oXo.SSSSSSS",
"SSSSSXXXXXXXXXXXXXXXXXXXXXXXXXXXXXXXXXXXXoXXoXXXXXXoXXoXXoXoXooXXooXoooooXoXooooXooooooooOoSSSSS",
"SSSXXXXXXXXXXXXXXXXXXXXXXXXXXXXXXXXXXXXXXXXXXoXoXXXoXooXoXoXooXooXXoXoXXoooooooooooXoooooooooSSS",
"SSXXXXXXXXXXXXXXXXXXXXXXXXXXXXXXXXXXXXXXXXoXXXXXoXoXoXXoXoXoXXoXXoooooooXXooXoooooooooooooooooSS",
"SSXXXXXXXXXXXXXXXXXXXXXXXXXXXXXXXXXXXXXXoXXooXoXXooXoXXXoXXooXoXooXXooooooooooXoooooooooooooooSS",
"SXXXXXXXXXXXXXXXXXXXXXXXXXXXXXXXXXXXXXXXXXXXXXXXXXXXoXoXXooXXooooXooXoXXooXo.oooo oooooooooooooS",
"SXXXXXXXXXXXXXXXXXXXXXXXXXXXXXXXXXXXXXXXoXoXXXXooXXoXXoooXXoXoXoooXooooooooooXoooooooooooooooooS",
"XXXXXXXXXXXXXXXXXXXXXXXXXXXXXXXXXXXXXXXXXXXXXoXoXooXoXoXXooXoXooXooooXoooXoooooooXoooooooooooooo",
"XXXXXXXXXXXXXXXXXXXXXXXXXXXXXXXXXXXXXXXXXXXXXoXXXooXoXXoooXoXoXoooooXooXoooooooooooooooooooooooo",
"XXXXXXXXXXXXXXXXXXXXXXXXXXXXXXXXXXXXXXXXXXXXoXXooXXoXooXoXoXooXoXoXooooooXooooooooooooooooOooooO",
"XXXXXXXXXXXXXXXXXXXXXXXXXXXXoXXXXXXXXXXXoXoXoXXoXXoXoXXoXoXoXoooXoXoooXooooooooooooooooooo.ooooO",
"XXXXXXXXXXXXXXXXXXXXXXXXXXXXXXXXXXXXXXXXXXXoXoXXXoXoXooXoXoooooXooooooooooXoo.oooooooooooooooooo",
"XXXXXXXXXXXXXXXXXXXXXXXXXXXXXXXXXXXXXXXXXooXoXoXoXoXoXooXooXoXoo.oooooo.XooooooooooooooooooooOO.",
"XXXXXXXXXXXXXXXXXXXXXXXXXXXXXXXoXXXXXXXXoXXXoXXoXoooXooXoXo+o o++X ooo.++.oooooooooo.oooooooO.oo",
"XXXXXXXXXXXXXXXXXXXXXXXXXXoXXXXXXXXXXXXXXXXoXXoXXoXooX%u&0zj#3znk1,jc3ycp+XooooooooooooooooooOoO",
"XXXXXXXXXXXXXXXXXXXXXXXXXXXXXoXXXXXXXXXXXooXoXXooXoXXX*NujZN;bNsVzyVAwxAx+.oooooooooooooooOooooo",
"XXXXXXXXXXXXXXXXXXXXXXXXXXoXXXXoXXXXXXXoXoXXoXoXXXoXo &Vs#zN,Nk+cn%eA7&mx+.oooooooooooooooOooooo",
"XXXXXXXXXXXXXXXXXXXXXXXXXXXXXoXXXoXXooXXXXooXoXoooXooX&VpokN,Nj+xm+qA6+nc+oooo.OooOo.ooooooooOoO",
"XXXXXXXXXXXXXXXXXXXXXXXXXXXoXXXooXXoXoo oXoXoXoXXooXo &VsokN,Nk+cn+qA6+mx+.ooooooooooooOO.OoO.oo",
"XXXXXXXXXXXXXXXXXXXXXXXXXXXXXoXXXXXoXXXXoXXoXoXooXoooX&VpXkN,Nk%bn+0A7+nc+oooooooooooooooOoooOoO",
"XXXXXXXXXXXXXXXXXXXXXXXXX+XXXXXXooXooXXoXoXoXoXoXoooX.&m9XkN&kZcZgo0A6+nc+oOooooooooooooooooOoo.",
"XXXXXXXXXXXXXXXXXXXXXXXXXXXXXXXXXXXXXooXoXoXoXoXXoXoXo%2+o8y+&yfu%.,i:@r0ooooooooooooOOooOoOoooO",
"XXXXXXXXXXXXXXXXXXXXXXXXXXXXXXXXXooXXXXXoXXoXooXoooooo+ekw1fg&&sxj2.<hcd:.ooooooooooo.oooooOOoO.",
"XXXXXXXXXXXXXXXXXXXXXXXXXXXX#XXXXXoXoXooXoXoooXooXXoo &bAgdZC,gZhBn-cVfCkooooooooO.ooOoOoOo.oooO",
"XXXXXXXXXXXXXXXXXXXXXXXXXXXXXXXXoXXoXXooXoooXooXXoooooo2Vg%dZ<cn@gC1Bk@cc@oooooooo.oOOoooOoOoooo",
"XXXXXXXXXXXXXXXXXXXXXXXXXXXXXXXXXoXooXoXoXXXXoX ooXXoXo&Vg.pZ<cn+fV1Nk@cc@.oooooooOoooOoooooOooO",
"XXXXXXXXXXXXXXXXXXXXXXXXXXXXXXXXXoXXoX XXXX,3o:e&:1oXo.;Vf.pZ1xn+fV2Bk@cc@ooooooooooOooo.OoO.ooo",
"XXXXXXXXXXXXXXXXXXXXXXXXXXXXXXXXoXXoXo%$sp%zn+0A7sB&7a%&Vg pZ1zm$gV2Mk+vc+oO.oooOoOoo.OoOoooOoOo",
"XXXXXXXXXXXXXXXXXXXXXXXXXXXXXXXXoXXXouc*zCzZjXqA6eAzNB;&VgopZ,sAlCv=xCkZhOooooooOooooooOooooooOo",
"XXXXXXXXXXXXXXXXXXXXXXXXXXXXXXXXXXX%oep#*ski* 1d:#ekg2o%p9.6s%%ijd>.;akp-.ooooOoo.OooOooO.OooOoO",
"XXXXXXXXXXXXXXXXXXXXXXXXXXXXXXXX%X&ujs,X;aki**id,#ejg2+wf9o6gjw++0hh7+7dtoooOoOooooOoooOoOooO.O.",
"XXXXXXXXXXXXXXXXXXXXXXXXXXXXXXX,c:dZzVb&zZkZjuZA6eAzmB9BAf,VncA96ZvbC0nAx@oo.ooooOoOoOo.ooOoOOoO",
"XXXXXXXXXXXXXXXXXoXXXoXoXXXXXXXeA3zN%gV2Nz+zm,eA7fC*yA63Vf7Aq,ZptA27Ar<mc+.oOooooOoOoO.OoOoO.OOo",
"XXXXXXXXXXXXXXoXXXXoXXXXXXXX*a*eA3zn#dV2Nk+zn#qA7dV&tZ2%Vf7A9:ZpyZ15A0@nc@.o.oOoooooooooooOoOooO",
"XXXXXXXXoXXXXXXoXoXXXoXoXXXXpB*eA3zm#dV2Nk#zm#qA7fV&tA2&Vf6A0;CptA15Aq+nx@OooOoooOoOoOoO.OoOoOoO",
"XXXXXXXXXXXXoXXXXXXoXXXoXX%%fV*eZ3zN#fV,Nz#zn#qA3dV&yZ2&Vf6A0:ZptA25Aw+mc@OoooOoO.ooooooOoOoOoO.",
"XXXXXXXoXXXXoXXXXXXoXoXXXXu3eAjbV:fZgBn*zVhZkoqA7eAknV:&Vd<CbkAw7AzxZ5@nx@oooOoO.OoOoOooOoOOoOoO",
"XXXXXXXXXXXoXXXooXXXXooX &d2&exz7X*szj2X,gzg, 2j,%izk7X%fr@0kxy$@rzxrO@aiOOooooOooooO.oOoO.OOoOo",
"XXXXXXoXXXXXoXoXoXoXXXXX&i3XXwfs,X%wgi*X%ugt%%wp:2ueo:isr@.1sf7@>yy+=ydy=oooooo.OoOoO.OoOoOo.O.O",
"XXXXXXXXXXXoXXXXXXXoXXXX7mC2wAbVN*sZvCz&kZcZgyAAenAz*nVbAy:BBnZqxAM-kZvZfoOoOoOooooooOoOoO.OoOOo",
"XXXXXXXXXoXXoXXXXooXooX:*qAwsV*eZ3zN%hV,Nz%zn,pA94Mc<Cd;Bk7Ar<Zd<cB>Nl$vc@OoooooOOoooOoOOoOoOOoO",
"XXXXoXXXXXXXXXoXoXXXXXXi23AwdV*eA3zn#fV2Nk%zm+9A6Onc1Zi$Mk7A9:Zp.kN>BkOcc@.ooOoOoo.OOoO.oO.O.OOo",
"XXXXXooXXoXXoXoXXXooX *m23AwdV*eA3zN#dV2Nl#zm+qA7+nc1Zp$Mk7A0:Cp.kN>Nj@cc@OoO.ooooOooOoOOoOoOoO.",
"XXXXXXXXXXoXXXXoXoXXX wA,3AwdV*eA3zm#dV2Nz#zm#0A6+nc<Zp$Bj7A0:ZaOkN:Bk@cc@oooOoOoOoOO.Oo.OoOoOoO",
"XXoXXoXXoXXXoXXooXXoX 9AjlZ3eAdvC,hCsNm;zVando*e;+nc;BndZd1ZxgAt.kB:vBpCk@O.Ooo.OOOoOooOOOoOoOoO",
"XXXXXXoXXXXoXXoXXoXXo #ibne%*dbvwX:hnz3X3zh1+oo oo5y@0cbh;otcvs$Oih@4znj<..OoooOO.oO.OOOOoOoO.O.",
"XXXXXXXXoXoXXooXXoXoX:iw*X%wiw*X&ei9%*9w%oooXooooo.o$$6i<;q9-8t:O4iy>+4r6OoOOo.OoOoOOoO.oO.OOOoO",
"XXXoXXoXXXXXoXXoXXXoXimZz%fZmZs%zCmZedAC, Xoooooooooo6CAikAmrCAt1CBBB6nAx@ooooOoOoO.oOoOOoOooOOO",
"XXXooXXXXoXoXXoXXoXooi*hV,Nz&bn2Zd;Bk2kc#ooooooooooo.=iAi4cM1iZttA50At7Bc@.o.OoOOOO.OOO.O.OOO.OO",
"oXXXXXXoXXXooXXooXoX%s%dV2Nz#zn2Zi%Nk iw.ooo.ooooooo..1Zt.kB%1ZttA15A0@ncO.OOoOoO.OO..OOO...OOOO",
"XoXoXXXoooXXoXXoXooX%h%fC,Nk#zn2Zp%mzow:.oooooooooooo.2Zy.kB%1AtyZ15Aq@nc@OooOO.OOO.O.O.OOOOOOO.",
"XXXXoXXX XXoXXoXoXo *kXdV2Nk#zn2Zp$Nzo6$Xoooooooooooo.:Cy.kB%4AtyZ15Aq@mx@oOOoOOO.O.OOO.O.OO.OOO",
"XooXXooXoXXXoXoXXoXo*nunN:nNeVz,BbuZgo2#ooooooooooOoo.;VyOkB%1Zy0AdhA5@nc@.OOoOoOO.O.OOOO.OOOOOO",
"XXXXXXXoXXooXoXooXoX%jmbwX3vNc3XwnNk,o1+oooooooOooooo.-c8.al@>v0=fmna%@hdOOooOoO.OO.OOOOOOOOOO.O",
"XXXXooXXoXoXXooXXooXX:t7X%7e9%#37:30,o*$.oooooooooooooO%5rq;@1r>O>yy:O:q6OoOO.OoO.O.O..OO..OO..O",
"XoXoXXoXoXXXooXoooXX+kAz%lCNCwsZV9NAf&bq.ooooooooooooooyZNZh7VAt<BBVm4vAcOOooOoOOOOO.OOOOOOOOOOO",
"oXXXoXXXXoXoXXoXXoooo7Bc,Vg,Vk6kC3yZf5Ae.Ooooooooo..O;>xN:kB6aAttA7rAtrBc@.OOOO.OOOO.OO.OOOOOOOO",
"XXooXXooXXoXooXooXXoX#bc1Zp#mkopZ,%Vf6Aq.o.oooooo.OO%k5xn@fV-1ZttA<5Aq@ncOOO..OOO..OOOOO.OO..O.O",
"XoXXoXoXooXoXooXXoooo#nc1Zp%NzopZ,%Vf7Aq;r@.oOo.o...qC5cn@fC;1AtyZ15Aq@ncOO.OO.O..O.OOOOOOOOOO.O",
"XXoXoXXXXooXooXoooXXX#nc,Zp#Nl.pZ,&Vf7A9;Vy++...o$4@yZ5xnOfV;4ZtyZ<5Aq@nc@.OOOO.OOOO.OO.O.OOOOOO",
"oXXoXoXoXoXoXo oooXooozc:VzeZh.pZ,-Vf2AgyAi7ct0y;tCtkC1kVqvN=1ZyqZadA6@ncOOO.OOOOOOOO.OOO.O.OOOO",
"XooXoXoXoXoXoXXoXoooX.wh+uNNc2 tn:%bp+sBBx-=jVBh$>cBNa@4bBNt.>Nq%kBBg%@lg@O.O..OO.OOOOOOOOOOOO.O",
"XXXXoXoXXooooXooXoXooo+32#2e,.-qw-o-166<;$>75>;>4==q8@O1r0=@>5>:41>65==84OoOOO.OOO.OO..O.OO..O.O",
"ooXoXoXoXoXoXooXooooXo.pm9BAt:mVVb;5BVZk$qCVCd5BAihZn=aCVVywCCqxAlrVZqcZx@Oo.OOOO.OOOOOOOOOOOOOO",
"XXXoXXoXoXoXooooXXoooo :z7dAeeAqrA9dZ4sZ4xB<kB8fAiqmM:Mc<nb8kZqyBc6kZqiBcO..OOOOOOOOOO.OOoOO.OOO",
"XoXoooXooXXoXo oooXooooo9%1AyeA14ArdV=rA5xn+fV-1ZyOkB:Bk@xn@qA6@ncOqA6@nc@OOOo.OO.oOOOOOOOOOOOOO",
"ooXXXooXXooXoXooooooooo.oo2AttA15AqdV-rA5xn$fV;4AyOkB>Nk@xn@qA6@ncOqA6@ncO.O.OOOOOOOO.OOOOO.OOOO",
" XooooXooXoooooXoXooXoooo 2ZyeA14ArfV=rA5cn+dC=1Zy.kN>NkOcn@qA6@nc@qA6@nc@OOOOOo.OO.OoOO.OOOOOOO",
"oXoXXoXoXoooXoXoXoXoooooo.1ZtwAuiA8aZ0hZ2kV6cB=1Zy.kB:nn6MbOqA6@nxOqA6@nc@O.OOOOOOOOOoO.OO.OOO.O",
"ooXooXXooooXoooooooooooXoo+fe%zVVk=<nVBf+7mVBiO<BrOgv=rBVBqO8V5@clO8V5@ck@OOOO.OOOO.OOOOOOOOOOOO",
"XooXXooooXoXoXoXoXooooooooo+%:1<64$o<t0%.=67:%>44%@56@=85==151@$84O<0=$84OOO.O.OoO.OOOOOOOOOOOOO",
"oXXooXoXoXoooo.oooooXoooooo.+skqBC51mVCh<bZs%kCVn<fCv8MCr;bVVx<kCkwBVqkCkOO.OOOOOOOO.OO.OOOO.OOO",
"XoXooXoooooXooXoooooooooooooo$69xA6dZ7fZqfZf5AaqZayNM6kAyrZtiZyaVx0xAqaVx@OOOOOOOO.O.OOOO.OOOOOO",
"oXXooXoXoXooooooXooXooooooooo...0A7dV=rZ4=Vf6Z0-ZsOkN%1ZtyZ<5Aq@ncOqA6@nc@OOO..OOOOOOOO.OOOOOOOO",
"XooXoooXoXXooXoooooooXooooooooo.-f4dV-rA4=Vf6A0:CaOjN%4AtyA15Aq@ncOqA6@nx@OOOOOO.OOOOOOOOOOOOOOO",
"oXooXooooooooooXoooooo.oooo.oooo.o@iM-tA4=Vf7A0:ZaOkB%1ZtyA15Aq@ncOqA7@nxOOOOO.OOOO.OOOOOOOOO.OO",
"XoooXoXo ooooooooooooooooooooooooo.+<+yZ1=Vf4Za8Zp.kB%1AtrAryA0@ncOqA6@nc@OOOO.OO.OO.OOOOOOOOOOO",
" oXoooooXooooXoooXooooooooooooooooOo.O=5$=nd=xCCm1Ohn%1Ct-bVCc=@bxO0Z5@vxO.O.OOOOOOOOOOOOOOOOO.O",
"ooooXXoXoooXoooo.ooooOooooooooooooooOo...O=;.$44=.O:<O@1=O=44%.O>>O@1$O>>OOOOOOOOOO.OOOOOOOOOOOO",
"oXXoooooooooooXoooXooooooo.ooooooooooOO.O.OOO...OOO.OOO.OO...OOOOOOOOOOOOOOOOO.O.OOOOOOOOOOO.OOO",
"ooooXoooXooooooXooooooooooooooooooOoO.O.OoOo.OoOoOoOOo.OooOoO.OoOOOOO.O.OOOOOOOOOOOOOOOOOOOOOOOO",
"XoXXooXooooooooooooooooooooooooooooooOooooooOoooo.OooOOoOOoOOOoOO.OOOOOOOOOOOOOOOOOOOOOOOOO.OOOO",
"oooooooooooXXoooooooooooooo.ooooOoOoooooO.OooooOOOoOOoOo.O.OoO.OO.O.OOOO.OOOOOOOOOOOOOOOOOOOOOOO",
"oXXoo.oX.ooooooooooooooooooooooOooo.oOoOoOooOooOooOO.OoOoOOoOoOOOOOOO.O.OOOOOOOOOOOOOOOO.OOOOOOO",
"oooooooooXooooooooooooooo.oOoooOooOOOoOooooOooO.OOoOoOoOO.OO.OOoOOOO.OOOOOOOOOOOOOOOOOOOOOOOOOOO",
"XooXXoooooooooooooooooooooooooO.oOooooo.oOoOoOoO.OOoOoO.oOOoOoOO.OO.OOOOO.OOOOOOOOOOOOOOOOOOOOOO",
"oXooooXooooooooooooo.ooooooooooooo.OoooOooo.OOooOooOOOOooOoOOOOOOOOOOOOO.O.OOOOO.OOOOOOOOOOOOOOO",
"ooooooooooXoo.ooooooooooooooooOooOoooOoOoOoO.OOooOO..OoOoO.OOO.OOO.OO.OOOOOOOOOOOOO.OOO.OOOOOOOO",
"oooXoooooooooooooooOooooooooOOooOooooooooOoOoOOoOoOOoO.OOOOOO..O.OO.O.OOOOOOOOOOOOOOOOOOOOOOOOOO",
"SXoooooXoooooooooooooooooo.OooOo.OoOoOoOo.OoOO.O.O.OOoOo.OoOOOOOOOOOOOOOOOOOOOOOOOOOOOOOOOOOOOOS",
"SoooXoooooooooooooo.ooooooOooOooooooo.OoOooOooOoOoOoO.oOOOOoOOOOOOOOOOOOOOOOOOOOOOOOOOOOOOOOOOOS",
"SSooooooooo.ooooooooooooOoooo.OooOoOoOoooOOO.OoOoOoOOOoO.OOOO.Oo.OO.OO.OOOOOOOOOOOOOOOOOOOOOOOSS",
"SSoooooXoooOooooooooOoooOooooooOO.OooooOO.OooOoOOoOooOO.OOOO.OOOOOOO.OOOOOOOOOOOOOOOOOOOOOOOOOSS",
"SSSooooooooooooOoooo.ooOo.OoOoooooooOoO.oOoOOoO.oOoOOoOOO..OOOoOOO.OOOOOOOOOOOOOOOOOOOOOOOOOOSSS",
"SSSSSoooooooooo.oooooooOoOoOoooOOoOooOoOoOOoOooOO.O.O.OOOOOOOOOo.O.OOOOOOOOOOOOOOOOOOOOOOO=SSSSS",
"SSSSSSSoooooooooooooooooooooOOo.ooooO.OoOO.OO.OoOOoOOOOoOoOO.OOoOOOOOOOOOOOOOOOOOOOOOOOOOSSSSSSS"
};
