/* XPM */
static char *dtool_logo_small[] = {
/* columns rows colors chars-per-pixel */
"96 96 52 1 ",
"  c #8E2F9A",
". c #922F9A",
"X c #8D319B",
"o c #93319B",
"O c #98319B",
"+ c #93399F",
"@ c #963DA1",
"# c #9741A3",
"$ c #9A44A4",
"% c #9D49A7",
"& c #9E4DA9",
"* c #A14CA8",
"= c #A354AC",
"- c #A559AF",
"; c #A95EB1",
": c #AB63B3",
"> c #AE68B6",
", c #AF6DB8",
"< c #B36FB9",
"1 c #B575BC",
"2 c #B678BE",
"3 c #B97CBF",
"4 c #BA7FC1",
"5 c #BD84C3",
"6 c #BF89C6",
"7 c #C18AC6",
"8 c #C28EC8",
"9 c #C593CB",
"0 c #C798CD",
"q c #C99BCF",
"w c #CB9ED0",
"e c #CDA2D2",
"r c #D2A7D4",
"t c #D2ABD6",
"y c #D5B1D9",
"u c #DCBCDE",
"i c #DCBFE0",
"p c #DEC1E1",
"a c #E1C7E4",
"s c #E3CBE6",
"d c #E5CFE8",
"f c #E7D2E9",
"g c #E9D6EB",
"h c #ECDBEE",
"j c #EEDFF0",
"k c #EFE1F0",
"l c #F0E3F1",
"z c #F4EBF5",
"x c #F7F0F8",
"c c #FAF5FA",
"v c #FFFFFF",
"b c None",
/* pixels */
"bbbbbbbXXXXXXXXXXXXXXXXXXXXXXXXXXXXXXXXXXXXXXXXXXXXXXXXXXXXXXXXXXoXoXXXoXXoXXoXoXooXoXoXXbbbbbbb",
"bbbbbXXXXXXXXXXXXXXXXXXXXXXXXXXXXXXXXXXXXXXXXXXXXXXXXXXXXXXXXXXXXoXXXoXoXoXooXoXXXXoXo.oooobbbbb",
"bbbXXXXXXXXXXXXXXXXXXXXXXXXXXXXXXXXXXXXXXXXXXXXXXXXXXXXXXXXXXXXXXXXoXXXXXoXoXoXooXoXXoXooXoXobbb",
"bbXXXXXXXXXXXXXXXXXXXXXXXXXXXXXXXXXXXXXXXXXXXXXXXXXXXXXXXXXXXXXXXoXXXooXoXoXoXoXXoXoooXooXoooXbb",
"bbXXXXXXXXXXXXXXXXXXXXXXXXXXXXXXXXXXXXXXXXXXXXXXXXXXXXXXXXXXXXXXoXXXXXXoXooXoXXoXoXoXXoooXoooXbb",
"bXXXXXXXXXXXXXXXXXXXXXXXXXXXXXXXXXXXXXXXXXXXXXXXXXXXXXXXXXXXXXXXXXoXoXoXoXXoXoXooXoXoooXoXoXooob",
"bXXXXXXXXXXXXXXXXXXXXXXXXXXXXXXXXXXXXXXXXXXXXXXXXXXXXXXXXXXXXXXXoXXXXoXoXoXXoXoXXoXooooXooXoXoob",
"XXXXXXXXXXXXXXXXXXXXXXXXXXXXXXXXXXXXXXXXXXXXXXXXXXXXXXXXXXXXXXXXXXoXoXoXoXoXXoXooXooXXooXoooXooo",
"XXXXXXXXXXXXXXXXXXXXXXXXXXXXXXXXXXXXXXXXXXXXXXXXXXXXoXoXXXXXXXXXXXo oXXooXoXoXXoXXooooXoooXoXooX",
"XXXXXXXXXXXXXXXXXXXXXXXXXXXXXXXXXXXXXXXXXXXXXXXXXXXXXXXXXXXXXXXXXoXoXooXXoXoXXoXoooXXooXXoXooooo",
"XXXXXXXXXXXXXXXXXXXXXXXXXXXXXXXXXXXXXXXXXXXXXXXXoXXoXXoXXXXXXXXXXXXooXoooXoXoXoooooXXoooXoooXooo",
"XXXXXXXXXXXXXXXXXXXXXXXXXXXXXXXXXXXXXXXXXXXXXXXXXXXXXoXXXXXXX+XXoXoXXoXXoXXoXoXoXXooooXXooXooooo",
"XXXXXXXXXXXXXXXXXXXXXXXXXXXXXXXXXXXXXXXXXXXXXXXXXoXXXXXoXXXXXXXXoXXooXXXXoXoooXXooXooXoooXoooXoX",
"XXXXXXXXXXXXXXXXXXXXXXXXXXXXXXXXXXXXXXXXXXXXXXXXXXoXXXXXXXXXXXXXXooXXoXXoXoXXooooXooooXooooooooo",
"XXXXXXXXXXXXXXXXXXXXXXXXXXXXXXXXXXXXXXXXXXXXXXXXXoXXX %qeeeeeeteeeweeeee5oXoXoooooXX XooXooXoXoo",
"XXXXXXXXXXXXXXXXXXXXXXXXXXXXXXXXXXXXXXXXXXXXXXXXXXXoXX-cvvvcccccvvvvvvvvuoXoooXXXooooooXooooooo.",
"XXXXXXXXXXXXXXXXXXXXXXXXXXXXXXXXXXXoXXXXXXXXXXXoXXoXX -cvvvvvvvvvvvvvvvvuoXoXooooXXooXXoooooXooo",
"XXXXXXXXXXXXXXXXXXXXXXXXXXXXXXXXXXXXoXXXXoXXXXXXoXXXX -cvvvvvvvvvvvvvvvvuoXoooXoooooooooooXooooo",
"XXXXXXXXXXXXXXXXXXXXXXXXXXXXXXXXXXXXXXXXXXXXoXXXXXoXo ;cvvvvvvvvvvvvvvvvpooooXXoXooXXooooooooooX",
"XXXXXXXXXXXXXXXXXXXXXXXXXXXXXXXXXXXXXXoXXXXXoXoXoXoXX -cvvvvvvvvvvvvvvvvuooXXoooXooXoooXoXXooooo",
"XXXXXXXXXXXXXXXXXXXXXXXXXXXXXXXXoXXXXXXXXXXXoXXXXXXXo -cvvvvvvvvvvvvvvvvuXooXooXoooXooooooXoooX.",
"XXXXXXXXXXXXXXXXXXXXXXXXXXXXXXXXXXXXXoXXXoXoXXXoXooXX -cvvvvvvvvvvvvvvvvpoXoXooXoXooXooooooooooo",
"XXXXXXXXXXXXXXXXXXXXXXXXXXXXXXXXXXXXXXXXXXXXXoXXXXXXX -cvvvvvvvvvvvvvvvvuoXoooooXooooooooooooooo",
"XXXXXXXXXXXXXXXXXXXXXXXXXXXXXXXXXXXoXXXXoXXoXoXoXooXX -cvvvvvvvvvvvvvvvvuooXoXXooo oooX.ooXoXooo",
"XXXXXXXXXXXXXXXXXXXXXXXXXXXXXXXXXXXXXXXoXXXXXoXXXoXoX -cvvvvvvvvvvvvvvvvuooXoXXooooooooooXoooooo",
"XXXXXXXXXXXXXXXXXXXXXXXXXXXXXXXXoXoXXXXXoXoXX  X XXXo.-cvvvvvvvvvvvvvvvvuoooooooooooXooooooooooo",
"XXXXXXXXXXXXXXXXXXXXXXXXXXXXXXXXXXXXXXX X X+#$%%$@oX  -cvvvvvvvvvvvvvvvvuXXoXoXoXooXXoXoooo.oooo",
"XXXXXXXXXXXXXXXXXXXXXXXXXXXXXXXXXXXXXXo$:6eusghggpy02&:cvvvvvvvvvvvvvvvvpoooXoooooooooooXooooooo",
"XXXXXXXXXXXXXXXXXXXXXXXXXXXXXXXXXX X@>egxvvvvvvvvvvvczfvvvvvvvvvvvvvvvvvuXoooXoooXoooooXoooooooo",
"XXXXXXXXXXXXXXXXXXXXXXXXXXXXXXXXX #5sxvvvvvvvvvvvvvvvvvvvvvvvvvvvvvvvvvvuooXoooooooooooooooooOoo",
"XXXXXXXXXXXXXXXXXXXXXXXXXXXXXXXX+1scvvvvvvvvvvvvvvvvvvvvvvvvvvvvvvvvvvvvu+ooXoooooo oooooooooooo",
"XXXXXXXXXXXXXXXXXXXXXXXXXXXXXXXXtcvvvvvvvvvvvvvvvvvvvvvvvvvvvvvvvvvvvvvvuoXoooooXooooXoooooooooo",
"XXXXXXXXXXXXXXXXXXXXXXXXXXXXXX,gvvvvvvvvvvvvvvvvvvvvvvvvvvvvvvvvvvvvvvvvuoooooXoooooXooooooooooo",
"XXXXXXXXXXXXXXXXXXXXXXoXoXXXo4zvvvvvvvvvvvvvvvvvvvvvvvvvvvvvvvvvvvvvvvvvuooooooooXoooooooooooooo",
"XXXXXXXXXXXXXXXXXXXXXXXXXXXX6cvvvvvvvvvvvvvvvvvvvvvvvvvvvvvvvvvvvvvvvvvvpooooooooooooooooooooOoo",
"XXXXXXXXXXXXXXXXXXXoXXXXXXX6xvvvvvvvvvvvvvvvvvvvvvvvvvvvvvvvvvvvvvvvvvvvuoXoXoooooXoooooooooo.oo",
"XXXXXXXXXXXXXXXXXXXXXXXXXX1zvvvvvvvvvvvvvvvvvvvvvvvvvvvvvvvvvvvvvvvvvvvvuooooXoXoooooooooooooooO",
"XXXXXXXXXXXXXXXXXXXoXXoXX-hvvvvvvvvvvvvvvvvvvvvvvvvvvvvvvvvvvvvvvvvvvvvvpooooooooooooooooOoooooo",
"XXXXXXXXXXXXXXXXXXXXXXXX@ivvvvvvvvvvvvvvvvvvvvvvvvvvvvvvvvvvvvvvvvvvvvvvuooXooXooooooooooooo.Ooo",
"XXXXXXXXXXXXXXXXoXXXXXXX5cvvvvvvvvvvvvvvvvvvvvvvvvvvvvvvvvvvvvvvvvvvvvvvuooooooooooooooooooooooO",
"XXXXXXXXXXXXXXXXXXXXXoX&gvvvvvvvvvvvvvvvvvvvvvvvvvvvvvvvvvvvvvvvvvvvvvvvuoooXooooooooooooooOooOo",
"XXXXXXXXXXXXXXXoXXXXXXX9vvvvvvvvvvvvvvvvvvvvvvvvvvvvvvvvvvvvvvvvvvvvvvvvuo.ooooooooooooooooooooo",
"XXXXXXXXXXXXXXXXXXXXX %hvvvvvvvvvvvvvvvvvvvvvvvvvvvvvvvvvvvvvvvvvvvvvvvvuoXooooooooooooooooOoOoo",
"XXXXXXXXXXXXXXXXXXoXX 5vvvvvvvvvvvvvvvvvvvvvvvvvvvvvvvvvvvvvvvvvvvvvvvvvpoooooooooooooooOoooooOo",
"XXXXXXXXXXXoXXXXXXXXX+pvvvvvvvvvvvvvvvvvvvvvxkghzcvvvvvvvvvvvvvvvvvvvvvvuooooooooooOoooOoooooOOo",
"XXXXXXXXXXXXoXXXXXXX =kvvvvvvvvvvvvvvvvvvvkw:%@#=5scvvvvvvvvvvvvvvvvvvvvuoXoooooooooooooOooOoooo",
"XXXXXXXXXXXXXXXXXXXX 4vvvvvvvvvvvvvvvvvvvi-o XoX  #9zvvvvvvvvvvvvvvvvvvvuoooooOoooooooooooOoooOO",
"XXXXXXXXXoXXXXoXXXXXXevvvvvvvvvvvvvvvvvvu$ XoXXooo.o5xvvvvvvvvvvvvvvvvvvu+ooooooooooooOoooooOooo",
"XXXXXXXXXXXXXXXXXXXX+svvvvvvvvvvvvvvvvvg* XoXoXooooXoqvvvvvvvvvvvvvvvvvvuO.ooo.ooooooooooooooOOo",
"XXXXXXXXXXXXXXXXXXoX$hvvvvvvvvvvvvvvvvc6XoXXoXoooXXo *hvvvvvvvvvvvvvvvvvu+ooooooooooooOooOooOooO",
"XXXXXXXXXXXXXXXXXoo =zvvvvvvvvvvvvvvvvk& oXooXoXoXoooXrvvvvvvvvvvvvvvvvvu+ooooooOoooOooOOooOoooo",
"XXXXXXXXXXXXXXXXXXX :zvvvvvvvvvvvvvvvvi@oXoXoooXoooXo 2cvvvvvvvvvvvvvvvvuoooooooo.oOoooooooOoOOo",
"XXXXXXXXXXXXXXXXXoX >xvvvvvvvvvvvvvvvvtXXooXXoooXooXo :cvvvvvvvvvvvvvvvvuOooooooooooOoooOooOOoOO",
"XXXXXXXXXXXXXXXXXXX :zvvvvvvvvvvvvvvvvtooXooooXoXooXo :cvvvvvvvvvvvvvvvvuoooooooOooOoooOoOOooooo",
"XXXXXXXXXXXXXXXXXoX :zvvvvvvvvvvvvvvvvi@ oXooXoXooooo 2cvvvvvvvvvvvvvvvvuO.oOooOoooooooOOooooOoo",
"XXXXXXXXXXXXXXXXXXXX=zvvvvvvvvvvvvvvvvk* oXooXoooXXo.oevvvvvvvvvvvvvvvvvu+ooooooOooOOooooOO.OoOO",
"XXXoXXXXXXXXXXXXXoX $kvvvvvvvvvvvvvvvvc8..ooXoXoooooo*hvvvvvvvvvvvvvvvvvu+ooooooooooOooOooOooOOo",
"XXXXXXXXXXXXXXXXXoXX+svvvvvvvvvvvvvvvvvh= XoXoooXXoo+evvvvvvvvvvvvvvvvvvuoooooOooooooOooOooOOoOo",
"XXXXoXoXXXXXXXXXXXXooevvvvvvvvvvvvvvvvvvu% oooXXoo.o5xvvvvvvvvvvvvvvvvvvuoooOooOOoOOoOOooOOooo.O",
"oXXXXXXXXXXXoXoXXoXX 5vvvvvvvvvvvvvvvvvvvp;o ..o  $0zvvvvvvvvvvvvvvvvvvvuoO.ooooooooOooOoOoOOOOO",
"XXXXoXXXXXXXXXXXoXXXX=zvvvvvvvvvvvvvvvvvvvle>*#%-5scvvvvvvvvvvvvvvvvvvvvu+.OoooooooOooOoOoOoOoOO",
"XXXXXXXXoXooXoXoXXoXo+ivvvvvvvvvvvvvvvvvvvvvxlggzvvvvvvvvvvvvvvvvvvvvvvvuOoOOooOOoOoOooOoooOOOoo",
"XXXoXXoXXXXXXoXoXoXXXo5vvvvvvvvvvvvvvvvvvvvvvvvvvvvvvvvvvvvvvvvvvvvvvvvvu+oOoooooOOooO.OOOOooOoO",
"XXXXXXXXXoXoXXXXXXooX &hvvvvvvvvvvvvvvvvvvvvvvvvvvvvvvvvvvvvvvvvvvvvvvvvuoooOooOoooOooOooOoOOoOo",
"XXXXooXXXXoXoXXXXXoXXoX0vvvvvvvvvvvvvvvvvvvvvvvvvvvvvvvvvvvvvvvvvvvvvvvvuOoOooooOooOOoOOoOoOOoOO",
"XoXXXXoXoXXXoXoXoXXooXX*hvvvvvvvvvvvvvvvvvvvvvvvvvvvvvvvvvvvvvvvvvvvvvvvuOooOoOooOOooooOOoOooOOo",
"XXXXXoXXoXoXXoXXoXoXXooX5cvvvvvvvvvvvvvvvvvvvvvvvvvvvvvvvvvvvvvvvvvvvvvvu+OoooOOoooooOOoooOOoOOO",
"XXoXXXXoXXXXXXXoXoXooXXo#pvvvvvvvvvvvvvvvvvvvvvvvvvvvvvvvvvvvvvvvvvvvvvvuooooOooOOoOOoOOOOoOOOOo",
"XXoXXXoXXoXoXXXooXXoXooX -jvvvvvvvvvvvvvvvvvvvvvvvvvvvvvvvvvvvvvvvvvvvvvuOooOooOoOoOoOOoOOoOOOOO",
"oXXXoXXXXoXXXoXXXooXoXXooX2cvvvvvvvvvvvvvvvvvvvvvvvvvvvvvvvvvvvvvvvvvvvvuOoOoOooooOooOoOooOOoOOo",
"XXoXXXoXXXXooXXoXoXoXoXXXXo6xvvvvvvvvvvvvvvvvvvvvvvvvvvvvvvvvvvvvvvvvvvvu+OooOoOOoOOOOoOOoOoOOOO",
"XoXXoXoXXoXXXooXoXoXoXXooooo9cvvvvvvvvvvvvvvvvvvvvvvvvvvvvvvvvvvvvvvvvvvuOooOooOoOOooOOoOOOOoOOo",
"XXXoXoXoXXXoXoXoXoXooXoXXoXoo6zvvvvvvvvvvvvvvvvvvvvvvvvvvvvvvvvvvvvvvvvvuoOOooOooOOoOooOoOoOOOOO",
"oXXXXoXXXoXXoXoXoXoXXoXoXooooo1hvvvvvvvvvvvvvvvvvvvvvvvvvvvvvvvvvvvvvvvvuOOoOooOOoOOoOOoOOOOO.oO",
"XXoXXXXoXXoXXooXXoXooXoXooXXoX =ycvvvvvvvvvvvvvvvvvvvvvvvvvvvvvvvvvvvvvvuOoOoOoOoOOoOOOOOOOOoOOO",
"oXoXoXXXooXoXoXooXoXXoXoXoooooo +3fcvvvvvvvvvvvvvvvvvvvvvvvvvvvvvvvvvvvvu+oooOOOoOOoOooOoOoOOOOO",
"XXXXoXoXXoXoXXoXXoXXoXooXooXXXoo. %5dcvvvvvvvvvvvvvvvvvvvvvvvvvvvvvvvvvvuoOoOo.OOOoOOOOOOOOOOOOO",
"XooXXXXXoXoXXoXooXXoXooXooXooooXXo..$<tgxvvvvvvvvvvvvvvvvvvvvvvvvvvvvvvvuOoOOOoOoOOooOoOOoOoOOOO",
"XXXXoXXoXoXooXoXXooXXooooXXooooXXooo..+$>8tpdhkkkkkkkkkhkkklhllkklkkkkkltO.OoOooOOOoOOOOoOOOOOOo",
"XooXXooXoXoXXoXoXXooooXXoooo Xooooooo.....o@$%*********&*****************.OOOoOOooOOoOOoOOOOOOOO",
"oXoXoXoXoXoXXoXoooXoooXXooXoooXoo.ooXoooooX..............................oOoOooOOOOOOOoOOoOOOoOO",
"XXXXXoXoXoX oXoXoXXoXooooXooXooooXooooXoooooooooOooooooOoOoOOoOoOOOoOoOOOOoOoOOooOOoOoOOOOOOOOOO",
"XoXooXoXoXXoXooXoXooXoooooXXXooXoooXooooXooooooooooooooooOoooooOOoOoOoooOOoOOoOOoOOOOOOOOOOOOOOO",
"XXXoXoXoXooXoXXooooXooXXXooooooooooooXooooooooo.oooooooooooOoooOOooOoOOOOoOoOOoOOOOoOoOOOOOOOOOO",
"oXoXXoXXoXoXoXooXooXooooooXo.oXooXoooooooooooooooooooOoOoooooOooooOooOOoooOooOOOOOOOOooOOOOOOOOO",
"XoXooXoXXoXoXXoX ooXoXXoXXooooooooooooXooooooooooooooooooOO.oOOoOooOoOoOOOOOOoOooOoOOOOOOOOOOOOO",
"XooXXoXoXooXooXoooooXXooooXooooooooooooooooooooO.ooooooOoooOoooooOoOOooOOooOOOOO.OOOOOOOOOOOOOOO",
"oXoXoXoXoXXoXooooXXooooXXoooooXooXoooXoooooooooooooOOooooOooOoOOoooOOoOOoOoOOOoOOOOOOOOOOOOOOOOO",
"XoXoXXoXoXoooXoXoooXoXXoooooooo.ooooooooooooooooooooOoOooOoOooOoOoOoOOoOoOOOOOOoOOOOOOOOOOOOOOOO",
"bXoXXoXoXooXoooXXXoooooXoooooXoooXoXooooooo.oooooOooooooooOooOoooOoOOooOOooOOoOOOOOOOOOOOOOOOOOb",
"boXooXoXoXooXXooooXoXooooooXoooooooXooo.ooooOooooooOoooOoOOoOOoOOOoOoOOoOOOOOOOoOOOOOOOOOOOOOOOb",
"bboXXoXoXoXXooXooXooXoooXooooooXoooooooooooooooooOoooOoooOooooOoOoOoOOoOOoOoOoOOOOOOOOOOOOOOOObb",
"bboXoXoXXoooo.ooooXoooooooooXoooooooooooooOoooooOooOooOoOooOooOoOOoOoo.OOOoOOOOOOOOOOOOOOOOOOObb",
"bbboXoXoooXoXoXXXoXoXooXXooXooXoooooOooooooooOoOooo.OooOoOOoOOoOooOOOOOOOOOOOOOOOOOOOOOOOOOOObbb",
"bbbbbooooXoXooooXoooo.oXooooXoooooooooooooooooooooooOooOoooooOOoOoOooOOOOoOOOOOOOOOOOOOOOOObbbbb",
"bbbbbbbooXoooXXooXooooooooooooooooooo.ooooooooOooOOoooOoOoOOoOOOOOoOOOoOOOoOoOOOOOOOOOOOObbbbbbb"
};
