/* XPM */
static char *dtool_logo[] = {
/* columns rows colors chars-per-pixel */
"96 96 68 1 ",
"  c #8A2E9A",
". c #932E9A",
"X c #9B2E9A",
"o c #8C319B",
"O c #8F389F",
"+ c #93319B",
"@ c #9B319B",
"# c #92399F",
"$ c #A3319B",
"% c #AB319B",
"& c #B0319B",
"* c #943DA1",
"= c #9B3DA1",
"- c #A23DA1",
"; c #9543A4",
": c #9C43A4",
"> c #9A49A7",
", c #9B4DA8",
"< c #9F54AC",
"1 c #A04FAA",
"2 c #A155AD",
"3 c #A259AF",
"4 c #A55EB1",
"5 c #A85CB0",
"6 c #A762B3",
"7 c #A864B4",
"8 c #AA68B6",
"9 c #AE6EB8",
"0 c #B561B2",
"q c #B56BB7",
"w c #B86BB7",
"e c #B36EB9",
"r c #AF71BA",
"t c #B376BC",
"y c #B579BE",
"u c #B87ABE",
"i c #B77FC1",
"p c #B97DC0",
"a c #BB83C3",
"s c #BE89C6",
"d c #C08EC8",
"f c #C394CB",
"g c #C699CE",
"h c #C99ED0",
"j c #CBA2D2",
"k c #CEA8D5",
"l c #D3ADD7",
"z c #D8ADD7",
"x c #D4AED8",
"c c #D5B4DA",
"v c #D8B5DB",
"b c #DABBDE",
"n c #DBBFE0",
"m c #DFC6E3",
"M c #E2C6E3",
"N c #E2C9E4",
"B c #E4CFE8",
"V c #E6D1E9",
"C c #E9D5EB",
"Z c #ECDCEE",
"A c #EEE1F0",
"S c #F1E5F2",
"D c #F4ECF6",
"F c #F6F0F7",
"G c #F7F0F8",
"H c #F9F4FA",
"J c #FFFFFF",
"K c None",
/* pixels */
"KKKKKKooooooooooo  O  O  oooooooooooooooO    O    O O    O     Ooooooo o oooooooooooooooo+KKKKKK",
"KKKKoooooooooo ooo  O    oooooooooo oooo  O   O O      O  O O   ooooooo ooooooooooooooooooooKKKK",
"KKKoooooooooooo oooo    oooo ooo o  ooooO O       O O O       O ooooooooooooooooooOoooooo+o++KKK",
"KKooooooooooo oooooo O Oooooooooo O oooo    O O  O      O O  O  oooooooo ooooooooooooooOo+oo+oKK",
"Ko ooo oooooooooooooooooooooooooooooo o O       O  O  O     O O ooooooooo oooooo+ooooooO+oo+o+oK",
"Koooooo ooooooooooooooooooo oooooooooooo   OO O     O   O O     oooooooo oooooooooo+oooooo+o+o+K",
"ooooooooooooooooooo oooooooooooooooooooo O     OOO O O O   O  O  oooooooooooooooooooooooo+o+o+o+",
"oooooooooooooooooooo oooooo oooo ooooooo  O O  O        O   O O o oooooooooooooo+oo+o+o++o+oo++o",
" ooo oooooooooooooooo ooo ooo oo O   O O O    O     O  O  O  O          ooooo+oooo+o+oo+o+o++o++",
"ooooooooo ooo ooo oo ooo o ooooo  O        O O  O O  37876877777898888883+oooooooo+ooo+o+o+o+oo+",
" oooo oo oooooooooo oooooooooooo     O  O          OOgmmnnmmmmnmmmmmmmmmx*ooooo+o+ooo++o+oo+o+++",
" ooooooooooooooooooo oooooooooooO O   OO   O O OO  OOjmmnnmmmmmmmmmmmmmmk* o+oooooo+o+o+o+o+++oo",
"oooooooooooo o oooooooo oooooooo  O          O   O  OgmmmmmmmmmmmmmmmmmmxOooo+oo+ooo+o+o+oo+o+++",
"ooooooooooooo oooooooo oooooooooO    O O OO   O   O OjmmmmmmmmmmmmmmmmmMl;ooooo++o+oo+o+o+++++o+",
"oooooooooooooooooooooooooooooooo     O              Ojmmmmmmmmmmmmmmmmmml;oo+o+ooo+++o+o++ooo+o+",
"ooooooo o oooooooooooooooooooooo O O     O OO O O O OjmmmmmmmmmmmmmmmmmMl#ooooooo+ooo+o++o++++++",
"ooooooooooooooooooO     oooooo ooooo ooooooooooo    Ogmmmmmmmmmmmmmmmmmmc#oooo++oo+oo+o+o+++o+++",
"oooooooo ooooooo o   O Oooooooo ooooo oooooooooo OO Ojmmmmmmmmmmmmmmmmmmk;oo+ooo++o++o++++oo++++",
"ooo ooooo oooooo O OO   oo oooooooo  ooooooooo o    OjmmmmmmmmmmmmmmmmBml*+o+oooo++o+o+o+o++++++",
"oo ooooooooooooo       Oooo ooooooooooooooooooo   O Ojmmmmmmmmmmmmmmmmmmk*+ooo+++oo+o+o++++o++++",
"ooo ooo oooo ooo       Ooooooooooooooooooooooooo OO Ogmmmmmmmmmmmmmmmmmmx;o+o++oo+o++o++++++++++",
"oo oooooooooo ooO O O   ooo ooooooooooooooooooo     OjmmmmmmmmmmmmmmmmmNx#ooooo++oo++o+oo++o+++@",
"ooo oooo ooo Ooo   O    oooooooooo ooooo    oo    O OjnnmmmmmmmmmmmmmmmNl;o++o+oo++oo+++++++++++",
"oooooooooooo  ooO   O O ooo o o ooo   ooO;,,,,;;O   Ognnmmmmmmmmmmmmmmmml* oo+o++o++++o+o++++++#",
"oooo    O oo ooo      O O O ooooo   ,rsmmASDDSAVmja3;jmmmmmmmmmmmmmmmmMNl*oo+o+oo++o+++++++++++@",
"ooooO O   oooooo O O O      ooo o,amAHHHJJJJJJJJJJJDBCCmmmmmmmmmmmmmmMmml*.+o+o+o++o+oo+++++++++",
"oooo   OooooooooO      O  O ooo3jAFHJJHJJJJJJJJJJJJJJJHDBBmmmmmmmmmmmmMMl*+o+o+o++o+o+++++++@+@@",
"ooooO   oooooooo   OO    O  o,jFFFHHJJJJJJJJJJJJJJJJJJJJBBBBmmmmmmmMMmmMl* +o++oo++++++++++@++++",
"o oooo  oo o ooo     O  O  OiAHHJJJJJJJJJJJJJJJJJJJJJJJJHHHDBmmmmmmmMmmNl*o++o++o++++++++@+++@@+",
" ooooo oooo oooo OO   O   ,cAAHHJJJJJJJJJJJJJJJJJJJJJJJJJHHFABmmmmMmmMmml*o+o++o++o++++++++++++@",
"oooooooooooooooo      O  6mAAFFFJJJJJJJJJJJJJJJJJJJJJJJJJJFFDAAmmmmmmMMMl*o+o++o++o++++++++++@++",
"ooooooooooooooooO O O   8mBBDDFFJJJJJJJJJJJJJJJJJJJJJJJJJJFFFAAABmMMmmMMl*o++o+++o++++++++@+@+@+",
"ooooooooooooo oooooooo 9DJJJJJJJJJJJJJJJJJJJJJJJJJJJJJJJJJJJJJJJDmmMmmMNl*o+o+++++++++++++@@+@+@",
"ooo oooooooooo oooooo 8DJJJJJJJJJJJJJJJJJJJJJJJJJJJJJJJJJJJJJJJJJANmmMmml*o++++oo++++++++@++@+@@",
"oo ooo ooooo ooooooo <ZJJJJJJJJJJJJJJJJJJJJJJJJJJJJJJJJJJJJJJJJJJJAMmmMNl*+o+o++++++@++@++@++@@+",
"ooo oooooooooooo o  ;mJJJJJJJJJJJJJJJJJJJJJJJJJJJJJJJJJJJJJJJJJJJJJCmMmMl*+++o++++++++++@++@@++@",
"oooooooooooooooooooogJJJJJJJJJJJJJJJJJJJJJJJJJJJJJJJJJJJJJJJJJJJJJJHBmmMl* ++++o+++@+@++@+@+@++@",
"ooooooooooo  ooo o 7DJJJJJJJJJJJJJJJJJJJJJJJJJJJJJJJJJJJJJJJJJJJJJJJSMmNl=++o++++++++++@+++@@@@@",
"oo ooooooo ooooo  OmJJJJJJJJJJJJJJJJJJJJJJJJJJJJJJJJJJJJJJJJJJJJJJJJJCmml*+o+++++++++++@+@+@+@@+",
"ooooooooooooooooo iHJJJJJJJJJJJJJJJJJJJJJJJJJJJJJJJJJJJJJJJJJJJJJJJJJDNNl*++++++++++@+@+@+@@+@@@",
" ooooooooooooooo OmJJJJJJJJJJJJJJJJJJJJJJJJJJJJJJJJJJJJJJJJJJJJJJJJJJJCMl=+++++++++++@+@++@@@@@@",
"o oooooooooooooo 9GJJJJJJJJJJJJJJJJJJJJJJJJJJJJJJJJJJJJJJJJJJJJJJJJJJJDNl*+o+++++@+@+@@+@@@+@++@",
"ooooooooooooooo ocJJJJJJJJJJJJJJJJJJJJJJJJJJJJJJJJJJJJJJJJJJJJJJJJJJJJHVl*X++++++++@@++@@+@+@@@@",
"ooooo oooooooo  ,AJJJJJJJJJJJJJJJJJJJJJJJDBmmmAHJJJJJJJJJJJJJJJJJJJJJJJAl*+++++@++@+++@@@@@@@@@@",
"ooooooooooooooo rJJJJJJJJJJJJJJJJJJJJJJAs6;ooO,iNJJJJJJJJJJJJJJJJJJJJJJGx=.+++@+@+++@+@++@@@@@@@",
"ooooooooooooooookJJJJJJJJJJJJJJJJJJJJJm<ooooooo *sDJJJJJJJJJJJJJJJJJJJJHv=+++++++@@+@@+@@@+@@@@@",
"oooo ooooooooo OBJJJJJJJJJJJJJJJJJJJJc; oooooooo oyGJJJJJJJJJJJJJJJJJJJJb*+++++@+@+@++@@+@@@@@@@",
"ooooo o oo  oo ,SJJJJJJJJJJJJJJJJJJJB;  oooooooooo fJJJJJJJJJJJJJJJJJJJJN=++@+++@+@+@@@+@@@@@@@@",
"oooo  ooooooo  6HJJJJJJJJJJJJJJJJJJHr oooooooo+o+oo=BJJJJJJJJJJJJJJJJJJJV=++++@++@+@+@+@@@@@@$@@",
"oooo OooooooooorJJJJJJJJJJJJJJJJJJJmOoooooooooooooo aJJJJJJJJJJJJJJJJJJJC=+++@+@@+@+@@@@@@@@@@@@",
"oo o   Ooooooo iJJJJJJJJJJJJJJJJJJJg oooo+ooo+oooo+ 2DJJJJJJJJJJJJJJJJJJZ@X++++++@@@@@@@@@@@@@@$",
"oo o O  oooooo gJJJJJJJJJJJJJJJJJJJr ooooooooo+o+o+o*CJJJJJJJJJJJJJJJJJJZ1++@+@@+@+@@++@@@@@$@@$",
"oooooo  oooooo gJJJJJJJJJJJJJJJJJJH8 ooooooooooooooo#BJJJJJJJJJJJJJJJJJJA1X+++@+@@@+@@@@@@@@@$@@",
"ooooooO oooooo fJJJJJJJJJJJJJJJJJJJr ooooo+ooo+oo++o#VJJJJJJJJJJJJJJJJJJZ-..+@+@@+@@@@@@@@@@@$@$",
"ooooo   oooooo iJJJJJJJJJJJJJJJJJJJa oooooooo+oooo+.:SJJJJJJJJJJJJJJJJJJZ1.X@+@@+@@@@@@@@@@$@@@@",
"oooo  O oooooooiJJJJJJJJJJJJJJJJJJJv+oooo+oooo+++oo eHJJJJJJJJJJJJJJJJJJC=XX+@@+@@+@@@@@@$@@$@$$",
"        oo ooo 7HJJJJJJJJJJJJJJJJJJD< ooooooo+oooo++cJJJJJJJJJJJJJJJJJJJC=@+@++@@@@@@@@@$@@@$@@$",
"  O  O Ooo  ooo<DJJJJJJJJJJJJJJJJJJJkOoo+oo+oo+o++ 8DJJJJJJJJJJJJJJJJJJJB=+@+@@@@@@@@@@@@@$@@$$@",
" O OO   oooOooo;ZJJJJJJJJJJJJJJJJJJJHaoooooo++ooo ,CJJJJJJJJJJJJJJJJJJJJn$@+@@+@+@@@@@@@$@@$$$$$",
"   O   Oooo oo OcJJJJJJJJJJJJJJJJJJJJFa# o++ooo..2BJJJJJJJJJJJJJJJJJJJJJb=+@+@@@@@@@@@$@@@$@$@@$",
"   O  O ooooooo sJJJJJJJJJJJJJJJJJJJJJHc4#    o>dSJJJJJJJJJJJJJJJJJJJJJHv-X@@@@@@@@@@@@@@$@$$$$@",
"O   O   oooooo  3DJJJJJJJJJJJJJJJJJJJJJJDmfuudlZHJJJJJJJJJJJJJJJJJJJJJJDz=X+@++@@@@@@$@$$@$@@@$$",
" O O  ooooooooo OmJJJJJJJJJJJJJJJJJJJJJJJJJJHJJJJJJJJJJJJJJJJJJJJJJJJJHCz=@+@@@@@@@$$@@$@$@$$$$$",
"     ooooooooo o aJJJJJJJJJJJJJJJJJJJJJJJJJJJJJJJJJJJJJJJJJJJJJJJJJJJJFBz=@@@@@@@@@@@@$@@$$@$$$$",
" O  O O      O   ;mBJJJJJJJJJJJJJJJJJJJJJJJJJJJJJJJJJJJJJJJJJJJJJJJJJJZMl-@@@@@@@@@$@@$$@$$$@$$$",
"   O  O O O    OO gBJHJJJJJJJJJJJJJJJJJJJJJJJJJJJJJJJJJJJJJJJJJJJJJJJHBBl-@@+@@@$@@@$@@$@$$@$$$$",
"O O     O O     oo;BHHFFJJJJJJJJJJJJJJJJJJJJJJJJJJJJJJJJJJJJJJJJJJJJJZMMz-@@@@@@@@$@@$$$$$$$$$$$",
"    O O     O O ooOiHHFFJJJJJJJJJJJJJJJJJJJJJJJJJJJJJJJJJJJJJJJJJJJJFMMMl=@@@@@@$@$@@$@@$@$$$$%$",
"O O  O  O       oooOnBDFJJJJJJJJJJJJJJJJJJJJJJJJJJJJJJJJJJJJJJJJJJJHCMMMz-@@@@@$@@@$@$@$$$$$$$%$",
"      O    OO O oooo3BDAJJJJJJJJJJJJJJJJJJJJJJJJJJJJJJJJJJJJJJJJJJJSMMMMl-@@@@@@@$@$@$$$$$$$$$%$",
"  O O   O O    OooooOrAAJJJJJJJJJJJJJJJJJJJJJJJJJJJJJJJJJJJJJJJJJJDMMMMMz-@@@$@@@$@@$$$@$$$$$$$%",
" O     O    O   oooooofAJJJJJJJJJJJJJJJJJJJJJJJJJJJJJJJJJJJJJJJJJGVMMMMMv$@@@@$@$@$$$@$$$$$$%$%$",
"   O O        OOoooooo#hHJJJJJJJJJJJJJJJJJJJJJJJJJJJJJJJJJJJJJJJHVMMMMMMz&%$@@$@$@$$@$$$$$$$$%$%",
"O      O O O O  oooooo #hHJJJJJJJJJJJJJJJJJJJJJJJJJJJJJJJJJJJJJGVMMMMMMVz&@@@$@$@$@@$$$$$$%$%$$%",
" O O O  O       ooooooo OsHJJJJJJJJJJJJJJJJJJJJJJJJJJJJJJJJJJJGVMMMMMMMMz$@$@@@$$$$$$$$$$$%$$%%%",
"      O    O O Oo oooooo otAJJJJJJJJJJJJJJJJJJJJJJJJJJJJJJJJHDNMMMMMMMMMz1@@$@$@$@@$$$$$$$$%%$%$",
" O  O  O     O   ooooooooo 2cHJJJJJJJJJJJJJJJJJJJJJJJJJJJJJGZMMMMMMMMMMMz-@$@$@$@$$@$$$$$%%$%%$%",
"   O     OO    Ooooooo+ooo+ OiCJJJJJJJJJJJJJJJJJJJJJJJJJJHSBMMMMMMMMMMMMz-X$$@$@$$$$$$$%$$$%$%%%",
"O O O OO      O ooooooo++ooo. ;sCHJJJJJJJJJJJJJJJJJJJJJHDCMMMMMMMMMMMMMMz-$@@$$$$$$$$$$$%$$%%$%%",
"        O O O   ooooooooooo+oooo:tbSJJJJJJJJJJJJJJJJJGSBMMMMMMMMMMMMMMMVz-$$$@@$@$$$%$$%$%%$%%%%",
"oooooooooo oooooooooooooo++oo+o++ #1ulBSGHJJHJJJJHDZCNMMMMMMMNMMMMMMMMMNz-@$$$$$$$$$$%$$%%%$%%%%",
"oooooooooooooooooooooo+ooooo+o+oo+. . #15quadauutqq9qqqeqqqqwqqqwwwwwwww0$$@@@$$$$$$$$%$%$%$%%%%",
"ooooooooooooooooooooo++o+o+o+ooo+o++ +o . ... .X...X.XX.XXXXXX@@XXXX$$XX@$@$$$$$$$$%$%%$%%%%%%%%",
"ooooooooooooooooooooooooooo+o+o+o+oo++++++++++.+++@++.@++++@@@@@$@@@X$@$$@$$@$$$$$$$$%$%$%%%%%%%",
"ooo  oo oo ooooooooooo+oo++o+oo++o++o+o+++++++++@@++@+@@@+@@@@@@@@@$$@$@@@$$$$$$%$%$%$$%%%%%&&%&",
"oo ooo ooo oooo+o+o+o+ooooo+o+o+o++o++++o++++++@+++@+@@+@@@@@@@@@@@@@@@$$$@$$$$$$$$$$%%%%%%%%%&%",
"ooooooooooooooooo+oooo+++o+oo++oo++o+o++++++@+@+++@+@++@+@+@@@@@@@$@@$@$$@$$$$$$%%$%%$%$%%%&&%%&",
"oooooooooooooooooooo+oooo+o+oo+++o++++o+++++++++@@+@+@@@@@@@@@@@$@$@$@$@$$$$$$$$$$%$%%%%%%%%%%&&",
"ooooooooooooooo++oo+o++oo+o+oo+o+o+o+++++++@@+@++@+@@@@+@@@@@@@$@@@$@$$@$$$$$$$%%$%$%%%%%%%%&%&&",
"oooo ooooooooooooooooooo+oo++++++o++++++++++++++@+@++@@@@@@@@@@@@$$@$@$$$$$$$$$$$%$%%%%%%%&%&&&&",
"Kooooooooooo+ooooo+o+oo+o+o++oo++++++++++++++@+@++@@@@@@@@@@@@$@@$@$$@$@$$$$$$$%%$$%$%%%%%&&%&&K",
"KOoooooooooooo+oo+ooo++o+o+o++o++o+o+++++@+@++@+@@+@+@+@@@@@@@@$$@$@$$$$$$$$$%%$%%%%%%%%%%&%&&&K",
"KKooooooooo+oo+ooo+oo+o+o+o+oo+++++++++++@+++@+@+@@@@@@@@@@@@@@$$@$$@$$$$$$$$%$%$%$%%%%%%%%&&&KK",
"KKKooooooooo+ooo+o+oo++o+o++++o+o++++++++++@@+@+@@+@@@@@@@$@@$@@@$@@$$@$$%$%$$%$%%%%%&%&&&&&&KKK",
"KKKKoOooo+oooo+oooo++o+o+o+oo++++++++++@@++@+@+@+@@++@@@@@@@$@@$$@$$$$$$$$$$%$$%$%%%%%%%&&&&KKKK",
"KKKKKKooooo+oooo+o+oo+o+o+o+++o+++++@+++++@+@+@+@@@@@@@@@@$@@$$@$$@$$$$$$$%$%%%%%%%%%%&&&%KKKKKK"
};
