<svg id="Ebene_1" data-name="Ebene 1" xmlns="http://www.w3.org/2000/svg" xmlns:xlink="http://www.w3.org/1999/xlink" viewBox="0 0 1024 1024"><defs><style>.cls-1{fill:url(#Unbenannter_Verlauf_4);}.cls-2,.cls-3{fill:#fff;}.cls-2{opacity:0.72;}</style><linearGradient id="Unbenannter_Verlauf_4" x1="19.06" y1="122.24" x2="1073.02" y2="955.6" gradientUnits="userSpaceOnUse"><stop offset="0.05" stop-color="#8b319b"/><stop offset="0.41" stop-color="#8b319b"/><stop offset="0.59" stop-color="#91319b"/><stop offset="0.82" stop-color="#a1319b"/><stop offset="0.97" stop-color="#b0319b"/></linearGradient></defs><rect class="cls-1" width="1024" height="1024" rx="97.5"/><path class="cls-2" d="M777.79,868V102.94H567.41V271a305.22,305.22,0,0,0-95.81-15.64c-168.89,0-305.81,138-305.81,306.93S302.71,868,471.6,868Zm-402-305.8a95.82,95.82,0,1,1,95.82,95.82A95.82,95.82,0,0,1,375.78,562.24Z"/><path class="cls-3" d="M471.67,255.51c-169.15,0-306.27,137.12-306.27,306.27S302.52,868,471.67,868,777.94,730.92,777.94,561.78,640.82,255.51,471.67,255.51Zm0,402.69a96.43,96.43,0,1,1,96.42-96.42A96.43,96.43,0,0,1,471.67,658.2Z"/></svg>