<svg id="Ebene_1" data-name="Ebene 1" xmlns="http://www.w3.org/2000/svg" xmlns:xlink="http://www.w3.org/1999/xlink" viewBox="0 0 1024 1024"><defs><style>.cls-1{fill:url(#Unbenannter_Verlauf_219);}.cls-2{fill:#fff;}</style><linearGradient id="Unbenannter_Verlauf_219" x1="47.75" y1="108.88" x2="1045.87" y2="975.57" gradientUnits="userSpaceOnUse"><stop offset="0" stop-color="#8b319b"/><stop offset="0.41" stop-color="#93319b"/><stop offset="0.97" stop-color="#99319b"/></linearGradient></defs><rect class="cls-1" width="1024" height="1024" rx="107.21"/><path class="cls-2" d="M677.64,430.2q0-9.74-6.62-15.07t-19-5.32q-12.37,0-19,5.35t-6.62,15v38.63q0,9.68,6.59,15.06t19,5.38q12.38,0,19-5.35t6.62-15.09ZM660.34,467a9.06,9.06,0,0,1-2.1,6.42c-1.39,1.5-3.47,2.25-6.22,2.25s-4.83-.75-6.22-2.25a9.06,9.06,0,0,1-2.1-6.42V432a9.22,9.22,0,0,1,2.06-6.4c1.38-1.51,3.46-2.27,6.26-2.27s4.83.76,6.22,2.27a9.09,9.09,0,0,1,2.1,6.4Z"/><path class="cls-2" d="M260.49,570.25q6.61-5.34,6.62-15.09V516.53q0-9.73-6.62-15.06t-19-5.32a41.18,41.18,0,0,0-10.5,1.23,277.39,277.39,0,0,0-7.07,62.37c0,3.93.1,7.84.27,11.73q6.41,4.13,17.3,4.12Q253.87,575.6,260.49,570.25Zm-27.32-16.91v-35a9.19,9.19,0,0,1,2.06-6.39c1.38-1.52,3.46-2.28,6.26-2.28s4.82.76,6.22,2.28a9.07,9.07,0,0,1,2.1,6.39v35a9,9,0,0,1-2.1,6.42q-2.1,2.25-6.22,2.25t-6.23-2.25A9.07,9.07,0,0,1,233.17,553.34Z"/><path class="cls-2" d="M253.65,583.34H237.47l-12.09,4.91q.74,7.25,1.85,14.36l9.11-3.11v42.4q3,9.78,6.78,19.24h10.53Z"/><path class="cls-2" d="M365.64,801V756H349.47l-13.18,5.35v14.93l12-4.12v18.34Q356.78,796.08,365.64,801Z"/><path class="cls-2" d="M310.23,656.59q6.63-5.36,6.62-15.09V602.87q0-9.74-6.62-15.06t-19-5.33q-12.37,0-19,5.35t-6.62,15V641.5q0,9.69,6.59,15.06t19,5.38Q303.61,661.94,310.23,656.59Zm-27.32-16.91v-35a9.22,9.22,0,0,1,2.06-6.4Q287,596,291.23,596c2.75,0,4.83.76,6.22,2.27a9.09,9.09,0,0,1,2.1,6.4v35a9.06,9.06,0,0,1-2.1,6.42c-1.39,1.5-3.47,2.25-6.22,2.25s-4.82-.75-6.22-2.25A9.06,9.06,0,0,1,282.91,639.68Z"/><path class="cls-2" d="M249.94,669.67l-2.77,1.13a277.17,277.17,0,0,0,18.94,35.7V669.67Z"/><path class="cls-2" d="M428.85,775.54q0-9.74-6.63-15.06t-19-5.33q-12.37,0-19,5.35t-6.62,15v31.79q8.64,4.27,17.62,8a12.76,12.76,0,0,1-.32-2.95v-35A9.18,9.18,0,0,1,397,771c1.37-1.51,3.46-2.27,6.25-2.27s4.83.76,6.23,2.27a9.14,9.14,0,0,1,2.09,6.4v35a9.1,9.1,0,0,1-2.09,6.42,6.68,6.68,0,0,1-1.75,1.31c5.85,2.07,11.79,4,17.81,5.65a19.5,19.5,0,0,0,3.34-11.56Z"/><path class="cls-2" d="M422.22,674.14q-6.62-5.32-19-5.32t-19,5.35q-6.62,5.36-6.62,15v38.63q0,9.69,6.59,15.07t19,5.37q12.39,0,19-5.35t6.63-15.09V689.2Q428.85,679.47,422.22,674.14ZM411.54,726a9.1,9.1,0,0,1-2.09,6.42q-2.1,2.23-6.23,2.24T397,732.44a9.06,9.06,0,0,1-2.1-6.42V691a9.17,9.17,0,0,1,2.07-6.39c1.37-1.52,3.46-2.28,6.25-2.28s4.83.76,6.23,2.28a9.13,9.13,0,0,1,2.09,6.39Z"/><polygon class="cls-2" points="676.64 574.8 676.64 497 660.47 497 647.29 502.35 647.29 517.28 659.34 513.16 659.34 574.8 676.64 574.8"/><path class="cls-2" d="M564.19,430.2v38.63q0,9.68,6.59,15.06t19,5.38q12.38,0,19-5.35t6.62-15.09V430.2q0-9.74-6.62-15.07t-19-5.32q-12.37,0-19,5.35T564.19,430.2Zm17.3,1.82a9.22,9.22,0,0,1,2.06-6.4q2.07-2.26,6.26-2.27c2.75,0,4.83.76,6.22,2.27a9.09,9.09,0,0,1,2.1,6.4v35a9.06,9.06,0,0,1-2.1,6.42c-1.39,1.5-3.47,2.25-6.22,2.25s-4.82-.75-6.22-2.25a9.06,9.06,0,0,1-2.1-6.42Z"/><polygon class="cls-2" points="597.13 402.13 614.44 402.13 614.44 324.33 598.26 324.33 585.09 329.68 585.09 344.61 597.13 340.49 597.13 402.13"/><polygon class="cls-2" points="746.82 776.29 758.87 772.17 758.87 833.81 776.17 833.81 776.17 756.01 760 756.01 746.82 761.36 746.82 776.29"/><path class="cls-2" d="M549.14,488.46h3.09V410.67H536.05L522.88,416V431l12-4.12v53.7A86.5,86.5,0,0,1,549.14,488.46Z"/><path class="cls-2" d="M533.46,311.22q6.59,5.37,19,5.38t19-5.35q6.63-5.36,6.63-15.09v-1.33q-8.55-2.5-17.31-4.5v4a9.1,9.1,0,0,1-2.09,6.42q-2.1,2.25-6.23,2.25t-6.22-2.25a9.06,9.06,0,0,1-2.1-6.42v-7.23q-8.56-1.38-17.3-2.23v11.28Q526.87,305.84,533.46,311.22Z"/><path class="cls-2" d="M500.1,473.22a86,86,0,0,1,14.81,1.29V410.67H498.74L485.56,416V431l12.05-4.12v46.45C498.44,473.26,499.26,473.22,500.1,473.22Z"/><polygon class="cls-2" points="738.85 669.67 722.68 669.67 709.5 675.02 709.5 689.95 721.55 685.83 721.55 747.47 738.85 747.47 738.85 669.67"/><polygon class="cls-2" points="713.96 488.46 713.96 410.67 697.79 410.67 684.61 416.02 684.61 430.95 696.66 426.83 696.66 488.46 713.96 488.46"/><polygon class="cls-2" points="738.85 833.81 738.85 756.01 722.68 756.01 709.5 761.36 709.5 776.29 721.55 772.17 721.55 833.81 738.85 833.81"/><path class="cls-2" d="M285.34,415.13c-4.09-3.28-9.85-5-17.23-5.27a275.45,275.45,0,0,0-27.39,54.84v4.13q0,9.68,6.59,15.06t19,5.38q12.38,0,19-5.35T292,468.83V430.2Q292,420.47,285.34,415.13ZM274.66,467a9.06,9.06,0,0,1-2.1,6.42c-1.39,1.5-3.47,2.25-6.22,2.25s-4.83-.75-6.22-2.25A9.06,9.06,0,0,1,258,467V432a9.22,9.22,0,0,1,2.06-6.4c1.38-1.51,3.46-2.27,6.26-2.27s4.83.76,6.22,2.27a9.09,9.09,0,0,1,2.1,6.4Z"/><polygon class="cls-2" points="776.17 229.46 776.17 151.66 760 151.66 746.82 157.01 746.82 171.94 758.87 167.82 758.87 229.46 776.17 229.46"/><polygon class="cls-2" points="746.82 603.62 758.87 599.5 758.87 661.13 776.17 661.13 776.17 583.34 760 583.34 746.82 588.69 746.82 603.62"/><polygon class="cls-2" points="664.22 747.47 664.22 669.67 648.05 669.67 634.87 675.02 634.87 689.95 646.91 685.83 646.91 747.47 664.22 747.47"/><polygon class="cls-2" points="746.82 689.95 758.87 685.83 758.87 747.47 776.17 747.47 776.17 669.67 760 669.67 746.82 675.02 746.82 689.95"/><polygon class="cls-2" points="776.17 574.8 776.17 497 760 497 746.82 502.35 746.82 517.28 758.87 513.16 758.87 574.8 776.17 574.8"/><path class="cls-2" d="M739.85,602.87q0-9.74-6.62-15.06t-19-5.33q-12.37,0-19,5.35t-6.63,15V641.5q0,9.69,6.59,15.06t19,5.38q12.38,0,19-5.35t6.62-15.09Zm-17.3,36.81a9.06,9.06,0,0,1-2.1,6.42q-2.1,2.25-6.22,2.25c-2.75,0-4.83-.75-6.22-2.25a9.06,9.06,0,0,1-2.1-6.42v-35a9.22,9.22,0,0,1,2.06-6.4c1.38-1.51,3.46-2.27,6.26-2.27s4.82.76,6.22,2.27a9.09,9.09,0,0,1,2.1,6.4Z"/><path class="cls-2" d="M341,668.82q-12.37,0-19,5.35t-6.62,15v38.63q0,9.69,6.59,15.07t19,5.37q12.39,0,19-5.35t6.62-15.09V689.2q0-9.74-6.62-15.06T341,668.82Zm8.32,57.2a9.1,9.1,0,0,1-2.09,6.42q-2.1,2.23-6.23,2.24t-6.22-2.24A9.06,9.06,0,0,1,332.7,726V691a9.16,9.16,0,0,1,2.06-6.39c1.37-1.52,3.46-2.28,6.25-2.28s4.83.76,6.23,2.28a9.13,9.13,0,0,1,2.09,6.39Z"/><path class="cls-2" d="M312.15,756l-4.49,1.82q9.87,9.58,20.66,18.18V756Z"/><path class="cls-2" d="M322.7,501.47q-6.63-5.33-19-5.32t-19,5.35q-6.63,5.34-6.63,15v38.63q0,9.69,6.59,15.07t19,5.37q12.38,0,19-5.35t6.62-15.09V516.53Q329.32,506.8,322.7,501.47ZM312,553.34a9,9,0,0,1-2.1,6.42q-2.1,2.25-6.22,2.25c-2.76,0-4.83-.75-6.23-2.25a9.07,9.07,0,0,1-2.09-6.42v-35a9.15,9.15,0,0,1,2.06-6.39q2.06-2.28,6.26-2.28t6.22,2.28a9.07,9.07,0,0,1,2.1,6.39Z"/><polygon class="cls-2" points="323.82 588.69 323.82 603.62 335.87 599.5 335.87 661.13 353.17 661.13 353.17 583.34 337 583.34 323.82 588.69"/><path class="cls-2" d="M578.12,641.5V602.87a24.61,24.61,0,0,0-.45-4.74,86.81,86.81,0,0,1-16.86,23.27v18.28a9.1,9.1,0,0,1-2.09,6.42q-2.1,2.25-6.23,2.25t-6.22-2.25a9.06,9.06,0,0,1-2.1-6.42v-5.46A85.61,85.61,0,0,1,526.89,642c.13,6.19,2.3,11,6.57,14.52s10.74,5.38,19,5.38,14.59-1.79,19-5.35S578.12,648,578.12,641.5Z"/><polygon class="cls-2" points="701.54 833.81 701.54 756.01 685.36 756.01 672.18 761.36 672.18 776.29 684.23 772.17 684.23 833.81 701.54 833.81"/><polygon class="cls-2" points="602.01 833.81 602.01 756.01 585.84 756.01 572.66 761.36 572.66 776.29 584.71 772.17 584.71 833.81 602.01 833.81"/><polygon class="cls-2" points="564.69 833.81 564.69 756.01 548.52 756.01 535.34 761.36 535.34 776.29 547.39 772.17 547.39 833.81 564.69 833.81"/><polygon class="cls-2" points="564.69 669.67 548.52 669.67 535.34 675.02 535.34 689.95 547.39 685.83 547.39 747.47 564.69 747.47 564.69 669.67"/><polygon class="cls-2" points="390.49 661.13 390.49 583.34 374.32 583.34 361.14 588.69 361.14 603.62 373.19 599.5 373.19 661.13 390.49 661.13"/><path class="cls-2" d="M347.55,415.13q-6.63-5.31-19-5.32t-19,5.35q-6.63,5.35-6.62,15v38.63q0,9.68,6.58,15.06t19,5.38q12.38,0,19-5.35t6.62-15.09V430.2Q354.17,420.47,347.55,415.13ZM336.87,467a9.06,9.06,0,0,1-2.1,6.42q-2.1,2.25-6.22,2.25c-2.75,0-4.83-.75-6.22-2.25a9.06,9.06,0,0,1-2.1-6.42V432a9.22,9.22,0,0,1,2.06-6.4c1.38-1.51,3.46-2.27,6.26-2.27s4.82.76,6.22,2.27a9.09,9.09,0,0,1,2.1,6.4Z"/><path class="cls-2" d="M303.43,669.67H287.26L274.08,675V690l12.05-4.12v48.53q5.49,6.74,11.42,13.11h5.88Z"/><path class="cls-2" d="M273.66,402.13H291V379.37a278.84,278.84,0,0,0-17.3,22.26Z"/><path class="cls-2" d="M449,756l-13.18,5.35v14.93l12.05-4.12V831c5.71,1.09,11.48,2,17.31,2.76V756Z"/><path class="cls-2" d="M733.23,501.47q-6.63-5.33-19-5.32t-19,5.35q-6.63,5.34-6.63,15v38.63q0,9.69,6.59,15.07t19,5.37q12.38,0,19-5.35t6.62-15.09V516.53Q739.85,506.8,733.23,501.47Zm-10.68,51.87a9,9,0,0,1-2.1,6.42q-2.1,2.25-6.22,2.25c-2.75,0-4.83-.75-6.22-2.25a9,9,0,0,1-2.1-6.42v-35A9.19,9.19,0,0,1,708,512c1.38-1.52,3.46-2.28,6.26-2.28s4.82.76,6.22,2.28a9.07,9.07,0,0,1,2.1,6.39Z"/><path class="cls-2" d="M409.76,328.8q-6.63-5.32-19-5.32t-19,5.35q-6.63,5.34-6.63,15v38.63q0,9.69,6.59,15.06t19,5.38q12.38,0,19-5.35t6.62-15.09V343.86Q416.38,334.13,409.76,328.8Zm-10.68,51.87a9,9,0,0,1-2.1,6.42q-2.1,2.25-6.22,2.25t-6.23-2.25a9.07,9.07,0,0,1-2.09-6.42v-35a9.18,9.18,0,0,1,2.06-6.39c1.38-1.52,3.46-2.28,6.26-2.28s4.82.76,6.22,2.28a9,9,0,0,1,2.1,6.39Z"/><path class="cls-2" d="M739.85,382.49V343.86q0-9.74-6.62-15.06t-19-5.32q-12.37,0-19,5.35t-6.63,15v38.63q0,9.69,6.59,15.06t19,5.38q12.38,0,19-5.35T739.85,382.49Zm-17.3-1.82a9,9,0,0,1-2.1,6.42q-2.1,2.25-6.22,2.25c-2.75,0-4.83-.75-6.22-2.25a9,9,0,0,1-2.1-6.42v-35a9.18,9.18,0,0,1,2.06-6.39c1.38-1.52,3.46-2.28,6.26-2.28s4.82.76,6.22,2.28a9,9,0,0,1,2.1,6.39Z"/><path class="cls-2" d="M340.28,516.53v38.63q0,9.69,6.59,15.07t19,5.37q12.38,0,19-5.35t6.62-15.09V516.53q0-9.73-6.62-15.06t-19-5.32q-12.39,0-19,5.35T340.28,516.53Zm17.31,1.82a9.15,9.15,0,0,1,2.06-6.39q2.06-2.28,6.26-2.28t6.22,2.28a9.06,9.06,0,0,1,2.09,6.39v35c0,2.79-.69,4.93-2.09,6.42s-3.47,2.25-6.22,2.25-4.83-.75-6.23-2.25-2.09-3.63-2.09-6.42Z"/><path class="cls-2" d="M472,328.8q-6.63-5.32-19-5.32t-19,5.35q-6.63,5.34-6.63,15v38.63q0,9.69,6.59,15.06t19,5.38q12.38,0,19-5.35t6.62-15.09V343.86Q478.59,334.13,472,328.8Zm-10.68,51.87a9,9,0,0,1-2.1,6.42q-2.1,2.25-6.22,2.25t-6.23-2.25a9.07,9.07,0,0,1-2.09-6.42v-35a9.13,9.13,0,0,1,2.06-6.39c1.38-1.52,3.46-2.28,6.26-2.28s4.82.76,6.22,2.28a9,9,0,0,1,2.1,6.39Z"/><path class="cls-2" d="M365.13,468.83q0,9.68,6.59,15.06t19,5.38q12.38,0,19-5.35t6.62-15.09V430.2q0-9.74-6.62-15.07t-19-5.32q-12.37,0-19,5.35t-6.63,15ZM382.44,432a9.22,9.22,0,0,1,2.06-6.4c1.38-1.51,3.46-2.27,6.26-2.27s4.82.76,6.22,2.27a9.09,9.09,0,0,1,2.1,6.4v35a9.06,9.06,0,0,1-2.1,6.42q-2.1,2.25-6.22,2.25t-6.23-2.25a9.1,9.1,0,0,1-2.09-6.42Z"/><path class="cls-2" d="M334.77,339.29a9,9,0,0,1,2.1,6.39v35a9,9,0,0,1-2.1,6.42q-2.1,2.25-6.22,2.25c-2.75,0-4.83-.75-6.22-2.25a9,9,0,0,1-2.1-6.42V350.19q-9,7.72-17.3,16.21v16.09q0,9.69,6.58,15.06t19,5.38q12.38,0,19-5.35t6.62-15.09V343.86c0-6.25-2.07-11.12-6.16-14.65q-7,4.62-13.69,9.64A4.67,4.67,0,0,1,334.77,339.29Z"/><path class="cls-2" d="M478.59,430.2q0-9.74-6.62-15.07t-19-5.32q-12.39,0-19,5.35t-6.63,15v38.63q0,9.68,6.59,15.06,5.79,4.73,16.12,5.3a86.13,86.13,0,0,1,27.34-12.94,22.2,22.2,0,0,0,1.2-7.42ZM461.29,467a9.06,9.06,0,0,1-2.1,6.42q-2.1,2.25-6.22,2.25t-6.23-2.25a9.1,9.1,0,0,1-2.09-6.42V432a9.17,9.17,0,0,1,2.06-6.4c1.38-1.51,3.46-2.27,6.26-2.27s4.82.76,6.22,2.27a9.09,9.09,0,0,1,2.1,6.4Z"/><path class="cls-2" d="M633.7,587.81q-6.62-5.32-19-5.33t-19,5.35q-6.62,5.35-6.62,15V641.5q0,9.69,6.59,15.06t19,5.38q12.38,0,19-5.35t6.63-15.09V602.87Q640.33,593.14,633.7,587.81ZM623,639.68a9.1,9.1,0,0,1-2.09,6.42q-2.1,2.25-6.23,2.25t-6.22-2.25a9.06,9.06,0,0,1-2.1-6.42v-35a9.18,9.18,0,0,1,2.07-6.4c1.37-1.51,3.46-2.27,6.25-2.27s4.83.76,6.23,2.27a9.14,9.14,0,0,1,2.09,6.4Z"/><path class="cls-2" d="M378.07,312c-2.53,1.24-5,2.53-7.51,3.84h7.51Z"/><polygon class="cls-2" points="776.17 402.13 776.17 324.33 760 324.33 746.82 329.68 746.82 344.61 758.87 340.49 758.87 402.13 776.17 402.13"/><path class="cls-2" d="M770.55,242.46q-6.63-5.31-19-5.32t-19,5.35q-6.62,5.35-6.62,15v38.63q0,9.68,6.59,15.06t19,5.38q12.38,0,19-5.35a17,17,0,0,0,5.73-8.58V251A17,17,0,0,0,770.55,242.46Zm-10.68,51.88a9.06,9.06,0,0,1-2.1,6.42q-2.1,2.25-6.22,2.25c-2.76,0-4.83-.75-6.23-2.25a9.1,9.1,0,0,1-2.09-6.42v-35a9.17,9.17,0,0,1,2.06-6.4c1.38-1.51,3.46-2.27,6.26-2.27s4.82.76,6.22,2.27a9.09,9.09,0,0,1,2.1,6.4Z"/><path class="cls-2" d="M514.91,315.79V284c-4.9-.26-9.84-.41-14.81-.41l-2.49,0v32.19Z"/><path class="cls-2" d="M415.38,315.79v-19q-8.78,2.84-17.3,6.21v12.75Z"/><polygon class="cls-2" points="738.86 229.46 738.86 151.66 722.68 151.66 709.5 157.01 709.5 171.94 721.55 167.82 721.55 229.46 738.86 229.46"/><path class="cls-2" d="M586.64,229.32a23.25,23.25,0,0,0,9.75-4.41q6.61-5.35,6.62-15.09V171.19q0-9.74-6.62-15.06a23.35,23.35,0,0,0-9.75-4.39Z"/><path class="cls-2" d="M461.29,294.34a9.06,9.06,0,0,1-2.1,6.42Q457.09,303,453,303t-6.23-2.25a9.1,9.1,0,0,1-2.09-6.42v-5.2c-5.84,1.19-11.61,2.59-17.31,4.14v2.88q0,9.68,6.59,15.06t19,5.38q12.38,0,19-5.35t6.62-15.09V284.4c-5.82.45-11.59,1.1-17.3,1.9Z"/><path class="cls-2" d="M770.55,415.13q-6.63-5.31-19-5.32t-19,5.35q-6.62,5.35-6.62,15v38.63q0,9.68,6.59,15.06t19,5.38q12.38,0,19-5.35a17,17,0,0,0,5.73-8.58V423.69A17,17,0,0,0,770.55,415.13ZM759.87,467a9.06,9.06,0,0,1-2.1,6.42q-2.1,2.25-6.22,2.25c-2.76,0-4.83-.75-6.23-2.25a9.1,9.1,0,0,1-2.09-6.42V432a9.17,9.17,0,0,1,2.06-6.4c1.38-1.51,3.46-2.27,6.26-2.27s4.82.76,6.22,2.27a9.09,9.09,0,0,1,2.1,6.4Z"/><path class="cls-2" d="M500.1,646.29c-1.24,0-2.47,0-3.69-.09a8.2,8.2,0,0,1-6.13,2.15q-4.12,0-6.22-2.25a6.78,6.78,0,0,1-1.05-1.51,85.85,85.85,0,0,1-18.35-5.89v2.8q0,9.69,6.59,15.06t19,5.38q12.39,0,19-5.35a17.43,17.43,0,0,0,6.37-11.72A86.67,86.67,0,0,1,500.1,646.29Z"/><polygon class="cls-2" points="527.38 747.47 527.38 669.67 511.2 669.67 498.02 675.02 498.02 689.95 510.07 685.83 510.07 747.47 527.38 747.47"/><path class="cls-2" d="M398.5,502.35v14.93l12-4.12V574.8h4.36a86.17,86.17,0,0,1,13-62.66V497H411.68Z"/><path class="cls-2" d="M564.69,502.19V497h-5C561.4,498.66,563.09,500.39,564.69,502.19Z"/><path class="cls-2" d="M453.7,641.5v-8.72a87.09,87.09,0,0,1-17.31-14.47v21.37a9.06,9.06,0,0,1-2.09,6.42q-2.1,2.25-6.22,2.25c-2.76,0-4.83-.75-6.23-2.25a9.06,9.06,0,0,1-2.09-6.42v-35a9.17,9.17,0,0,1,2.06-6.4c.17-.18.35-.35.54-.52a84.48,84.48,0,0,1-5.36-13.9,22.29,22.29,0,0,0-7.93,4q-6.61,5.35-6.62,15V641.5q0,9.69,6.59,15.06t19,5.38q12.38,0,19-5.35T453.7,641.5Z"/><path class="cls-2" d="M571.49,328.8q-6.62-5.32-19-5.32t-19,5.35q-6.62,5.34-6.62,15v38.63q0,9.69,6.59,15.06t19,5.38q12.39,0,19-5.35t6.63-15.09V343.86Q578.12,334.13,571.49,328.8Zm-10.68,51.87a9.07,9.07,0,0,1-2.09,6.42q-2.1,2.25-6.23,2.25t-6.22-2.25a9,9,0,0,1-2.1-6.42v-35a9.13,9.13,0,0,1,2.07-6.39c1.37-1.52,3.46-2.28,6.25-2.28s4.83.76,6.23,2.28a9.09,9.09,0,0,1,2.09,6.39Z"/><path class="cls-2" d="M671,328.8q-6.62-5.32-19-5.32t-19,5.35q-6.63,5.34-6.62,15v38.63q0,9.69,6.59,15.06t19,5.38q12.38,0,19-5.35t6.62-15.09V343.86Q677.64,334.13,671,328.8Zm-10.68,51.87a9,9,0,0,1-2.1,6.42c-1.39,1.5-3.47,2.25-6.22,2.25s-4.83-.75-6.22-2.25a9,9,0,0,1-2.1-6.42v-35a9.18,9.18,0,0,1,2.06-6.39c1.38-1.52,3.46-2.28,6.26-2.28s4.83.76,6.22,2.28a9,9,0,0,1,2.1,6.39Z"/><path class="cls-2" d="M602,574.8V497H585.84l-13.18,5.35v10.27c.82,1.26,1.61,2.55,2.36,3.85l9.69-3.31v28.4a86.29,86.29,0,0,1,.6,33.24Z"/><polygon class="cls-2" points="609.98 502.35 609.98 517.28 622.02 513.16 622.02 574.8 639.33 574.8 639.33 497 623.15 497 609.98 502.35"/><path class="cls-2" d="M446.4,742.9q6.59,5.37,19,5.37t19-5.35q6.63-5.34,6.63-15.09V689.2q0-9.74-6.63-15.06t-19-5.32q-12.37,0-19,5.35t-6.62,15v38.63Q439.81,737.52,446.4,742.9ZM457.11,691a9.17,9.17,0,0,1,2.07-6.39c1.37-1.52,3.46-2.28,6.25-2.28s4.83.76,6.23,2.28a9.13,9.13,0,0,1,2.09,6.39v35a9.1,9.1,0,0,1-2.09,6.42q-2.1,2.23-6.23,2.24t-6.22-2.24a9.06,9.06,0,0,1-2.1-6.42Z"/><path class="cls-2" d="M708.34,311.25Q715,305.9,715,296.16V257.53q0-9.75-6.62-15.07t-19-5.32q-12.39,0-19,5.35t-6.63,15v38.63q0,9.68,6.59,15.06t19,5.38Q701.72,316.6,708.34,311.25ZM681,294.34v-35a9.22,9.22,0,0,1,2.06-6.4c1.38-1.51,3.46-2.27,6.26-2.27s4.82.76,6.22,2.27a9.09,9.09,0,0,1,2.1,6.4v35a9.06,9.06,0,0,1-2.1,6.42q-2.1,2.25-6.22,2.25t-6.23-2.25A9.1,9.1,0,0,1,681,294.34Z"/><polygon class="cls-2" points="622.4 243.35 622.4 258.27 634.45 254.16 634.45 315.79 651.75 315.79 651.75 238 635.58 238 622.4 243.35"/><path class="cls-2" d="M695.91,156.13q-6.61-5.32-19-5.32t-19,5.35q-6.63,5.34-6.62,15v38.63q0,9.69,6.59,15.06t19,5.38q12.38,0,19-5.35t6.63-15.09V171.19Q702.54,161.45,695.91,156.13ZM685.23,208a9,9,0,0,1-2.1,6.42c-1.39,1.5-3.47,2.25-6.22,2.25s-4.82-.75-6.22-2.25a9,9,0,0,1-2.1-6.42V173a9.13,9.13,0,0,1,2.07-6.39c1.37-1.52,3.46-2.28,6.25-2.28s4.83.76,6.22,2.28a9,9,0,0,1,2.1,6.39Z"/><polygon class="cls-2" points="586.64 242.72 586.64 257.75 597.13 254.16 597.13 315.79 614.44 315.79 614.44 238 598.26 238 586.64 242.72"/><polygon class="cls-2" points="609.98 157.01 609.98 171.94 622.02 167.82 622.02 229.46 639.33 229.46 639.33 151.66 623.15 151.66 609.98 157.01"/><polygon class="cls-2" points="485.56 329.68 485.56 344.61 497.61 340.49 497.61 402.13 514.91 402.13 514.91 324.33 498.74 324.33 485.56 329.68"/><polygon class="cls-2" points="701.54 669.67 685.36 669.67 672.19 675.02 672.19 689.95 684.23 685.83 684.23 747.47 701.54 747.47 701.54 669.67"/><path class="cls-2" d="M621.28,742.92q6.62-5.34,6.62-15.09V689.2q0-9.74-6.62-15.06t-19-5.32q-12.39,0-19,5.35t-6.63,15v38.63q0,9.69,6.59,15.07t19,5.37Q614.66,748.27,621.28,742.92ZM594,726V691a9.16,9.16,0,0,1,2.06-6.39q2.06-2.28,6.26-2.28t6.22,2.28a9.08,9.08,0,0,1,2.1,6.39v35a9.06,9.06,0,0,1-2.1,6.42q-2.1,2.23-6.22,2.24c-2.76,0-4.83-.75-6.23-2.24A9.1,9.1,0,0,1,594,726Z"/><path class="cls-2" d="M483.72,829.23q6.58,5.38,19,5.38t19-5.35q6.63-5.35,6.62-15.09V775.54q0-9.74-6.62-15.06t-19-5.33q-12.37,0-19,5.35t-6.62,15v38.63Q477.13,823.86,483.72,829.23Zm10.71-51.87a9.22,9.22,0,0,1,2.06-6.4c1.38-1.51,3.46-2.27,6.26-2.27s4.83.76,6.22,2.27a9.09,9.09,0,0,1,2.1,6.4v35a9.06,9.06,0,0,1-2.1,6.42c-1.39,1.5-3.47,2.25-6.22,2.25s-4.83-.75-6.22-2.25a9.06,9.06,0,0,1-2.1-6.42Z"/><path class="cls-2" d="M620.56,829.23q6.59,5.38,19,5.38t19-5.35q6.63-5.35,6.63-15.09V775.54q0-9.74-6.63-15.06t-19-5.33q-12.37,0-19,5.35t-6.62,15v38.63Q614,823.86,620.56,829.23Zm10.71-51.87a9.18,9.18,0,0,1,2.07-6.4c1.37-1.51,3.46-2.27,6.25-2.27s4.83.76,6.23,2.27a9.14,9.14,0,0,1,2.09,6.4v35a9.1,9.1,0,0,1-2.09,6.42q-2.1,2.25-6.23,2.25t-6.22-2.25a9.06,9.06,0,0,1-2.1-6.42Z"/><polygon class="cls-2" points="676.64 583.34 660.47 583.34 647.29 588.69 647.29 603.62 659.34 599.5 659.34 661.13 676.64 661.13 676.64 583.34"/></svg>