/* XPM */
static char *dtool_logo_small[] = {
/* columns rows colors chars-per-pixel */
"22 22 120 2 ",
"   c #8D2D99",
".  c #8E2C99",
"X  c #8D2E99",
"o  c #8D2E9A",
"O  c #8D2F9A",
"+  c #8F2E9A",
"@  c #8E2F9A",
"#  c #8F2F9A",
"$  c #902F9A",
"%  c #912F9A",
"&  c #922F9A",
"*  c #932F9A",
"=  c #942F9A",
"-  c #8B319B",
";  c #8D309A",
":  c #8C319B",
">  c #8D319B",
",  c #8F309B",
"<  c #8E319B",
"1  c #8F319B",
"2  c #8F329B",
"3  c #8F339C",
"4  c #90319B",
"5  c #91319B",
"6  c #92309A",
"7  c #92319B",
"8  c #93319B",
"9  c #91329B",
"0  c #95309A",
"q  c #94319B",
"w  c #95319B",
"e  c #96319B",
"r  c #97319B",
"t  c #91329C",
"y  c #90339C",
"u  c #92329C",
"i  c #93329C",
"p  c #94329C",
"a  c #95329C",
"s  c #96329C",
"d  c #91359D",
"f  c #92349C",
"g  c #93349C",
"h  c #92359D",
"j  c #93379E",
"k  c #94349C",
"l  c #98319B",
"z  c #99319B",
"x  c #93389E",
"c  c #9742A3",
"v  c #9A43A4",
"b  c #9E47A6",
"n  c #9C4BA7",
"m  c #9E4FAA",
"M  c #A34BA8",
"N  c #A150AA",
"B  c #A254AC",
"V  c #A454AC",
"C  c #A757AD",
"Z  c #A459AE",
"A  c #A959AE",
"S  c #A85AAF",
"D  c #AA5AAF",
"F  c #AA60B2",
"G  c #A962B3",
"H  c #AB65B4",
"J  c #AC65B4",
"K  c #AF6BB7",
"L  c #B573BB",
"P  c #B97CBF",
"I  c #B87DC0",
"U  c #BA7EC1",
"Y  c #BE87C5",
"T  c #BF8AC6",
"R  c #C08AC6",
"E  c #CA9BCF",
"W  c #CA9CCF",
"Q  c #CA9DCF",
"!  c #CDA3D3",
"~  c #D2A7D4",
"^  c #D1A9D5",
"/  c #D4AFD8",
"(  c #D5B2DA",
")  c #D7B5DB",
"_  c #D8B5DB",
"`  c #D9B5DB",
"'  c #D8B6DB",
"]  c #D9B6DB",
"[  c #D8B7DC",
"{  c #D9B8DD",
"}  c #D9B9DD",
"|  c #DABBDE",
" . c #DBBDDF",
".. c #DEC1E1",
"X. c #E0C6E3",
"o. c #E1C7E4",
"O. c #E5CEE7",
"+. c #E7D3E9",
"@. c #ECDBEE",
"#. c #ECDDEE",
"$. c #EDDDEE",
"%. c #EEE0F0",
"&. c #F0E4F2",
"*. c #F1E5F2",
"=. c #F3E7F4",
"-. c #F3E8F3",
";. c #F2E8F4",
":. c #F4E9F4",
">. c #F4EAF5",
",. c #F5ECF6",
"<. c #F7EFF7",
"1. c #F8F2F9",
"2. c #F9F3F9",
"3. c #F9F5FA",
"4. c #FBF8FC",
"5. c #FCFAFD",
"6. c #FDFBFD",
"7. c #FEFDFE",
"8. c #FFFFFF",
"9. c None",
/* pixels */
"9.- - - : : : > > > < < < 1 1 1 4 4 4 4 5 9.",
"- - - : : : : > > < < < < 1 1 1 4 4 4 5 5 5 ",
"- - : : : : > > > < < < y d d h f 4 5 5 5 7 ",
"- : : : : > > > < < < o K } [ { Y 9 5 5 7 7 ",
"- : : : > > > < < < ,   T 8.8.8.' u 5 7 7 7 ",
": : : > > > < ; O 2 j , R 8.8.8.) u 7 7 7 7 ",
": : > > > < O c I ( o. .O.8.8.8.) u 7 7 7 8 ",
": > > > < O Z X.5.8.8.8.8.8.8.8._ i 7 7 8 8 ",
"> > > < O m +.8.8.8.8.8.8.8.8.8._ i 7 8 8 8 ",
"> > > < 3 ! 8.8.8.8.6.7.8.8.8.8._ i 8 8 8 q ",
"> > < ; n #.8.8.7...U Q <.8.8.8._ i 8 8 q q ",
"> < < o G 1.8.8.&.N . g ^ 8.8.8._ p 8 q q w ",
"< < < X H 3.8.8.$.v + $ W 8.8.8._ p q q w w ",
"< < 1 @ B *.8.8.4.E V L %.8.8.8.` p q w w e ",
"< 1 1 1 x | 8.8.8.5.=.2.8.8.8.8.` a w w e e ",
"1 1 1 1 # J >.8.8.8.8.8.8.8.8.8.` a w e e r ",
"1 1 1 4 4 t P ;.8.8.8.8.8.8.8.8.] s e e r r ",
"1 1 4 4 4 5 9 F / @.-.:.:.:.:.,.~ s e r r r ",
"1 4 4 4 5 5 5 % k b C S A A A D M e e r r l ",
"4 4 4 5 5 5 7 7 7 6 & & * * = = 0 e r r l l ",
"4 4 5 5 5 7 7 7 7 8 8 q q w w e e r r l l z ",
"9.4 5 5 7 7 7 7 8 8 q q w w e e r r l l z 9."
};
