/* XPM */
static char *dtool_logo[] = {
/* columns rows colors chars-per-pixel */
"22 22 174 2 ",
"   c #892C98",
".  c #8A2D99",
"X  c #8B2D99",
"o  c #892E99",
"O  c #892E9A",
"+  c #8A2F9A",
"@  c #8B2F9A",
"#  c #8C2F9A",
"$  c #8F2E9A",
"%  c #8F2F9A",
"&  c #8A309A",
"*  c #8B309B",
"=  c #8B319B",
"-  c #8D309A",
";  c #8C319B",
":  c #8D319B",
">  c #8E319B",
",  c #8F319B",
"<  c #8D329C",
"1  c #8E339C",
"2  c #8F339C",
"3  c #8C349C",
"4  c #8D349D",
"5  c #8D359D",
"6  c #8E369D",
"7  c #8E379E",
"8  c #8F389F",
"9  c #8F399F",
"0  c #90319B",
"q  c #91319B",
"w  c #92309B",
"e  c #92319B",
"r  c #93319B",
"t  c #94319B",
"y  c #95319B",
"u  c #96309B",
"i  c #96319B",
"p  c #97319B",
"a  c #90339C",
"s  c #91339C",
"d  c #93329C",
"f  c #92339C",
"g  c #95329C",
"h  c #97339C",
"j  c #98309B",
"k  c #98319B",
"l  c #99319B",
"z  c #9A319B",
"x  c #9B319B",
"c  c #9C319B",
"v  c #9D319B",
"b  c #9E319B",
"n  c #9F319B",
"m  c #99329C",
"M  c #98339C",
"N  c #9B329C",
"B  c #9C339C",
"V  c #9E339C",
"C  c #9F339C",
"Z  c #A0319B",
"A  c #A1319B",
"S  c #A2319B",
"D  c #A3319B",
"F  c #A4319B",
"G  c #A5319B",
"H  c #A6319B",
"J  c #A7319B",
"K  c #A1329C",
"L  c #A8319B",
"P  c #A9319B",
"I  c #AA319B",
"U  c #AB319B",
"Y  c #AC319B",
"T  c #AE319B",
"R  c #933EA1",
"E  c #963FA2",
"W  c #9541A3",
"Q  c #9645A5",
"!  c #9843A4",
"~  c #9844A4",
"^  c #9849A6",
"/  c #994AA7",
"(  c #9D4DA9",
")  c #A054AC",
"_  c #A458AE",
"`  c #A55EB1",
"'  c #A660B2",
"]  c #A965B4",
"[  c #AD6DB8",
"{  c #B073BB",
"}  c #B276BD",
"|  c #BC71BA",
" . c #B67DC0",
".. c #BA85C4",
"X. c #BB85C4",
"o. c #BD89C6",
"O. c #BD8AC6",
"+. c #BE8CC7",
"@. c #C28EC8",
"#. c #C88EC8",
"$. c #C493CB",
"%. c #C394CB",
"&. c #C395CC",
"*. c #C597CC",
"=. c #C696CC",
"-. c #C697CC",
";. c #C890C9",
":. c #CA90C9",
">. c #CC96CC",
",. c #C598CD",
"<. c #C698CD",
"1. c #C798CD",
"2. c #CD99CD",
"3. c #CE98CD",
"4. c #CD9DCF",
"5. c #C9A0D1",
"6. c #CAA0D1",
"7. c #CAA1D1",
"8. c #CBA2D2",
"9. c #CCA4D2",
"0. c #CCA5D3",
"q. c #CFA4D3",
"w. c #CFA8D5",
"e. c #D3A7D4",
"r. c #D4ABD6",
"t. c #D4AED7",
"y. c #D7B3DA",
"u. c #D7B4DA",
"i. c #D6B6DB",
"p. c #D7B7DC",
"a. c #DAB5DB",
"s. c #DCBCDE",
"d. c #DDBCDF",
"f. c #DFC6E3",
"g. c #E0C8E4",
"h. c #E1C8E4",
"j. c #E0C9E4",
"k. c #E1C9E4",
"l. c #E1CAE5",
"z. c #E2CBE5",
"x. c #E5CBE5",
"c. c #E2CCE6",
"v. c #E5CFE7",
"b. c #E9D2E9",
"n. c #EAD9EC",
"m. c #EAD9ED",
"M. c #ECDDEF",
"N. c #EDDFEF",
"B. c #EEE1F0",
"V. c #F1E5F3",
"C. c #F1E6F3",
"Z. c #F4EBF5",
"A. c #F5EDF6",
"S. c #F6EEF7",
"D. c #F7EEF7",
"F. c #F6EFF7",
"G. c #F7EFF7",
"H. c #F8F2F9",
"J. c #F9F4F9",
"K. c #F9F4FA",
"L. c #FAF6FB",
"P. c #FBF9FC",
"I. c #FCF9FC",
"U. c #FCFAFC",
"Y. c #FCFAFD",
"T. c #FDFBFD",
"R. c #FDFCFE",
"E. c #FEFCFE",
"W. c #FEFDFE",
"Q. c #FEFEFE",
"!. c #FEFEFF",
"~. c #FFFEFF",
"^. c #FFFFFF",
"/. c None",
/* pixels */
"/.= = = = = = = = = = = = * * * = = ; : > /.",
"= = = = = = = = = = = = 5 6 6 6 4 ; : > , 0 ",
"= = = = = = = = = = = 5 ..8.5.8. .< > , , 0 ",
"= = = = = = = = = = * 7 9.l.g.z.<.1 > , 0 q ",
"= = = = = = = & o O o 3 7.g.f.j.*.2 , 0 q e ",
"= = = = = * & ^ } &.,...i.g.f.k.-.a 0 q e t ",
"= = = = & 9 o.N.R.^.^.!.P.C.c.h.-.s 0 e t y ",
"= = = * 8 0.T.^.^.^.^.^.^.^.F.v.=.s q r y p ",
"= = = + X.Y.^.^.^.^.^.^.^.^.^.Z.1.f r y p k ",
"= = & Q m.^.^.^.^.H.S.W.^.^.^.!.q.d t i k z ",
"= = o [ I.^.^.^.g.' ) w.E.^.^.^.u.g i k z x ",
"= = o O.^.^.^.L.]   X ~ M.^.^.^.s.h p l x v ",
"= = o +.^.^.^.K.` . # E n.^.^.^.d.M l x v b ",
"= = o { T.^.^.^.p.( ! $.U.^.^.^.a.m z c b Z ",
"= = + / B.^.^.^.W.V.N.U.^.^.^.^.e.N c b Z S ",
"= = = * %.W.^.^.^.^.^.^.^.^.^.G.2.B v n A F ",
"= = = & R p.~.^.^.^.^.^.^.^.J.b.>.V n A D H ",
"= = = = @ W 6.A.^.^.^.^.Q.D.b.x.3.C Z D H L ",
"= = = = ; - 2 _ @.t.y.r.4.;.#.:.| K S G L I ",
"= = = ; : > , % $ w t u j z c b Z S F J I Y ",
"= = ; : > , 0 q e t i k z x v n A F J P Y T ",
"/.; : > , , 0 e r y p l x v n A D H P U T /."
};
