/* XPM */
static char *dtool_logo[] = {
/* columns rows colors chars-per-pixel */
"22 22 159 2 ",
"   c #902F9A",
".  c #922E9A",
"X  c #932F9A",
"o  c #8B319B",
"O  c #8C319B",
"+  c #8D319B",
"@  c #8F309A",
"#  c #8F309B",
"$  c #8E319B",
"%  c #8F319B",
"&  c #90309A",
"*  c #91309A",
"=  c #90309B",
"-  c #90319B",
";  c #91319B",
":  c #92309B",
">  c #92319B",
",  c #93319B",
"<  c #91329B",
"1  c #94309B",
"2  c #95309B",
"3  c #94319B",
"4  c #95319B",
"5  c #96309B",
"6  c #96319B",
"7  c #97319B",
"8  c #91339C",
"9  c #93339C",
"0  c #95339C",
"q  c #96339C",
"w  c #93359D",
"e  c #94349C",
"r  c #94349D",
"t  c #96349C",
"y  c #96349D",
"u  c #97359D",
"i  c #94369D",
"p  c #98319B",
"a  c #99319B",
"s  c #98349D",
"d  c #99349D",
"f  c #98359D",
"g  c #99359D",
"h  c #9A379E",
"j  c #94399F",
"k  c #95399F",
"l  c #9A389F",
"z  c #9A399F",
"x  c #9B399F",
"c  c #973EA1",
"v  c #993BA0",
"b  c #9B3CA0",
"n  c #9A3FA2",
"m  c #9C3CA0",
"M  c #9B40A2",
"N  c #9942A3",
"B  c #9B42A3",
"V  c #9D42A3",
"C  c #9E4BA8",
"Z  c #9F4BA8",
"A  c #A24BA8",
"S  c #A24CA8",
"D  c #A14EA9",
"F  c #A24EA9",
"G  c #A658AE",
"H  c #A759AE",
"J  c #A858AE",
"K  c #A959AE",
"L  c #AA5FB1",
"P  c #AC62B3",
"I  c #AF65B4",
"U  c #B168B6",
"Y  c #B471BA",
"T  c #B672BA",
"R  c #B575BC",
"E  c #B774BC",
"W  c #B775BC",
"Q  c #B974BC",
"!  c #B878BE",
"~  c #B97BBF",
"^  c #BA7ABE",
"/  c #BC7BBF",
"(  c #BA7CC0",
")  c #BB7FC1",
"_  c #BC7EC0",
"`  c #BD7FC1",
"'  c #BE7FC1",
"]  c #BD81C2",
"[  c #BF81C2",
"{  c #BF83C3",
"}  c #BF84C3",
"|  c #BE85C4",
" . c #BE86C4",
".. c #C082C2",
"X. c #C083C3",
"o. c #C084C3",
"O. c #C085C4",
"+. c #C185C4",
"@. c #C186C4",
"#. c #C087C5",
"$. c #C187C5",
"%. c #C088C5",
"&. c #C188C5",
"*. c #C18AC6",
"=. c #C38AC6",
"-. c #C18CC7",
";. c #C38DC8",
":. c #C48EC8",
">. c #C48FC9",
",. c #C68FC8",
"<. c #C490C9",
"1. c #C590C9",
"2. c #C690C9",
"3. c #C591CA",
"4. c #C792CA",
"5. c #C693CA",
"6. c #C793CA",
"7. c #C793CB",
"8. c #C894CB",
"9. c #C895CB",
"0. c #C996CC",
"q. c #C997CC",
"w. c #C897CD",
"e. c #C997CD",
"r. c #CA97CC",
"t. c #CA97CD",
"y. c #C898CD",
"u. c #C998CD",
"i. c #CA99CD",
"p. c #CB99CE",
"a. c #CA9ACE",
"s. c #CB9ACE",
"d. c #CA9BCE",
"f. c #CB9BCE",
"g. c #CA9BCF",
"h. c #CB9BCF",
"j. c #CB9CCF",
"k. c #CB9DCF",
"l. c #CC9CCF",
"z. c #CC9DCF",
"x. c #CD9DCF",
"c. c #CB9DD0",
"v. c #CC9DD0",
"b. c #CC9ED0",
"n. c #CD9ED0",
"m. c #CD9FD1",
"M. c #CE9ED0",
"N. c #CEA0D1",
"B. c #CEA1D1",
"V. c #CFA1D1",
"C. c #CDA1D2",
"Z. c #CEA2D2",
"A. c #CFA2D2",
"S. c #CFA3D2",
"D. c #CFA4D3",
"F. c #CFA5D3",
"G. c #D0A4D3",
"H. c #D0A6D4",
"J. c None",
/* pixels */
"J.o o o O + + $ $ % % - - ; ; > > , , , 3 J.",
"o o o O O + + $ $ % - - ; ; > > , , , 3 3 3 ",
"o o O O + + $ $ % % - ; < 9 r r e , 3 3 3 3 ",
"o O O + + $ $ % % - - * H #.*.&.W 0 3 3 3 4 ",
"O O + + $ $ % % - - ;   P w.B.:._ y 3 3 4 4 ",
"O + + $ $ % % = = w k i L f.Z.z.} 0 3 4 4 4 ",
"+ + $ $ % % # j G ) ~ | ( ;.b.B.O.0 4 4 4 4 ",
"+ $ $ % % # C -.C.D.g.D.j.B.A.N.O.y 4 4 4 6 ",
"$ $ % % @ N  .k.k.k.>.v.1.i.b.a.^ t 4 4 6 6 ",
"$ $ % % 8 R F.D.S.D.e.k.G.G.j.G.$.t 4 6 6 6 ",
"$ % % = c <.d.a.k.! F J 6.n.4.s.o.q 6 6 6 6 ",
"% % - & Z c.D.H.%.n . X T q.N.V.{ f 6 6 6 7 ",
"% - -   D y.v.z.] v X X I 7.8.n./ s 6 6 7 7 ",
"- - ; * B g.v.3.m.E A K q.x.n.N.[ f 6 7 7 7 ",
"- ; ; > e Y h.5.i.j.u.p.z.s.t.M.' s 7 7 7 7 ",
"; ; > > : M 5.G.S.S.0.2.A.9.,.2.' g 7 7 7 p ",
"; > > , , , S =.N.l.x.q.x.x.r.p...d 7 7 p p ",
"> > , , , 3 1 V U ` q.@.@.r.+.X.Q d 7 p p p ",
"> , , , 3 3 3 1 1 u b z l m z x h 7 p p p p ",
", , , 3 3 3 3 4 4 4 2 5 5 5 7 7 7 p p p p a ",
", , 3 3 3 3 4 4 4 6 6 6 6 7 7 7 p p p p a a ",
"J., 3 3 3 4 4 4 4 6 6 6 7 7 7 7 p p p a a J."
};
