/* XPM */
static char *dtool_logo_small[] = {
/* columns rows colors chars-per-pixel */
"32 32 151 2 ",
"   c #8E2D99",
".  c #8F2D99",
"X  c #8D2E99",
"o  c #8F2E99",
"O  c #8D2E9A",
"+  c #8D2F9A",
"@  c #8E2E9A",
"#  c #8E2F9A",
"$  c #8F2F9A",
"%  c #912E99",
"&  c #902E9A",
"*  c #912E9A",
"=  c #902F9A",
"-  c #912F9A",
";  c #922E9A",
":  c #932E9A",
">  c #922F9A",
",  c #932F9A",
"<  c #942E9A",
"1  c #942F9A",
"2  c #8B319B",
"3  c #8D309A",
"4  c #8C319B",
"5  c #8D319B",
"6  c #8E309A",
"7  c #8E309B",
"8  c #8E319B",
"9  c #8F319B",
"0  c #90309B",
"q  c #91309B",
"w  c #90319B",
"e  c #91319B",
"r  c #92309B",
"t  c #92319B",
"y  c #93319B",
"u  c #95309B",
"i  c #94319B",
"p  c #95319B",
"a  c #96309B",
"s  c #96319B",
"d  c #97319B",
"f  c #90329C",
"g  c #91359D",
"h  c #93359D",
"j  c #93369D",
"k  c #91379E",
"l  c #98319B",
"z  c #99319B",
"x  c #93389F",
"c  c #95399F",
"v  c #96399F",
"b  c #963A9F",
"n  c #943BA0",
"m  c #973FA2",
"M  c #9940A3",
"N  c #9842A3",
"B  c #9B45A4",
"V  c #9A45A5",
"C  c #9A46A5",
"Z  c #9C45A4",
"A  c #9C46A5",
"S  c #9D47A6",
"D  c #9E49A7",
"F  c #9C4AA7",
"G  c #9C4BA8",
"H  c #9E4CA8",
"J  c #9F4DA8",
"K  c #9E4FA9",
"L  c #A045A5",
"P  c #A050AA",
"I  c #A153AB",
"U  c #A253AC",
"Y  c #A353AC",
"T  c #A555AC",
"R  c #A455AD",
"E  c #AA61B2",
"W  c #AA63B3",
"Q  c #AB63B3",
"!  c #AC63B3",
"~  c #AB64B3",
"^  c #AB64B4",
"/  c #AD66B5",
"(  c #AE67B5",
")  c #B06AB7",
"_  c #B16AB7",
"`  c #B16BB7",
"'  c #B26AB7",
"]  c #B36AB7",
"[  c #B06CB8",
"{  c #B676BC",
"}  c #B977BD",
"|  c #B77CBF",
" . c #B878BD",
".. c #B97ABE",
"X. c #BA7ABE",
"o. c #B97FC1",
"O. c #BE88C5",
"+. c #C290C9",
"@. c #C391CA",
"#. c #C999CD",
"$. c #CEA4D3",
"%. c #CFA6D4",
"&. c #D3ADD7",
"*. c #D4AFD8",
"=. c #D6B3DA",
"-. c #D7B5DB",
";. c #DABBDE",
":. c #DBBCDF",
">. c #DBBDDF",
",. c #DDBFE0",
"<. c #DDC0E0",
"1. c #DEC2E1",
"2. c #DFC2E2",
"3. c #DFC3E2",
"4. c #DFC5E3",
"5. c #E4CCE6",
"6. c #E5CFE8",
"7. c #E7D3EA",
"8. c #E8D4EA",
"9. c #E9D6EB",
"0. c #E9D7EB",
"q. c #EAD8EC",
"w. c #EBDAED",
"e. c #ECDDEE",
"r. c #EDDEEF",
"t. c #EFE0F0",
"y. c #EFE1F0",
"u. c #F0E2F1",
"i. c #F0E4F2",
"p. c #F1E5F2",
"a. c #F2E6F3",
"s. c #F3E8F4",
"d. c #F3E9F4",
"f. c #F5EDF6",
"g. c #F6EEF6",
"h. c #F7F0F8",
"j. c #F8F3F9",
"k. c #F9F3F9",
"l. c #F9F4F9",
"z. c #FAF6FB",
"x. c #FBF7FB",
"c. c #FBF8FC",
"v. c #FCF8FC",
"b. c #FCF9FC",
"n. c #FCFAFD",
"m. c #FDFBFD",
"M. c #FEFDFE",
"N. c #FEFEFE",
"B. c #FEFEFF",
"V. c #FFFFFF",
"C. c None",
/* pixels */
"C.C.2 2 2 2 4 4 4 4 4 5 5 5 5 8 8 8 8 8 9 9 9 9 w w w w w e C.C.",
"C.2 2 2 2 2 4 4 4 4 5 5 5 5 5 8 8 8 8 9 9 9 9 w w w w w e e e C.",
"2 2 2 2 2 4 4 4 4 5 5 5 5 5 8 8 8 8 9 9 9 9 w w w w w e e e e e ",
"2 2 2 2 4 4 4 4 5 5 5 5 5 8 8 8 8 9 # X O O @ @ 0 w e e e e e t ",
"2 2 2 4 4 4 4 5 5 5 5 5 8 8 8 8 9 f I ^ W Q Q E m q e e e e t t ",
"2 2 4 4 4 4 5 5 5 5 5 8 8 8 8 9 9 g -.x.k.k.l.f.( & e e e t t t ",
"2 4 4 4 4 4 5 5 5 5 8 8 8 8 8 9 9 g :.V.V.V.V.c.) & e e t t t t ",
"4 4 4 4 4 5 5 5 5 8 8 8 8 7 # # # g :.V.V.V.V.c.) & e t t t t t ",
"4 4 4 4 5 5 5 5 5 8 8 3 + x V F C m >.V.V.V.V.c.) & t t t t t y ",
"4 4 4 5 5 5 5 5 8 7 7 G O.;.0.y.w.1.p.V.V.V.V.c.) & t t t t y y ",
"4 4 5 5 5 5 5 8 7 k | q.m.V.V.V.V.V.V.V.V.V.V.c.) * t t t y y y ",
"4 5 5 5 5 5 8 7 k @.j.V.V.V.V.V.V.V.V.V.V.V.V.c.) * t t y y y y ",
"5 5 5 5 5 8 8 7 o.j.V.V.V.V.V.V.V.V.V.V.V.V.V.c.) * t t y y y i ",
"5 5 5 5 8 8 + K e.V.V.V.V.V.V.V.V.V.V.V.V.V.V.c.) * t y y y i i ",
"5 5 5 8 8 8 + +.N.V.V.V.V.V.k.t.h.V.V.V.V.V.V.c.) * y y y i i i ",
"5 5 8 8 8 7 n 4.V.V.V.V.V.7.[ J ! 2.V.V.V.V.V.c.) ; y y i i i p ",
"5 5 8 8 8 + H r.V.V.V.V.h./   = . R u.V.V.V.V.c._ ; y y i i p p ",
"5 8 8 8 8 + U d.V.V.V.V.9.B = e q c 3.V.V.V.V.c._ ; y i i p p p ",
"8 8 8 8 9 # P i.V.V.V.V.a.Y o q & Z 8.V.V.V.V.c._ > i i i p p p ",
"8 8 8 9 9 6 N 6.V.V.V.V.N.&.S h M #.n.V.V.V.V.c._ , i i p p p s ",
"8 8 9 9 9 9 9 %.V.V.V.V.V.m.8.=.5.b.V.V.V.V.V.c.' , i p p p s s ",
"8 8 9 9 9 9 $ ~ g.V.V.V.V.V.V.V.V.V.V.V.V.V.V.c.' : p p p s s s ",
"8 9 9 9 9 w 0 j $.N.V.V.V.V.V.V.V.V.V.V.V.V.V.c.' : p p s s s d ",
"9 9 9 9 w w w $ A ,.B.V.V.V.V.V.V.V.V.V.V.V.V.c.' < p s s s d d ",
"9 9 9 9 w w w w = D *.z.V.V.V.V.V.V.V.V.V.V.V.v.] < s s s d d d ",
"9 9 9 w w w w e e = b { <.s.m.M.M.M.M.M.M.M.N.x.] < s s d d d l ",
"9 9 w w w w e e e e q - v T `  .......X.X.X.X.} L u s d d d l l ",
"9 w w w w e e e e e t t r - % ; > > , , : 1 1 1 a s s d d l l l ",
"w w w w e e e e e t t t t t y y y i i i p p p s s s d d l l l z ",
"w w w w e e e e t t t t t y y y i i i p p p s s s d d l l l z z ",
"C.w w e e e e t t t t t y y y i i i p p p s s s d d d l l z z C.",
"C.C.e e e e e t t t t y y y i i i i p p s s s d d d l l l z C.C."
};
