/* XPM */
static char *dtool_logo[] = {
/* columns rows colors chars-per-pixel */
"32 32 243 2 ",
"   c #892E99",
".  c #8A2E9A",
"X  c #8A2F9A",
"o  c #8B2F9A",
"O  c #8C2D99",
"+  c #8C2E99",
"@  c #8C2E9A",
"#  c #8D2E9A",
"$  c #8C2F9A",
"%  c #8D2F9A",
"&  c #8E2E9A",
"*  c #8F2E9A",
"=  c #8E2F9A",
"-  c #932E99",
";  c #902E9A",
":  c #912E9A",
">  c #912F9A",
",  c #922E9A",
"<  c #932E9A",
"1  c #952D99",
"2  c #942E99",
"3  c #962E99",
"4  c #972E99",
"5  c #952F9A",
"6  c #962F9A",
"7  c #982E9A",
"8  c #992E9A",
"9  c #982F9A",
"0  c #992F9A",
"q  c #9A2E9A",
"w  c #9B2E9A",
"e  c #9A2F9A",
"r  c #9C2E9A",
"t  c #9D2E9A",
"y  c #9C2F9A",
"u  c #9D2F9A",
"i  c #9E2F9A",
"p  c #8A309A",
"a  c #8A309B",
"s  c #8B309B",
"d  c #8B319B",
"f  c #8D309A",
"g  c #8C319B",
"h  c #8D319B",
"j  c #8F309B",
"k  c #8E319B",
"l  c #8F319B",
"z  c #8C329C",
"x  c #8C339C",
"c  c #8D339C",
"v  c #8F339C",
"b  c #8E369D",
"n  c #8E379E",
"m  c #8F389E",
"M  c #91309B",
"N  c #90319B",
"B  c #91319B",
"V  c #92319B",
"C  c #93319B",
"Z  c #94319B",
"A  c #95319B",
"S  c #96319B",
"D  c #97319B",
"F  c #98319B",
"G  c #99319B",
"H  c #9A319B",
"J  c #9B319B",
"K  c #9C319B",
"L  c #9D319B",
"P  c #9E319B",
"I  c #9F319B",
"U  c #91389E",
"Y  c #90399F",
"T  c #903A9F",
"R  c #A0309B",
"E  c #A0319B",
"W  c #A1319B",
"Q  c #A2319B",
"!  c #A3319B",
"~  c #A4319B",
"^  c #A5319B",
"/  c #A6319B",
"(  c #A7319B",
")  c #A8319B",
"_  c #A9319B",
"`  c #AA319B",
"'  c #AB319B",
"]  c #AC319B",
"[  c #AD319B",
"{  c #AE319B",
"}  c #AF319B",
"|  c #903AA0",
" . c #913CA0",
".. c #933EA1",
"X. c #973EA1",
"o. c #A43BA0",
"O. c #9440A2",
"+. c #9542A3",
"@. c #9643A4",
"#. c #9743A4",
"$. c #9644A4",
"%. c #9746A5",
"&. c #9848A6",
"*. c #9849A7",
"=. c #9A4AA7",
"-. c #9A4BA8",
";. c #9A4CA8",
":. c #9D50AA",
">. c #9E52AB",
",. c #A64EA9",
"<. c #A74EA9",
"1. c #A94FA9",
"2. c #AA4FA9",
"3. c #AB4FA9",
"4. c #AC4EA9",
"5. c #A250AA",
"6. c #A650AA",
"7. c #A056AD",
"8. c #A754AC",
"9. c #A65BAF",
"0. c #A959AE",
"q. c #A85AAF",
"w. c #A45EB1",
"e. c #A55FB1",
"r. c #A75EB1",
"t. c #B45FB1",
"y. c #A862B3",
"u. c #A962B3",
"i. c #A863B3",
"p. c #AA62B3",
"a. c #AB62B3",
"s. c #AE65B4",
"d. c #AD6AB7",
"f. c #B162B3",
"g. c #B262B3",
"h. c #B362B3",
"j. c #B462B3",
"k. c #B563B3",
"l. c #B366B5",
"z. c #B26CB8",
"x. c #B66DB8",
"c. c #B272BB",
"v. c #B673BB",
"b. c #B873BB",
"n. c #B875BC",
"m. c #B47ABE",
"M. c #B881C2",
"N. c #BA85C4",
"B. c #C28FC8",
"V. c #C090C9",
"C. c #C190C9",
"Z. c #C494CB",
"A. c #C697CC",
"S. c #C699CD",
"D. c #C89DCF",
"F. c #C99ED0",
"G. c #C99FD0",
"H. c #CCA2D2",
"J. c #CDA3D2",
"K. c #CEA5D3",
"L. c #CEA8D5",
"P. c #CFAAD6",
"I. c #D0ABD6",
"U. c #D2AFD8",
"Y. c #D3B1D9",
"T. c #D5B4DB",
"R. c #D8BADD",
"E. c #DFBBDE",
"W. c #DABEDF",
"Q. c #DEBCDE",
"!. c #DEBDDE",
"~. c #DFBDDF",
"^. c #DDC1E1",
"/. c #DDC2E1",
"(. c #DDC3E2",
"). c #DEC4E2",
"_. c #DFC4E2",
"`. c #DEC5E2",
"'. c #DFC5E2",
"]. c #DFC5E3",
"[. c #DFC6E3",
"{. c #DFC7E3",
"}. c #DFC7E4",
"|. c #E0C1E1",
" X c #E2C4E2",
".X c #E2C5E2",
"XX c #E3C5E3",
"oX c #E0C6E3",
"OX c #E3C6E3",
"+X c #E3C7E3",
"@X c #E0C8E4",
"#X c #E1C9E5",
"$X c #E2C9E5",
"%X c #E5CBE5",
"&X c #E4CFE8",
"*X c #E5D2E9",
"=X c #E6D2E9",
"-X c #E6D3E9",
";X c #E7D5EA",
":X c #E8D2E9",
">X c #E8D4EA",
",X c #E9D7EB",
"<X c #EAD6EB",
"1X c #EBD7EB",
"2X c #EADAED",
"3X c #EBDBEE",
"4X c #EDDBED",
"5X c #ECDCEE",
"6X c #EDDEEF",
"7X c #EDDFEF",
"8X c #EFDFEF",
"9X c #EEE0F0",
"0X c #F0E3F2",
"qX c #F1E3F2",
"wX c #F0E5F2",
"eX c #F1E5F3",
"rX c #F1E6F3",
"tX c #F2E8F4",
"yX c #F4EBF5",
"uX c #F5EDF6",
"iX c #F6EDF6",
"pX c #F5EEF7",
"aX c #F6EFF7",
"sX c #F8F0F8",
"dX c #F8F1F8",
"fX c #F8F2F9",
"gX c #F9F4FA",
"hX c #FBF8FB",
"jX c #FBF8FC",
"kX c #FBF9FC",
"lX c #FCF9FC",
"zX c #FCFAFD",
"xX c #FDFAFD",
"cX c #FCFBFD",
"vX c #FDFCFD",
"bX c #FDFCFE",
"nX c #FEFCFE",
"mX c #FEFDFE",
"MX c #FEFEFE",
"NX c #FEFEFF",
"BX c #FFFEFF",
"VX c #FFFFFF",
"CX c None",
/* pixels */
"CXd d d d d d d d d d d d d d d d d d d d d d d d d g g h k k CX",
"d d d d d d d d d d d d d d d d d d d d d d d d d g g h k k l l ",
"d d d d d d d d d d d d d d d d d z b b b b b b x g h h k l l N ",
"d d d d d d d d d d d d d d d d X >.D.G.G.G.G.F.7.$ h k l l N N ",
"d d d d d d d d d d d d d d d d . e.].@X@X@X@X{.i.@ k k l N N B ",
"d d d d d d d d d d d d d d d d . w.(.[.[.[.[.`.y.@ k l N N B V ",
"d d d d d d d d d d d d s p X X   w.(.[.[.[.[.`.u.# l l N B V C ",
"d d d d d d d d d d X . n $.;.*.| e./.[.[.[.[.`.u.# l N B B C Z ",
"d d d d d d d d a s :.V.).7XtXwX=X(.;X@X].[.[.'.p.= N N B V Z A ",
"d d d d d d d X  .V.eXBXVXVXVXVXVXVXmXuX*X].oX'.p.& N B V C A S ",
"d d d d d d X +.T.bXVXVXVXVXVXVXVXVXVXVXhX,XoX'.p.* B V C Z S D ",
"d d d d d s Y Y.VXVXVXVXVXVXVXVXVXVXVXVXVXkX>X_.a.* V C Z A D F ",
"d d d d d X N.cXVXVXVXVXVXVXVXVXVXVXVXVXVXVXdX$Xa.; C Z A S F G ",
"d d d d p %.2XVXVXVXVXVXVXVXVXVXVXVXVXVXVXVXBX5Xa.: Z A S D G H ",
"d d d d   m.bXVXVXVXVXVXvX-XP.R.pXVXVXVXVXVXVXaXs., A S D F H J ",
"d d d d d I.VXVXVXVXVXNXL.O.o c d.rXVXVXVXVXVXlXz.- S D F H J K ",
"d d d s n }.VXVXVXVXVX9X&.. g h + A.VXVXVXVXVXbXv.2 D F G J K L ",
"d d d s T &XVXVXVXVXVX}.b g h h O c.nXVXVXVXVXmXn.1 F G H K L P ",
"d d d s m #XVXVXVXVXVX3X@.$ h k O B.VXVXVXVXVXnXb.3 G H J L P I ",
"d d d d d U.VXVXVXVXVXbXS.U + % 9.6XVXVXVXVXVXlXx.4 H J K P I E ",
"d d d d   M.MXVXVXVXVXVXjX^.Z.K.0XVXVXVXVXVXVXsXl.7 J K L I E W ",
"d d d d X -.9XVXVXVXVXVXVXVXVXVXVXVXVXVXVXVXVX8Xf.8 K L P E W ! ",
"d d d d d p C.mXVXVXVXVXVXVXVXVXVXVXVXVXVXVXgX%Xg.q L P I W Q ~ ",
"d d d d d a ..W.VXVXVXVXVXVXVXVXVXVXVXVXVXxX1X Xh.w P I E Q ~ / ",
"d d d d d d X =.).BXVXVXVXVXVXVXVXVXVXVXzX4XOX.Xj.r I E Q ~ ^ ( ",
"d d d d d d g o #.H.aXVXVXVXVXVXVXVXBXfX<X+X+XXXk.t E W ! ^ ( _ ",
"d d d d d g g h f v r.J.>XyXfXdXiXqX:X|.Q.!.~.E.t.i W ! ^ ( ) ` ",
"d d d d d g h h k k = j X.5.q.0.8.6.,.<.1.2.3.4.o.R Q ~ / ) ` ] ",
"d d d d g h h k k l N N M > , < 5 6 9 0 e y u i R Q ~ / ) _ ' [ ",
"d d d g g h k k l N N B V C Z S D F H J K P I E Q ! ^ ( _ ' [ { ",
"d d g g h k k l l N B V C Z A D F G J K L I E W ! ^ ( _ ' ] { } ",
"CXd g h h k l l N N B C Z A S F G H K L P I W ! ~ / ) ` ] { } CX"
};
