/* XPM */
static char *dtool_logo[] = {
/* columns rows colors chars-per-pixel */
"32 32 39 1 ",
"  c #8F2F9A",
". c #932E9A",
"X c #8E319B",
"o c #94319B",
"O c #98319B",
"+ c #96399F",
"@ c #9A3A9F",
"# c #973CA0",
"$ c #9B3EA1",
"% c #9D43A4",
"& c #A045A5",
"* c #A14AA7",
"= c #A14CA8",
"- c #A453AB",
"; c #A857AD",
": c #A759AF",
"> c #A959AE",
", c #A75CB0",
"< c #AB5DB0",
"1 c #AE63B3",
"2 c #B165B4",
"3 c #B169B6",
"4 c #B26FB9",
"5 c #B574BC",
"6 c #BA7ABF",
"7 c #BB7EC0",
"8 c #BE83C3",
"9 c #C186C4",
"0 c #C28AC6",
"q c #C48EC8",
"w c #C692CA",
"e c #C996CC",
"r c #CA9ACE",
"t c #CD9ED0",
"y c #CFA2D2",
"u c #D0A5D3",
"i c #D3AAD6",
"p c #D4AED8",
"a c None",
/* pixels */
"aaXXXXXXXXXXXXXXXoXoXoooXoooooaa",
"aXXXXXXXXXXXXXoXoXoXoXXooooooooa",
"XXXXXXXXXXXXXXXXXoXoooooooXooooo",
"XXXXXXXXXXoXXooXXXoX  oXoooooooo",
"XXXXXXXXXXoXXXXXoo%1:,,,%.oooooo",
"XXXXXXXXXXXXXXXXXo8yiyyi3.ooooOo",
"XXXXXXXXXXXXX+XXo+7wyy881.oooooo",
"XXXXXXXXoXXoXXXXXo5wwy8r;.ooOoOo",
"XXXXXXXXXXXXX%%=%+6eitpu3.oOoOoo",
"XXXXXXXXXXX#1888qq68eueu;.oooooO",
"XXXXXXXXXX18y8iyrureueut1.ooOooO",
"XXXXXXXXX5upypt8iywiuite3.oooooO",
"XXXXXXXX18y8y8r8er89i0r0>.OoooOo",
"XXXXXXXX8uuyuiyytuuyuruu2.ooOOoO",
"XXXXXXX4piuiuur88uuuu9uu2.oOOoOo",
"XXXXXXX88y8yr5=X$<ywu7rt;.oOoOoO",
"oXXXXX%8pyiyw=.o.$rrtiyt2OO.OOOO",
"XXoXoX%rwiei3+oooo799ru9<OO..OOO",
"XXXoXo#rwyeu9*.o.+8teeie2OOO.OOO",
"XooXoXXwiyewp6*@$6iteite2OOOOOO.",
"oXoXXo.3rr87rr997rqt7ey8<.oOOOOO",
"XoXooXo%8yytututuuutyyyy2.OOO..O",
"Xooooooo-yyiuiuq0tueqqqq2OOoOOOO",
"oXoXoXoo+1y8u0r09qtqq0qq>OOOoOOO",
"oXXoooXo.+2rutiuttuuyytu3OOOOOOO",
"oooooooooo.&36ruq9qye9901O.OOOOO",
"Xoooooooooo.o+$&$$$&&$$$@OOOOOOO",
"ooXooooooooOoO.OOOOOOOOoOOOOOOOO",
"oXooooooooOooOOoOO.OOOoOOOOOOOOO",
"oooooooooooooooOOO.OOoOOOOOOOOOO",
"aoooooooOoOooOOoOoOOOOOOOOOOOOOa",
"aaoooooooooooOoOoO.OoOOOOOOOOOaa"
};
